<svg xmlns="http://www.w3.org/2000/svg" viewBox="-130 0 833 236" width="100%" data-pf-min-width="833" role="img" aria-labelledby="pf-f23452-title pf-f23452-desc"><title id="pf-f23452-title">Patch diagram</title><desc id="pf-f23452-desc">Patch diagram with 2 modules and 2 connections. Modules: CH 1, CH 2. Signals: 2 cv.</desc><style>@media print { .pf-panel, .pf-jack { filter: none; } }</style><defs><filter id="pf-f23452-panel-shadow" x="-20%" y="-20%" width="140%" height="140%"><feDropShadow dx="0" dy="2" stdDeviation="3" flood-opacity="0.1"/></filter><filter id="pf-f23452-jack-shadow" x="-20%" y="-20%" width="140%" height="140%"><feDropShadow dx="0" dy="0.5" stdDeviation="0.8" flood-opacity="0.15"/></filter><pattern id="pf-f23452-dots" width="12" height="12" patternUnits="userSpaceOnUse"><circle cx="6" cy="6" r="0.5" fill="#aaaaaa" opacity="0.3"/></pattern></defs><g class="pf-layer-bg"><rect width="573" height="236" fill="url(#pf-f23452-dots)"/></g><g class="pf-layer-cables"><path d="M 160 60 C 224 60, 256 60, 320 60" stroke="#7bafd4" stroke-width="3" fill="none" stroke-linecap="round" stroke-linejoin="round" data-connection="conn-0" data-signal="cv"/><path d="M 553 60 L 573 60 L 573 170 L 0 170 L 0 60 L 20 60" stroke="#7bafd4" stroke-width="3" fill="none" stroke-linecap="round" stroke-linejoin="round" data-connection="conn-1" data-signal="cv"/><circle cx="160" cy="60" r="3.5" fill="#6a9ec3"/><circle cx="320" cy="60" r="3.5" fill="#6a9ec3"/><circle cx="553" cy="60" r="3.5" fill="#6a9ec3"/><circle cx="20" cy="60" r="3.5" fill="#6a9ec3"/></g><g class="pf-layer-panels" ><g data-module="MATHS" filter="url(#pf-f23452-panel-shadow)"><rect x="20" y="20" width="140" height="120" fill="#e8e4dc" stroke="#cec8be" stroke-width="0.75" rx="0"/><line x1="20" y1="20.5" x2="160" y2="20.5" stroke="#f2efe8" stroke-width="1"/><line x1="20" y1="139.5" x2="160" y2="139.5" stroke="#bdb8ae" stroke-width="0.5"/><rect x="32" y="28" width="116" height="28" fill="#f4f1ea" stroke="#c5c0b6" stroke-width="0.5"/><text x="90" y="42" text-anchor="middle" font-family="system-ui, -apple-system, BlinkMacSystemFont, &#39;Segoe UI&#39;, sans-serif" font-size="14" font-weight="700" fill="#1a1a1a" letter-spacing="3">CH 1</text></g><g data-module="MATHS" filter="url(#pf-f23452-panel-shadow)"><rect x="320" y="20" width="233" height="120" fill="#e8e4dc" stroke="#cec8be" stroke-width="0.75" rx="0"/><line x1="320" y1="20.5" x2="553" y2="20.5" stroke="#f2efe8" stroke-width="1"/><line x1="320" y1="139.5" x2="553" y2="139.5" stroke="#bdb8ae" stroke-width="0.5"/><rect x="332" y="28" width="209" height="28" fill="#f4f1ea" stroke="#c5c0b6" stroke-width="0.5"/><text x="436.5" y="42" text-anchor="middle" font-family="system-ui, -apple-system, BlinkMacSystemFont, &#39;Segoe UI&#39;, sans-serif" font-size="14" font-weight="700" fill="#1a1a1a" letter-spacing="3">CH 2</text></g></g><g class="pf-layer-params"><rect x="32" y="60" width="116" height="20" fill="#f0ede6" stroke="#d5d0c6" stroke-width="0.5"/><text x="90" y="74" text-anchor="middle" font-family="'SF Mono', 'Fira Code', Consolas, 'Courier New', monospace" font-size="10" fill="#555555">Cycle ON</text><rect x="332" y="60" width="209" height="20" fill="#f0ede6" stroke="#d5d0c6" stroke-width="0.5"/><text x="436.5" y="74" text-anchor="middle" font-family="'SF Mono', 'Fira Code', Consolas, 'Courier New', monospace" font-size="10" fill="#555555">Attenuverter ~2 o&#39;clock</text></g><g class="pf-layer-jacks"><g data-port="maths--ch-1.fall cv" filter="url(#pf-f23452-jack-shadow)"><circle cx="20" cy="60" r="8" fill="#c0bbb2" stroke="#a8a39a" stroke-width="0.75"/><circle cx="20" cy="60" r="5" fill="#8a8580"/><circle cx="20" cy="60" r="3" fill="#555555"/><circle cx="20" cy="60" r="1" fill="#333333"/></g><g data-port="maths--ch-1.out" filter="url(#pf-f23452-jack-shadow)"><circle cx="160" cy="60" r="8" fill="#c0bbb2" stroke="#a8a39a" stroke-width="0.75"/><circle cx="160" cy="60" r="5" fill="#8a8580"/><circle cx="160" cy="60" r="3" fill="#555555"/><circle cx="160" cy="60" r="1" fill="#333333"/></g><g data-port="maths--ch-2.in" filter="url(#pf-f23452-jack-shadow)"><circle cx="320" cy="60" r="8" fill="#c0bbb2" stroke="#a8a39a" stroke-width="0.75"/><circle cx="320" cy="60" r="5" fill="#8a8580"/><circle cx="320" cy="60" r="3" fill="#555555"/><circle cx="320" cy="60" r="1" fill="#333333"/></g><g data-port="maths--ch-2.out" filter="url(#pf-f23452-jack-shadow)"><circle cx="553" cy="60" r="8" fill="#c0bbb2" stroke="#a8a39a" stroke-width="0.75"/><circle cx="553" cy="60" r="5" fill="#8a8580"/><circle cx="553" cy="60" r="3" fill="#555555"/><circle cx="553" cy="60" r="1" fill="#333333"/></g></g><g class="pf-layer-labels"><text x="6" y="63" font-family="&#39;SF Mono&#39;, &#39;Fira Code&#39;, Consolas, &#39;Courier New&#39;, monospace" font-size="9" fill="#1a1a1a" font-weight="600" text-anchor="end">Fall CV</text><rect class="pf-port-pill" x="-64.5" y="54.5" width="19" height="11" rx="0" fill="#7bafd4" data-signal="cv"/><text class="pf-port-pill-text" x="-55" y="63" text-anchor="middle" font-family="&#39;SF Mono&#39;, &#39;Fira Code&#39;, Consolas, &#39;Courier New&#39;, monospace" font-size="8" fill="#ffffff" font-weight="600">cv</text><text x="174" y="63" font-family="&#39;SF Mono&#39;, &#39;Fira Code&#39;, Consolas, &#39;Courier New&#39;, monospace" font-size="9" fill="#1a1a1a" font-weight="600" text-anchor="start">OUT</text><rect class="pf-port-pill" x="199.5" y="54.5" width="19" height="11" rx="0" fill="#7bafd4" data-signal="cv"/><text class="pf-port-pill-text" x="209" y="63" text-anchor="middle" font-family="&#39;SF Mono&#39;, &#39;Fira Code&#39;, Consolas, &#39;Courier New&#39;, monospace" font-size="8" fill="#ffffff" font-weight="600">cv</text><text x="306" y="63" font-family="&#39;SF Mono&#39;, &#39;Fira Code&#39;, Consolas, &#39;Courier New&#39;, monospace" font-size="9" fill="#1a1a1a" font-weight="600" text-anchor="end">In</text><rect class="pf-port-pill" x="268" y="54.5" width="19" height="11" rx="0" fill="#7bafd4" data-signal="cv"/><text class="pf-port-pill-text" x="277.5" y="63" text-anchor="middle" font-family="&#39;SF Mono&#39;, &#39;Fira Code&#39;, Consolas, &#39;Courier New&#39;, monospace" font-size="8" fill="#ffffff" font-weight="600">cv</text><text x="567" y="63" font-family="&#39;SF Mono&#39;, &#39;Fira Code&#39;, Consolas, &#39;Courier New&#39;, monospace" font-size="9" fill="#1a1a1a" font-weight="600" text-anchor="start">Out</text><rect class="pf-port-pill" x="592.5" y="54.5" width="19" height="11" rx="0" fill="#7bafd4" data-signal="cv"/><text class="pf-port-pill-text" x="602" y="63" text-anchor="middle" font-family="&#39;SF Mono&#39;, &#39;Fira Code&#39;, Consolas, &#39;Courier New&#39;, monospace" font-size="8" fill="#ffffff" font-weight="600">cv</text></g><g class="pf-layer-annotations"><text x="286.5" y="90" text-anchor="middle" font-family="&#39;SF Mono&#39;, &#39;Fira Code&#39;, Consolas, &#39;Courier New&#39;, monospace" font-size="9" fill="#888888" paint-order="stroke fill" stroke="#f7f5f0" stroke-width="3" stroke-linejoin="round">↻ shortens fall each cycle</text></g><g class="pf-layer-legend"><g transform="translate(20, 216)"><line x1="0" y1="0" x2="20" y2="0" stroke="#7bafd4" stroke-width="3" stroke-linecap="round"/><text x="26" y="3" font-family="&#39;SF Mono&#39;, &#39;Fira Code&#39;, Consolas, &#39;Courier New&#39;, monospace" font-size="9" fill="#888888">cv</text></g></g></svg>