<svg xmlns="http://www.w3.org/2000/svg" viewBox="-130 0 873 236" width="100%" data-pf-min-width="873" role="img" aria-labelledby="pf-ecddf6-title pf-ecddf6-desc"><title id="pf-ecddf6-title">Patch diagram</title><desc id="pf-ecddf6-desc">Patch diagram with 2 modules and 2 connections. Modules: CH 1, CH 2. Signals: 2 cv.</desc><style>@media print { .pf-panel, .pf-jack { filter: none; } }</style><defs><filter id="pf-ecddf6-panel-shadow" x="-20%" y="-20%" width="140%" height="140%"><feDropShadow dx="0" dy="2" stdDeviation="3" flood-opacity="0.1"/></filter><filter id="pf-ecddf6-jack-shadow" x="-20%" y="-20%" width="140%" height="140%"><feDropShadow dx="0" dy="0.5" stdDeviation="0.8" flood-opacity="0.15"/></filter><pattern id="pf-ecddf6-dots" width="12" height="12" patternUnits="userSpaceOnUse"><circle cx="6" cy="6" r="0.5" fill="#aaaaaa" opacity="0.3"/></pattern></defs><g class="pf-layer-bg"><rect width="613" height="236" fill="url(#pf-ecddf6-dots)"/></g><g class="pf-layer-cables"><path d="M 160 85 C 240 85, 280 85, 360 85" stroke="#7bafd4" stroke-width="3" fill="none" stroke-linecap="round" stroke-linejoin="round" data-connection="conn-0" data-signal="cv"/><path d="M 593 85 L 613 85 L 613 170 L 0 170 L 0 85 L 20 85" stroke="#7bafd4" stroke-width="3" fill="none" stroke-linecap="round" stroke-linejoin="round" data-connection="conn-1" data-signal="cv"/><circle cx="160" cy="85" r="3.5" fill="#6a9ec3"/><circle cx="360" cy="85" r="3.5" fill="#6a9ec3"/><circle cx="593" cy="85" r="3.5" fill="#6a9ec3"/><circle cx="20" cy="85" r="3.5" fill="#6a9ec3"/></g><g class="pf-layer-panels" ><g data-module="MATHS" filter="url(#pf-ecddf6-panel-shadow)"><rect x="20" y="20" width="140" height="120" fill="#e8e4dc" stroke="#cec8be" stroke-width="0.75" rx="0"/><line x1="20" y1="20.5" x2="160" y2="20.5" stroke="#f2efe8" stroke-width="1"/><line x1="20" y1="139.5" x2="160" y2="139.5" stroke="#bdb8ae" stroke-width="0.5"/><rect x="32" y="28" width="116" height="28" fill="#f4f1ea" stroke="#c5c0b6" stroke-width="0.5"/><text x="90" y="42" text-anchor="middle" font-family="system-ui, -apple-system, BlinkMacSystemFont, &#39;Segoe UI&#39;, sans-serif" font-size="14" font-weight="700" fill="#1a1a1a" letter-spacing="3">CH 1</text></g><g data-module="MATHS" filter="url(#pf-ecddf6-panel-shadow)"><rect x="360" y="20" width="233" height="120" fill="#e8e4dc" stroke="#cec8be" stroke-width="0.75" rx="0"/><line x1="360" y1="20.5" x2="593" y2="20.5" stroke="#f2efe8" stroke-width="1"/><line x1="360" y1="139.5" x2="593" y2="139.5" stroke="#bdb8ae" stroke-width="0.5"/><rect x="372" y="28" width="209" height="28" fill="#f4f1ea" stroke="#c5c0b6" stroke-width="0.5"/><text x="476.5" y="42" text-anchor="middle" font-family="system-ui, -apple-system, BlinkMacSystemFont, &#39;Segoe UI&#39;, sans-serif" font-size="14" font-weight="700" fill="#1a1a1a" letter-spacing="3">CH 2</text></g></g><g class="pf-layer-params"><rect x="32" y="60" width="116" height="20" fill="#f0ede6" stroke="#d5d0c6" stroke-width="0.5"/><text x="90" y="74" text-anchor="middle" font-family="'SF Mono', 'Fira Code', Consolas, 'Courier New', monospace" font-size="10" fill="#555555">Cycle ON</text><rect x="372" y="60" width="209" height="20" fill="#f0ede6" stroke="#d5d0c6" stroke-width="0.5"/><text x="476.5" y="74" text-anchor="middle" font-family="'SF Mono', 'Fira Code', Consolas, 'Courier New', monospace" font-size="10" fill="#555555">Attenuverter ~2 o&#39;clock</text></g><g class="pf-layer-jacks"><g data-port="maths--ch-1.fall cv" filter="url(#pf-ecddf6-jack-shadow)"><circle cx="20" cy="85" r="8" fill="#c0bbb2" stroke="#a8a39a" stroke-width="0.75"/><circle cx="20" cy="85" r="5" fill="#8a8580"/><circle cx="20" cy="85" r="3" fill="#555555"/><circle cx="20" cy="85" r="1" fill="#333333"/></g><g data-port="maths--ch-1.out" filter="url(#pf-ecddf6-jack-shadow)"><circle cx="160" cy="85" r="8" fill="#c0bbb2" stroke="#a8a39a" stroke-width="0.75"/><circle cx="160" cy="85" r="5" fill="#8a8580"/><circle cx="160" cy="85" r="3" fill="#555555"/><circle cx="160" cy="85" r="1" fill="#333333"/></g><g data-port="maths--ch-2.in" filter="url(#pf-ecddf6-jack-shadow)"><circle cx="360" cy="85" r="8" fill="#c0bbb2" stroke="#a8a39a" stroke-width="0.75"/><circle cx="360" cy="85" r="5" fill="#8a8580"/><circle cx="360" cy="85" r="3" fill="#555555"/><circle cx="360" cy="85" r="1" fill="#333333"/></g><g data-port="maths--ch-2.out" filter="url(#pf-ecddf6-jack-shadow)"><circle cx="593" cy="85" r="8" fill="#c0bbb2" stroke="#a8a39a" stroke-width="0.75"/><circle cx="593" cy="85" r="5" fill="#8a8580"/><circle cx="593" cy="85" r="3" fill="#555555"/><circle cx="593" cy="85" r="1" fill="#333333"/></g></g><g class="pf-layer-labels"><text x="6" y="88" font-family="&#39;SF Mono&#39;, &#39;Fira Code&#39;, Consolas, &#39;Courier New&#39;, monospace" font-size="9" fill="#1a1a1a" font-weight="600" text-anchor="end">Fall CV</text><rect class="pf-port-pill" x="-64.5" y="79.5" width="19" height="11" rx="0" fill="#7bafd4" data-signal="cv"/><text class="pf-port-pill-text" x="-55" y="88" text-anchor="middle" font-family="&#39;SF Mono&#39;, &#39;Fira Code&#39;, Consolas, &#39;Courier New&#39;, monospace" font-size="8" fill="#ffffff" font-weight="600">cv</text><text x="174" y="88" font-family="&#39;SF Mono&#39;, &#39;Fira Code&#39;, Consolas, &#39;Courier New&#39;, monospace" font-size="9" fill="#1a1a1a" font-weight="600" text-anchor="start">OUT</text><rect class="pf-port-pill" x="199.5" y="79.5" width="19" height="11" rx="0" fill="#7bafd4" data-signal="cv"/><text class="pf-port-pill-text" x="209" y="88" text-anchor="middle" font-family="&#39;SF Mono&#39;, &#39;Fira Code&#39;, Consolas, &#39;Courier New&#39;, monospace" font-size="8" fill="#ffffff" font-weight="600">cv</text><text x="346" y="88" font-family="&#39;SF Mono&#39;, &#39;Fira Code&#39;, Consolas, &#39;Courier New&#39;, monospace" font-size="9" fill="#1a1a1a" font-weight="600" text-anchor="end">In</text><rect class="pf-port-pill" x="308" y="79.5" width="19" height="11" rx="0" fill="#7bafd4" data-signal="cv"/><text class="pf-port-pill-text" x="317.5" y="88" text-anchor="middle" font-family="&#39;SF Mono&#39;, &#39;Fira Code&#39;, Consolas, &#39;Courier New&#39;, monospace" font-size="8" fill="#ffffff" font-weight="600">cv</text><text x="607" y="88" font-family="&#39;SF Mono&#39;, &#39;Fira Code&#39;, Consolas, &#39;Courier New&#39;, monospace" font-size="9" fill="#1a1a1a" font-weight="600" text-anchor="start">Out</text><rect class="pf-port-pill" x="632.5" y="79.5" width="19" height="11" rx="0" fill="#7bafd4" data-signal="cv"/><text class="pf-port-pill-text" x="642" y="88" text-anchor="middle" font-family="&#39;SF Mono&#39;, &#39;Fira Code&#39;, Consolas, &#39;Courier New&#39;, monospace" font-size="8" fill="#ffffff" font-weight="600">cv</text></g><g class="pf-layer-annotations"><circle cx="306.5" cy="170" r="8" fill="#f2efe8" stroke="#7bafd4" stroke-width="0.5" data-annotation-marker="1"/><text x="306.5" y="173" text-anchor="middle" font-family="&#39;SF Mono&#39;, &#39;Fira Code&#39;, Consolas, &#39;Courier New&#39;, monospace" font-size="9" fill="#1a1a1a">1</text><text x="-120" y="20" font-family="&#39;SF Mono&#39;, &#39;Fira Code&#39;, Consolas, &#39;Courier New&#39;, monospace" font-size="10" fill="#888888">1. shortens fall each cycle</text></g><g class="pf-layer-legend"><g transform="translate(20, 216)"><line x1="0" y1="0" x2="20" y2="0" stroke="#7bafd4" stroke-width="3" stroke-linecap="round"/><text x="26" y="3" font-family="&#39;SF Mono&#39;, &#39;Fira Code&#39;, Consolas, &#39;Courier New&#39;, monospace" font-size="9" fill="#888888">cv</text></g></g></svg>