<svg xmlns="http://www.w3.org/2000/svg" viewBox="-130 -40 1220 258" width="100%" data-pf-min-width="1220" role="img" aria-labelledby="pf-1fc028-title pf-1fc028-desc"><title id="pf-1fc028-title">Patch diagram</title><desc id="pf-1fc028-desc">Patch diagram with 4 modules and 3 connections. Modules: HPF, LPF, Oscillator, Output. Signals: 3 audio.</desc><style>@media print { .pf-panel, .pf-jack { filter: none; } }</style><defs><filter id="pf-1fc028-panel-shadow" x="-20%" y="-20%" width="140%" height="140%"><feDropShadow dx="0" dy="2" stdDeviation="3" flood-opacity="0.1"/></filter><filter id="pf-1fc028-jack-shadow" x="-20%" y="-20%" width="140%" height="140%"><feDropShadow dx="0" dy="0.5" stdDeviation="0.8" flood-opacity="0.15"/></filter><pattern id="pf-1fc028-dots" width="12" height="12" patternUnits="userSpaceOnUse"><circle cx="6" cy="6" r="0.5" fill="#aaaaaa" opacity="0.3"/></pattern></defs><g class="pf-layer-bg"><rect width="960" height="178" fill="url(#pf-1fc028-dots)"/></g><g class="pf-layer-cables"><path d="M 160 94 C 208 94, 232 94, 280 94" stroke="#e88ca5" stroke-width="3" fill="none" stroke-linecap="round" stroke-linejoin="round" data-connection="conn-0" data-signal="audio"/><path d="M 420 94 C 468 94, 492 94, 540 94" stroke="#e88ca5" stroke-width="3" fill="none" stroke-linecap="round" stroke-linejoin="round" data-connection="conn-1" data-signal="audio"/><path d="M 680 94 C 728 94, 752 94, 800 94" stroke="#e88ca5" stroke-width="3" fill="none" stroke-linecap="round" stroke-linejoin="round" data-connection="conn-2" data-signal="audio"/><circle cx="160" cy="94" r="3.5" fill="#d47a93"/><circle cx="280" cy="94" r="3.5" fill="#d47a93"/><circle cx="420" cy="94" r="3.5" fill="#d47a93"/><circle cx="540" cy="94" r="3.5" fill="#d47a93"/><circle cx="680" cy="94" r="3.5" fill="#d47a93"/><circle cx="800" cy="94" r="3.5" fill="#d47a93"/></g><g class="pf-layer-panels" ><g data-module="HPF" filter="url(#pf-1fc028-panel-shadow)"><rect x="280" y="20" width="140" height="138" fill="#e8e4dc" stroke="#cec8be" stroke-width="0.75" rx="0"/><line x1="280" y1="20.5" x2="420" y2="20.5" stroke="#f2efe8" stroke-width="1"/><line x1="280" y1="157.5" x2="420" y2="157.5" stroke="#bdb8ae" stroke-width="0.5"/><rect x="292" y="28" width="116" height="28" fill="#f4f1ea" stroke="#c5c0b6" stroke-width="0.5"/><text x="350" y="42" text-anchor="middle" font-family="system-ui, -apple-system, BlinkMacSystemFont, &#39;Segoe UI&#39;, sans-serif" font-size="14" font-weight="700" fill="#1a1a1a" letter-spacing="3">HPF</text><rect class="pf-sublabel-bar" x="292" y="56" width="116" height="16" fill="#bdb8ae"/><text x="350" y="67" text-anchor="middle" font-family="system-ui, -apple-system, BlinkMacSystemFont, &#39;Segoe UI&#39;, sans-serif" font-size="10" fill="#e8e4dc" letter-spacing="1">High Pass</text></g><g data-module="LPF" filter="url(#pf-1fc028-panel-shadow)"><rect x="540" y="20" width="140" height="138" fill="#e8e4dc" stroke="#cec8be" stroke-width="0.75" rx="0"/><line x1="540" y1="20.5" x2="680" y2="20.5" stroke="#f2efe8" stroke-width="1"/><line x1="540" y1="157.5" x2="680" y2="157.5" stroke="#bdb8ae" stroke-width="0.5"/><rect x="552" y="28" width="116" height="28" fill="#f4f1ea" stroke="#c5c0b6" stroke-width="0.5"/><text x="610" y="42" text-anchor="middle" font-family="system-ui, -apple-system, BlinkMacSystemFont, &#39;Segoe UI&#39;, sans-serif" font-size="14" font-weight="700" fill="#1a1a1a" letter-spacing="3">LPF</text><rect class="pf-sublabel-bar" x="552" y="56" width="116" height="16" fill="#bdb8ae"/><text x="610" y="67" text-anchor="middle" font-family="system-ui, -apple-system, BlinkMacSystemFont, &#39;Segoe UI&#39;, sans-serif" font-size="10" fill="#e8e4dc" letter-spacing="1">Low Pass</text></g><g data-module="Oscillator" filter="url(#pf-1fc028-panel-shadow)"><rect x="20" y="39" width="140" height="100" fill="#e8e4dc" stroke="#cec8be" stroke-width="0.75" rx="0"/><line x1="20" y1="39.5" x2="160" y2="39.5" stroke="#f2efe8" stroke-width="1"/><line x1="20" y1="138.5" x2="160" y2="138.5" stroke="#bdb8ae" stroke-width="0.5"/><rect x="32" y="47" width="116" height="28" fill="#f4f1ea" stroke="#c5c0b6" stroke-width="0.5"/><text x="90" y="61" text-anchor="middle" font-family="system-ui, -apple-system, BlinkMacSystemFont, &#39;Segoe UI&#39;, sans-serif" font-size="14" font-weight="700" fill="#1a1a1a" letter-spacing="3">Oscillator</text></g><g data-module="Output" filter="url(#pf-1fc028-panel-shadow)"><rect x="800" y="39" width="140" height="100" fill="#e8e4dc" stroke="#cec8be" stroke-width="0.75" rx="0"/><line x1="800" y1="39.5" x2="940" y2="39.5" stroke="#f2efe8" stroke-width="1"/><line x1="800" y1="138.5" x2="940" y2="138.5" stroke="#bdb8ae" stroke-width="0.5"/><rect x="812" y="47" width="116" height="28" fill="#f4f1ea" stroke="#c5c0b6" stroke-width="0.5"/><text x="870" y="61" text-anchor="middle" font-family="system-ui, -apple-system, BlinkMacSystemFont, &#39;Segoe UI&#39;, sans-serif" font-size="14" font-weight="700" fill="#1a1a1a" letter-spacing="3">Output</text></g></g><g class="pf-layer-params"><rect x="292" y="78" width="116" height="20" fill="#f0ede6" stroke="#d5d0c6" stroke-width="0.5"/><text x="350" y="92" text-anchor="middle" font-family="'SF Mono', 'Fira Code', Consolas, 'Courier New', monospace" font-size="10" fill="#555555">Cutoff: 200 Hz</text><rect x="552" y="78" width="116" height="20" fill="#f0ede6" stroke="#d5d0c6" stroke-width="0.5"/><text x="610" y="92" text-anchor="middle" font-family="'SF Mono', 'Fira Code', Consolas, 'Courier New', monospace" font-size="10" fill="#555555">Cutoff: 2 kHz</text></g><g class="pf-layer-jacks"><g data-port="hpf.in" filter="url(#pf-1fc028-jack-shadow)"><circle cx="280" cy="94" r="8" fill="#c0bbb2" stroke="#a8a39a" stroke-width="0.75"/><circle cx="280" cy="94" r="5" fill="#8a8580"/><circle cx="280" cy="94" r="3" fill="#555555"/><circle cx="280" cy="94" r="1" fill="#333333"/></g><g data-port="hpf.out" filter="url(#pf-1fc028-jack-shadow)"><circle cx="420" cy="94" r="8" fill="#c0bbb2" stroke="#a8a39a" stroke-width="0.75"/><circle cx="420" cy="94" r="5" fill="#8a8580"/><circle cx="420" cy="94" r="3" fill="#555555"/><circle cx="420" cy="94" r="1" fill="#333333"/></g><g data-port="lpf.in" filter="url(#pf-1fc028-jack-shadow)"><circle cx="540" cy="94" r="8" fill="#c0bbb2" stroke="#a8a39a" stroke-width="0.75"/><circle cx="540" cy="94" r="5" fill="#8a8580"/><circle cx="540" cy="94" r="3" fill="#555555"/><circle cx="540" cy="94" r="1" fill="#333333"/></g><g data-port="lpf.out" filter="url(#pf-1fc028-jack-shadow)"><circle cx="680" cy="94" r="8" fill="#c0bbb2" stroke="#a8a39a" stroke-width="0.75"/><circle cx="680" cy="94" r="5" fill="#8a8580"/><circle cx="680" cy="94" r="3" fill="#555555"/><circle cx="680" cy="94" r="1" fill="#333333"/></g><g data-port="oscillator.out" filter="url(#pf-1fc028-jack-shadow)"><circle cx="160" cy="94" r="8" fill="#c0bbb2" stroke="#a8a39a" stroke-width="0.75"/><circle cx="160" cy="94" r="5" fill="#8a8580"/><circle cx="160" cy="94" r="3" fill="#555555"/><circle cx="160" cy="94" r="1" fill="#333333"/></g><g data-port="output.in" filter="url(#pf-1fc028-jack-shadow)"><circle cx="800" cy="94" r="8" fill="#c0bbb2" stroke="#a8a39a" stroke-width="0.75"/><circle cx="800" cy="94" r="5" fill="#8a8580"/><circle cx="800" cy="94" r="3" fill="#555555"/><circle cx="800" cy="94" r="1" fill="#333333"/></g></g><g class="pf-layer-labels"><text x="280" y="62" font-family="&#39;SF Mono&#39;, &#39;Fira Code&#39;, Consolas, &#39;Courier New&#39;, monospace" font-size="9" fill="#1a1a1a" font-weight="600" text-anchor="middle">In</text><rect class="pf-port-pill" x="260.75" y="68.5" width="38.5" height="11" rx="0" fill="#e88ca5" data-signal="audio"/><text class="pf-port-pill-text" x="280" y="77" text-anchor="middle" font-family="&#39;SF Mono&#39;, &#39;Fira Code&#39;, Consolas, &#39;Courier New&#39;, monospace" font-size="8" fill="#ffffff" font-weight="600">audio</text><text x="420" y="62" font-family="&#39;SF Mono&#39;, &#39;Fira Code&#39;, Consolas, &#39;Courier New&#39;, monospace" font-size="9" fill="#1a1a1a" font-weight="600" text-anchor="middle">Out</text><rect class="pf-port-pill" x="400.75" y="68.5" width="38.5" height="11" rx="0" fill="#e88ca5" data-signal="audio"/><text class="pf-port-pill-text" x="420" y="77" text-anchor="middle" font-family="&#39;SF Mono&#39;, &#39;Fira Code&#39;, Consolas, &#39;Courier New&#39;, monospace" font-size="8" fill="#ffffff" font-weight="600">audio</text><text x="540" y="62" font-family="&#39;SF Mono&#39;, &#39;Fira Code&#39;, Consolas, &#39;Courier New&#39;, monospace" font-size="9" fill="#1a1a1a" font-weight="600" text-anchor="middle">In</text><rect class="pf-port-pill" x="520.75" y="68.5" width="38.5" height="11" rx="0" fill="#e88ca5" data-signal="audio"/><text class="pf-port-pill-text" x="540" y="77" text-anchor="middle" font-family="&#39;SF Mono&#39;, &#39;Fira Code&#39;, Consolas, &#39;Courier New&#39;, monospace" font-size="8" fill="#ffffff" font-weight="600">audio</text><text x="680" y="62" font-family="&#39;SF Mono&#39;, &#39;Fira Code&#39;, Consolas, &#39;Courier New&#39;, monospace" font-size="9" fill="#1a1a1a" font-weight="600" text-anchor="middle">Out</text><rect class="pf-port-pill" x="660.75" y="68.5" width="38.5" height="11" rx="0" fill="#e88ca5" data-signal="audio"/><text class="pf-port-pill-text" x="680" y="77" text-anchor="middle" font-family="&#39;SF Mono&#39;, &#39;Fira Code&#39;, Consolas, &#39;Courier New&#39;, monospace" font-size="8" fill="#ffffff" font-weight="600">audio</text><text x="160" y="62" font-family="&#39;SF Mono&#39;, &#39;Fira Code&#39;, Consolas, &#39;Courier New&#39;, monospace" font-size="9" fill="#1a1a1a" font-weight="600" text-anchor="middle">Out</text><rect class="pf-port-pill" x="140.75" y="68.5" width="38.5" height="11" rx="0" fill="#e88ca5" data-signal="audio"/><text class="pf-port-pill-text" x="160" y="77" text-anchor="middle" font-family="&#39;SF Mono&#39;, &#39;Fira Code&#39;, Consolas, &#39;Courier New&#39;, monospace" font-size="8" fill="#ffffff" font-weight="600">audio</text><text x="800" y="62" font-family="&#39;SF Mono&#39;, &#39;Fira Code&#39;, Consolas, &#39;Courier New&#39;, monospace" font-size="9" fill="#1a1a1a" font-weight="600" text-anchor="middle">In</text><rect class="pf-port-pill" x="780.75" y="68.5" width="38.5" height="11" rx="0" fill="#e88ca5" data-signal="audio"/><text class="pf-port-pill-text" x="800" y="77" text-anchor="middle" font-family="&#39;SF Mono&#39;, &#39;Fira Code&#39;, Consolas, &#39;Courier New&#39;, monospace" font-size="8" fill="#ffffff" font-weight="600">audio</text></g><g class="pf-layer-annotations"></g><g class="pf-layer-legend"><g transform="translate(890, 158)"><line x1="0" y1="0" x2="20" y2="0" stroke="#e88ca5" stroke-width="3" stroke-linecap="round"/><text x="26" y="3" font-family="&#39;SF Mono&#39;, &#39;Fira Code&#39;, Consolas, &#39;Courier New&#39;, monospace" font-size="9" fill="#888888">audio</text></g></g></svg>