<svg xmlns="http://www.w3.org/2000/svg" viewBox="-130 0 1460 208" width="100%" data-pf-min-width="1460" role="img" aria-labelledby="pf-76dde5-title pf-76dde5-desc"><title id="pf-76dde5-title">Patch diagram</title><desc id="pf-76dde5-desc">Patch diagram with 4 modules and 3 connections. Modules: HPF, LPF, Oscillator, Output. Signals: 3 audio.</desc><style>@media print { .pf-panel, .pf-jack { filter: none; } }</style><defs><filter id="pf-76dde5-panel-shadow" x="-20%" y="-20%" width="140%" height="140%"><feDropShadow dx="0" dy="2" stdDeviation="3" flood-opacity="0.1"/></filter><filter id="pf-76dde5-jack-shadow" x="-20%" y="-20%" width="140%" height="140%"><feDropShadow dx="0" dy="0.5" stdDeviation="0.8" flood-opacity="0.15"/></filter><pattern id="pf-76dde5-dots" width="12" height="12" patternUnits="userSpaceOnUse"><circle cx="6" cy="6" r="0.5" fill="#555555" opacity="0.5"/></pattern></defs><g class="pf-layer-bg"><rect width="1200" height="178" fill="url(#pf-76dde5-dots)"/></g><g class="pf-layer-cables"><path d="M 160 94 C 240 94, 280 94, 360 94" stroke="#e88ca5" stroke-width="3" fill="none" stroke-linecap="round" stroke-linejoin="round" data-connection="conn-0" data-signal="audio"/><path d="M 500 94 C 580 94, 620 94, 700 94" stroke="#e88ca5" stroke-width="3" fill="none" stroke-linecap="round" stroke-linejoin="round" data-connection="conn-1" data-signal="audio"/><path d="M 840 94 C 920 94, 960 94, 1040 94" stroke="#e88ca5" stroke-width="3" fill="none" stroke-linecap="round" stroke-linejoin="round" data-connection="conn-2" data-signal="audio"/><circle cx="160" cy="94" r="3.5" fill="#d47a93"/><circle cx="360" cy="94" r="3.5" fill="#d47a93"/><circle cx="500" cy="94" r="3.5" fill="#d47a93"/><circle cx="700" cy="94" r="3.5" fill="#d47a93"/><circle cx="840" cy="94" r="3.5" fill="#d47a93"/><circle cx="1040" cy="94" r="3.5" fill="#d47a93"/></g><g class="pf-layer-panels" ><g data-module="HPF" filter="url(#pf-76dde5-panel-shadow)"><rect x="360" y="20" width="140" height="138" fill="#e8e4dc" stroke="#cec8be" stroke-width="0.75" rx="0"/><line x1="360" y1="20.5" x2="500" y2="20.5" stroke="#f2efe8" stroke-width="1"/><line x1="360" y1="157.5" x2="500" y2="157.5" stroke="#bdb8ae" stroke-width="0.5"/><rect x="372" y="28" width="116" height="28" fill="#f4f1ea" stroke="#c5c0b6" stroke-width="0.5"/><text x="430" y="42" text-anchor="middle" font-family="system-ui, -apple-system, BlinkMacSystemFont, &#39;Segoe UI&#39;, sans-serif" font-size="14" font-weight="700" fill="#1a1a1a" letter-spacing="3">HPF</text><rect class="pf-sublabel-bar" x="372" y="56" width="116" height="16" fill="#bdb8ae"/><text x="430" y="67" text-anchor="middle" font-family="system-ui, -apple-system, BlinkMacSystemFont, &#39;Segoe UI&#39;, sans-serif" font-size="10" fill="#e8e4dc" letter-spacing="1">High Pass</text></g><g data-module="LPF" filter="url(#pf-76dde5-panel-shadow)"><rect x="700" y="20" width="140" height="138" fill="#e8e4dc" stroke="#cec8be" stroke-width="0.75" rx="0"/><line x1="700" y1="20.5" x2="840" y2="20.5" stroke="#f2efe8" stroke-width="1"/><line x1="700" y1="157.5" x2="840" y2="157.5" stroke="#bdb8ae" stroke-width="0.5"/><rect x="712" y="28" width="116" height="28" fill="#f4f1ea" stroke="#c5c0b6" stroke-width="0.5"/><text x="770" y="42" text-anchor="middle" font-family="system-ui, -apple-system, BlinkMacSystemFont, &#39;Segoe UI&#39;, sans-serif" font-size="14" font-weight="700" fill="#1a1a1a" letter-spacing="3">LPF</text><rect class="pf-sublabel-bar" x="712" y="56" width="116" height="16" fill="#bdb8ae"/><text x="770" y="67" text-anchor="middle" font-family="system-ui, -apple-system, BlinkMacSystemFont, &#39;Segoe UI&#39;, sans-serif" font-size="10" fill="#e8e4dc" letter-spacing="1">Low Pass</text></g><g data-module="Oscillator" filter="url(#pf-76dde5-panel-shadow)"><rect x="20" y="39" width="140" height="100" fill="#e8e4dc" stroke="#cec8be" stroke-width="0.75" rx="0"/><line x1="20" y1="39.5" x2="160" y2="39.5" stroke="#f2efe8" stroke-width="1"/><line x1="20" y1="138.5" x2="160" y2="138.5" stroke="#bdb8ae" stroke-width="0.5"/><rect x="32" y="47" width="116" height="28" fill="#f4f1ea" stroke="#c5c0b6" stroke-width="0.5"/><text x="90" y="61" text-anchor="middle" font-family="system-ui, -apple-system, BlinkMacSystemFont, &#39;Segoe UI&#39;, sans-serif" font-size="14" font-weight="700" fill="#1a1a1a" letter-spacing="3">Oscillator</text></g><g data-module="Output" filter="url(#pf-76dde5-panel-shadow)"><rect x="1040" y="39" width="140" height="100" fill="#e8e4dc" stroke="#cec8be" stroke-width="0.75" rx="0"/><line x1="1040" y1="39.5" x2="1180" y2="39.5" stroke="#f2efe8" stroke-width="1"/><line x1="1040" y1="138.5" x2="1180" y2="138.5" stroke="#bdb8ae" stroke-width="0.5"/><rect x="1052" y="47" width="116" height="28" fill="#f4f1ea" stroke="#c5c0b6" stroke-width="0.5"/><text x="1110" y="61" text-anchor="middle" font-family="system-ui, -apple-system, BlinkMacSystemFont, &#39;Segoe UI&#39;, sans-serif" font-size="14" font-weight="700" fill="#1a1a1a" letter-spacing="3">Output</text></g></g><g class="pf-layer-params"><rect x="372" y="78" width="116" height="20" fill="#f0ede6" stroke="#d5d0c6" stroke-width="0.5"/><text x="430" y="92" text-anchor="middle" font-family="'SF Mono', 'Fira Code', Consolas, 'Courier New', monospace" font-size="10" fill="#555555">Cutoff: 200 Hz</text><rect x="712" y="78" width="116" height="20" fill="#f0ede6" stroke="#d5d0c6" stroke-width="0.5"/><text x="770" y="92" text-anchor="middle" font-family="'SF Mono', 'Fira Code', Consolas, 'Courier New', monospace" font-size="10" fill="#555555">Cutoff: 2 kHz</text></g><g class="pf-layer-jacks"><g data-port="hpf.in" filter="url(#pf-76dde5-jack-shadow)"><circle cx="360" cy="94" r="8" fill="#c0bbb2" stroke="#a8a39a" stroke-width="0.75"/><circle cx="360" cy="94" r="5" fill="#8a8580"/><circle cx="360" cy="94" r="3" fill="#555555"/><circle cx="360" cy="94" r="1" fill="#333333"/></g><g data-port="hpf.out" filter="url(#pf-76dde5-jack-shadow)"><circle cx="500" cy="94" r="8" fill="#c0bbb2" stroke="#a8a39a" stroke-width="0.75"/><circle cx="500" cy="94" r="5" fill="#8a8580"/><circle cx="500" cy="94" r="3" fill="#555555"/><circle cx="500" cy="94" r="1" fill="#333333"/></g><g data-port="lpf.in" filter="url(#pf-76dde5-jack-shadow)"><circle cx="700" cy="94" r="8" fill="#c0bbb2" stroke="#a8a39a" stroke-width="0.75"/><circle cx="700" cy="94" r="5" fill="#8a8580"/><circle cx="700" cy="94" r="3" fill="#555555"/><circle cx="700" cy="94" r="1" fill="#333333"/></g><g data-port="lpf.out" filter="url(#pf-76dde5-jack-shadow)"><circle cx="840" cy="94" r="8" fill="#c0bbb2" stroke="#a8a39a" stroke-width="0.75"/><circle cx="840" cy="94" r="5" fill="#8a8580"/><circle cx="840" cy="94" r="3" fill="#555555"/><circle cx="840" cy="94" r="1" fill="#333333"/></g><g data-port="oscillator.out" filter="url(#pf-76dde5-jack-shadow)"><circle cx="160" cy="94" r="8" fill="#c0bbb2" stroke="#a8a39a" stroke-width="0.75"/><circle cx="160" cy="94" r="5" fill="#8a8580"/><circle cx="160" cy="94" r="3" fill="#555555"/><circle cx="160" cy="94" r="1" fill="#333333"/></g><g data-port="output.in" filter="url(#pf-76dde5-jack-shadow)"><circle cx="1040" cy="94" r="8" fill="#c0bbb2" stroke="#a8a39a" stroke-width="0.75"/><circle cx="1040" cy="94" r="5" fill="#8a8580"/><circle cx="1040" cy="94" r="3" fill="#555555"/><circle cx="1040" cy="94" r="1" fill="#333333"/></g></g><g class="pf-layer-labels"><text x="346" y="97" font-family="&#39;SF Mono&#39;, &#39;Fira Code&#39;, Consolas, &#39;Courier New&#39;, monospace" font-size="9" fill="#e8e4dc" font-weight="600" text-anchor="end">In</text><rect class="pf-port-pill" x="288.5" y="88.5" width="38.5" height="11" rx="0" fill="#e88ca5" data-signal="audio"/><text class="pf-port-pill-text" x="307.75" y="97" text-anchor="middle" font-family="&#39;SF Mono&#39;, &#39;Fira Code&#39;, Consolas, &#39;Courier New&#39;, monospace" font-size="8" fill="#ffffff" font-weight="600">audio</text><text x="514" y="97" font-family="&#39;SF Mono&#39;, &#39;Fira Code&#39;, Consolas, &#39;Courier New&#39;, monospace" font-size="9" fill="#e8e4dc" font-weight="600" text-anchor="start">Out</text><rect class="pf-port-pill" x="539.5" y="88.5" width="38.5" height="11" rx="0" fill="#e88ca5" data-signal="audio"/><text class="pf-port-pill-text" x="558.75" y="97" text-anchor="middle" font-family="&#39;SF Mono&#39;, &#39;Fira Code&#39;, Consolas, &#39;Courier New&#39;, monospace" font-size="8" fill="#ffffff" font-weight="600">audio</text><text x="686" y="97" font-family="&#39;SF Mono&#39;, &#39;Fira Code&#39;, Consolas, &#39;Courier New&#39;, monospace" font-size="9" fill="#e8e4dc" font-weight="600" text-anchor="end">In</text><rect class="pf-port-pill" x="628.5" y="88.5" width="38.5" height="11" rx="0" fill="#e88ca5" data-signal="audio"/><text class="pf-port-pill-text" x="647.75" y="97" text-anchor="middle" font-family="&#39;SF Mono&#39;, &#39;Fira Code&#39;, Consolas, &#39;Courier New&#39;, monospace" font-size="8" fill="#ffffff" font-weight="600">audio</text><text x="854" y="97" font-family="&#39;SF Mono&#39;, &#39;Fira Code&#39;, Consolas, &#39;Courier New&#39;, monospace" font-size="9" fill="#e8e4dc" font-weight="600" text-anchor="start">Out</text><rect class="pf-port-pill" x="879.5" y="88.5" width="38.5" height="11" rx="0" fill="#e88ca5" data-signal="audio"/><text class="pf-port-pill-text" x="898.75" y="97" text-anchor="middle" font-family="&#39;SF Mono&#39;, &#39;Fira Code&#39;, Consolas, &#39;Courier New&#39;, monospace" font-size="8" fill="#ffffff" font-weight="600">audio</text><text x="174" y="97" font-family="&#39;SF Mono&#39;, &#39;Fira Code&#39;, Consolas, &#39;Courier New&#39;, monospace" font-size="9" fill="#e8e4dc" font-weight="600" text-anchor="start">Out</text><rect class="pf-port-pill" x="199.5" y="88.5" width="38.5" height="11" rx="0" fill="#e88ca5" data-signal="audio"/><text class="pf-port-pill-text" x="218.75" y="97" text-anchor="middle" font-family="&#39;SF Mono&#39;, &#39;Fira Code&#39;, Consolas, &#39;Courier New&#39;, monospace" font-size="8" fill="#ffffff" font-weight="600">audio</text><text x="1026" y="97" font-family="&#39;SF Mono&#39;, &#39;Fira Code&#39;, Consolas, &#39;Courier New&#39;, monospace" font-size="9" fill="#e8e4dc" font-weight="600" text-anchor="end">In</text><rect class="pf-port-pill" x="968.5" y="88.5" width="38.5" height="11" rx="0" fill="#e88ca5" data-signal="audio"/><text class="pf-port-pill-text" x="987.75" y="97" text-anchor="middle" font-family="&#39;SF Mono&#39;, &#39;Fira Code&#39;, Consolas, &#39;Courier New&#39;, monospace" font-size="8" fill="#ffffff" font-weight="600">audio</text></g><g class="pf-layer-annotations"></g><g class="pf-layer-legend"><g transform="translate(1130, 158)"><line x1="0" y1="0" x2="20" y2="0" stroke="#e88ca5" stroke-width="3" stroke-linecap="round"/><text x="26" y="3" font-family="&#39;SF Mono&#39;, &#39;Fira Code&#39;, Consolas, &#39;Courier New&#39;, monospace" font-size="9" fill="#d0d0d0">audio</text></g></g></svg>