<svg xmlns="http://www.w3.org/2000/svg" viewBox="-130 -40 1230 258" width="100%" data-pf-min-width="1230" role="img" aria-labelledby="pf-f65da9-title pf-f65da9-desc"><title id="pf-f65da9-title">Patch diagram</title><desc id="pf-f65da9-desc">Patch diagram with 4 modules and 3 connections. Modules: HPF, LPF, Oscillator, Output. Signals: 3 audio.</desc><style>@media print { .pf-panel, .pf-jack { filter: none; } }</style><defs><filter id="pf-f65da9-panel-shadow" x="-20%" y="-20%" width="140%" height="140%"><feDropShadow dx="0" dy="2" stdDeviation="3" flood-opacity="0.1"/></filter><filter id="pf-f65da9-jack-shadow" x="-20%" y="-20%" width="140%" height="140%"><feDropShadow dx="0" dy="0.5" stdDeviation="0.8" flood-opacity="0.15"/></filter><pattern id="pf-f65da9-dots" width="12" height="12" patternUnits="userSpaceOnUse"><circle cx="6" cy="6" r="0.5" fill="#555555" opacity="0.5"/></pattern></defs><g class="pf-layer-bg"><rect width="970" height="178" fill="url(#pf-f65da9-dots)"/></g><g class="pf-layer-cables"><path d="M 170 94 C 218 94, 242 94, 290 94" stroke="#e88ca5" stroke-width="3" fill="none" stroke-linecap="round" stroke-linejoin="round" data-connection="conn-0" data-signal="audio"/><path d="M 430 94 C 478 94, 502 94, 550 94" stroke="#e88ca5" stroke-width="3" fill="none" stroke-linecap="round" stroke-linejoin="round" data-connection="conn-1" data-signal="audio"/><path d="M 690 94 C 738 94, 762 94, 810 94" stroke="#e88ca5" stroke-width="3" fill="none" stroke-linecap="round" stroke-linejoin="round" data-connection="conn-2" data-signal="audio"/><circle cx="170" cy="94" r="3.5" fill="#d47a93"/><circle cx="290" cy="94" r="3.5" fill="#d47a93"/><circle cx="430" cy="94" r="3.5" fill="#d47a93"/><circle cx="550" cy="94" r="3.5" fill="#d47a93"/><circle cx="690" cy="94" r="3.5" fill="#d47a93"/><circle cx="810" cy="94" r="3.5" fill="#d47a93"/></g><g class="pf-layer-panels" ><g data-module="HPF" filter="url(#pf-f65da9-panel-shadow)"><rect x="290" y="20" width="140" height="138" fill="#e8e4dc" stroke="#cec8be" stroke-width="0.75" rx="0"/><line x1="290" y1="20.5" x2="430" y2="20.5" stroke="#f2efe8" stroke-width="1"/><line x1="290" y1="157.5" x2="430" y2="157.5" stroke="#bdb8ae" stroke-width="0.5"/><rect x="302" y="28" width="116" height="28" fill="#f4f1ea" stroke="#c5c0b6" stroke-width="0.5"/><text x="360" y="42" text-anchor="middle" font-family="system-ui, -apple-system, BlinkMacSystemFont, &#39;Segoe UI&#39;, sans-serif" font-size="14" font-weight="700" fill="#1a1a1a" letter-spacing="3">HPF</text><rect class="pf-sublabel-bar" x="302" y="56" width="116" height="16" fill="#bdb8ae"/><text x="360" y="67" text-anchor="middle" font-family="system-ui, -apple-system, BlinkMacSystemFont, &#39;Segoe UI&#39;, sans-serif" font-size="10" fill="#e8e4dc" letter-spacing="1">High Pass</text></g><g data-module="LPF" filter="url(#pf-f65da9-panel-shadow)"><rect x="550" y="20" width="140" height="138" fill="#e8e4dc" stroke="#cec8be" stroke-width="0.75" rx="0"/><line x1="550" y1="20.5" x2="690" y2="20.5" stroke="#f2efe8" stroke-width="1"/><line x1="550" y1="157.5" x2="690" y2="157.5" stroke="#bdb8ae" stroke-width="0.5"/><rect x="562" y="28" width="116" height="28" fill="#f4f1ea" stroke="#c5c0b6" stroke-width="0.5"/><text x="620" y="42" text-anchor="middle" font-family="system-ui, -apple-system, BlinkMacSystemFont, &#39;Segoe UI&#39;, sans-serif" font-size="14" font-weight="700" fill="#1a1a1a" letter-spacing="3">LPF</text><rect class="pf-sublabel-bar" x="562" y="56" width="116" height="16" fill="#bdb8ae"/><text x="620" y="67" text-anchor="middle" font-family="system-ui, -apple-system, BlinkMacSystemFont, &#39;Segoe UI&#39;, sans-serif" font-size="10" fill="#e8e4dc" letter-spacing="1">Low Pass</text></g><g data-module="Oscillator" filter="url(#pf-f65da9-panel-shadow)"><rect x="20" y="39" width="150" height="100" fill="#e8e4dc" stroke="#cec8be" stroke-width="0.75" rx="0"/><line x1="20" y1="39.5" x2="170" y2="39.5" stroke="#f2efe8" stroke-width="1"/><line x1="20" y1="138.5" x2="170" y2="138.5" stroke="#bdb8ae" stroke-width="0.5"/><rect x="32" y="47" width="126" height="28" fill="#f4f1ea" stroke="#c5c0b6" stroke-width="0.5"/><text x="95" y="61" text-anchor="middle" font-family="system-ui, -apple-system, BlinkMacSystemFont, &#39;Segoe UI&#39;, sans-serif" font-size="14" font-weight="700" fill="#1a1a1a" letter-spacing="3">Oscillator</text></g><g data-module="Output" filter="url(#pf-f65da9-panel-shadow)"><rect x="810" y="39" width="140" height="100" fill="#e8e4dc" stroke="#cec8be" stroke-width="0.75" rx="0"/><line x1="810" y1="39.5" x2="950" y2="39.5" stroke="#f2efe8" stroke-width="1"/><line x1="810" y1="138.5" x2="950" y2="138.5" stroke="#bdb8ae" stroke-width="0.5"/><rect x="822" y="47" width="116" height="28" fill="#f4f1ea" stroke="#c5c0b6" stroke-width="0.5"/><text x="880" y="61" text-anchor="middle" font-family="system-ui, -apple-system, BlinkMacSystemFont, &#39;Segoe UI&#39;, sans-serif" font-size="14" font-weight="700" fill="#1a1a1a" letter-spacing="3">Output</text></g></g><g class="pf-layer-params"><rect x="302" y="78" width="116" height="20" fill="#f0ede6" stroke="#d5d0c6" stroke-width="0.5"/><text x="360" y="92" text-anchor="middle" font-family="'SF Mono', 'Fira Code', Consolas, 'Courier New', monospace" font-size="10" fill="#555555">Cutoff: 200 Hz</text><rect x="562" y="78" width="116" height="20" fill="#f0ede6" stroke="#d5d0c6" stroke-width="0.5"/><text x="620" y="92" text-anchor="middle" font-family="'SF Mono', 'Fira Code', Consolas, 'Courier New', monospace" font-size="10" fill="#555555">Cutoff: 2 kHz</text></g><g class="pf-layer-jacks"><g data-port="hpf.in" filter="url(#pf-f65da9-jack-shadow)"><circle cx="290" cy="94" r="8" fill="#c0bbb2" stroke="#a8a39a" stroke-width="0.75"/><circle cx="290" cy="94" r="5" fill="#8a8580"/><circle cx="290" cy="94" r="3" fill="#555555"/><circle cx="290" cy="94" r="1" fill="#333333"/></g><g data-port="hpf.out" filter="url(#pf-f65da9-jack-shadow)"><circle cx="430" cy="94" r="8" fill="#c0bbb2" stroke="#a8a39a" stroke-width="0.75"/><circle cx="430" cy="94" r="5" fill="#8a8580"/><circle cx="430" cy="94" r="3" fill="#555555"/><circle cx="430" cy="94" r="1" fill="#333333"/></g><g data-port="lpf.in" filter="url(#pf-f65da9-jack-shadow)"><circle cx="550" cy="94" r="8" fill="#c0bbb2" stroke="#a8a39a" stroke-width="0.75"/><circle cx="550" cy="94" r="5" fill="#8a8580"/><circle cx="550" cy="94" r="3" fill="#555555"/><circle cx="550" cy="94" r="1" fill="#333333"/></g><g data-port="lpf.out" filter="url(#pf-f65da9-jack-shadow)"><circle cx="690" cy="94" r="8" fill="#c0bbb2" stroke="#a8a39a" stroke-width="0.75"/><circle cx="690" cy="94" r="5" fill="#8a8580"/><circle cx="690" cy="94" r="3" fill="#555555"/><circle cx="690" cy="94" r="1" fill="#333333"/></g><g data-port="oscillator.out" filter="url(#pf-f65da9-jack-shadow)"><circle cx="170" cy="94" r="8" fill="#c0bbb2" stroke="#a8a39a" stroke-width="0.75"/><circle cx="170" cy="94" r="5" fill="#8a8580"/><circle cx="170" cy="94" r="3" fill="#555555"/><circle cx="170" cy="94" r="1" fill="#333333"/></g><g data-port="output.in" filter="url(#pf-f65da9-jack-shadow)"><circle cx="810" cy="94" r="8" fill="#c0bbb2" stroke="#a8a39a" stroke-width="0.75"/><circle cx="810" cy="94" r="5" fill="#8a8580"/><circle cx="810" cy="94" r="3" fill="#555555"/><circle cx="810" cy="94" r="1" fill="#333333"/></g></g><g class="pf-layer-labels"><text x="284" y="62" font-family="&#39;SF Mono&#39;, &#39;Fira Code&#39;, Consolas, &#39;Courier New&#39;, monospace" font-size="9" fill="#e8e4dc" font-weight="600" text-anchor="end" dominant-baseline="central">In</text><rect class="pf-port-pill" x="245.5" y="68.5" width="38.5" height="11" rx="0" fill="#e88ca5" data-signal="audio"/><text class="pf-port-pill-text" x="264.75" y="74" text-anchor="middle" dominant-baseline="central" font-family="&#39;SF Mono&#39;, &#39;Fira Code&#39;, Consolas, &#39;Courier New&#39;, monospace" font-size="8" fill="#ffffff" font-weight="600">audio</text><text x="436" y="62" font-family="&#39;SF Mono&#39;, &#39;Fira Code&#39;, Consolas, &#39;Courier New&#39;, monospace" font-size="9" fill="#e8e4dc" font-weight="600" text-anchor="start" dominant-baseline="central">Out</text><rect class="pf-port-pill" x="436" y="68.5" width="38.5" height="11" rx="0" fill="#e88ca5" data-signal="audio"/><text class="pf-port-pill-text" x="455.25" y="74" text-anchor="middle" dominant-baseline="central" font-family="&#39;SF Mono&#39;, &#39;Fira Code&#39;, Consolas, &#39;Courier New&#39;, monospace" font-size="8" fill="#ffffff" font-weight="600">audio</text><text x="544" y="62" font-family="&#39;SF Mono&#39;, &#39;Fira Code&#39;, Consolas, &#39;Courier New&#39;, monospace" font-size="9" fill="#e8e4dc" font-weight="600" text-anchor="end" dominant-baseline="central">In</text><rect class="pf-port-pill" x="505.5" y="68.5" width="38.5" height="11" rx="0" fill="#e88ca5" data-signal="audio"/><text class="pf-port-pill-text" x="524.75" y="74" text-anchor="middle" dominant-baseline="central" font-family="&#39;SF Mono&#39;, &#39;Fira Code&#39;, Consolas, &#39;Courier New&#39;, monospace" font-size="8" fill="#ffffff" font-weight="600">audio</text><text x="696" y="62" font-family="&#39;SF Mono&#39;, &#39;Fira Code&#39;, Consolas, &#39;Courier New&#39;, monospace" font-size="9" fill="#e8e4dc" font-weight="600" text-anchor="start" dominant-baseline="central">Out</text><rect class="pf-port-pill" x="696" y="68.5" width="38.5" height="11" rx="0" fill="#e88ca5" data-signal="audio"/><text class="pf-port-pill-text" x="715.25" y="74" text-anchor="middle" dominant-baseline="central" font-family="&#39;SF Mono&#39;, &#39;Fira Code&#39;, Consolas, &#39;Courier New&#39;, monospace" font-size="8" fill="#ffffff" font-weight="600">audio</text><text x="176" y="62" font-family="&#39;SF Mono&#39;, &#39;Fira Code&#39;, Consolas, &#39;Courier New&#39;, monospace" font-size="9" fill="#e8e4dc" font-weight="600" text-anchor="start" dominant-baseline="central">Out</text><rect class="pf-port-pill" x="176" y="68.5" width="38.5" height="11" rx="0" fill="#e88ca5" data-signal="audio"/><text class="pf-port-pill-text" x="195.25" y="74" text-anchor="middle" dominant-baseline="central" font-family="&#39;SF Mono&#39;, &#39;Fira Code&#39;, Consolas, &#39;Courier New&#39;, monospace" font-size="8" fill="#ffffff" font-weight="600">audio</text><text x="804" y="62" font-family="&#39;SF Mono&#39;, &#39;Fira Code&#39;, Consolas, &#39;Courier New&#39;, monospace" font-size="9" fill="#e8e4dc" font-weight="600" text-anchor="end" dominant-baseline="central">In</text><rect class="pf-port-pill" x="765.5" y="68.5" width="38.5" height="11" rx="0" fill="#e88ca5" data-signal="audio"/><text class="pf-port-pill-text" x="784.75" y="74" text-anchor="middle" dominant-baseline="central" font-family="&#39;SF Mono&#39;, &#39;Fira Code&#39;, Consolas, &#39;Courier New&#39;, monospace" font-size="8" fill="#ffffff" font-weight="600">audio</text></g><g class="pf-layer-annotations"></g><g class="pf-layer-legend"><g transform="translate(900, 198)"><line x1="0" y1="0" x2="20" y2="0" stroke="#e88ca5" stroke-width="3" stroke-linecap="round"/><text x="26" y="3" font-family="&#39;SF Mono&#39;, &#39;Fira Code&#39;, Consolas, &#39;Courier New&#39;, monospace" font-size="9" fill="#d0d0d0">audio</text></g></g></svg>