<svg xmlns="http://www.w3.org/2000/svg" viewBox="0 0 840 841.5" width="100%" data-pf-min-width="840" role="img" aria-labelledby="pf-bd61c0-title pf-bd61c0-desc"><title id="pf-bd61c0-title">Patch diagram</title><desc id="pf-bd61c0-desc">Patch diagram with 11 modules and 6 connections. Signals: 4 audio, 2 cv.</desc><style>@media print { .pf-panel, .pf-jack { filter: none; } }</style><defs><filter id="pf-bd61c0-panel-shadow" x="-20%" y="-20%" width="140%" height="140%"><feDropShadow dx="0" dy="2" stdDeviation="3" flood-opacity="0.1"/></filter><filter id="pf-bd61c0-jack-shadow" x="-20%" y="-20%" width="140%" height="140%"><feDropShadow dx="0" dy="0.5" stdDeviation="0.8" flood-opacity="0.15"/></filter><pattern id="pf-bd61c0-dots" width="12" height="12" patternUnits="userSpaceOnUse"><circle cx="6" cy="6" r="0.5" fill="#aaaaaa" opacity="0.3"/></pattern></defs><g class="pf-layer-bg"><rect width="840" height="841.5" fill="url(#pf-bd61c0-dots)"/></g><g class="pf-layer-cables"><path d="M 160 340 C 192 340, 208 407, 240 407" stroke="#e88ca5" stroke-width="3" fill="none" stroke-linecap="round" stroke-linejoin="round" data-connection="conn-0" data-signal="audio"/><path d="M 160 621.5 C 192 621.5, 208 621.5, 240 621.5" stroke="#7bafd4" stroke-width="3" fill="none" stroke-linecap="round" stroke-linejoin="round" data-connection="conn-1" data-signal="cv"/><path d="M 160 480 C 192 480, 208 431, 240 431" stroke="#e88ca5" stroke-width="3" fill="none" stroke-linecap="round" stroke-linejoin="round" data-connection="conn-2" data-signal="audio"/><path d="M 160 761.5 C 192 761.5, 208 761.5, 240 761.5" stroke="#7bafd4" stroke-width="3" fill="none" stroke-linecap="round" stroke-linejoin="round" data-connection="conn-3" data-signal="cv"/><path d="M 380 407 C 412 407, 428 410, 460 410" stroke="#e88ca5" stroke-width="3" fill="none" stroke-linecap="round" stroke-linejoin="round" data-connection="conn-4" data-signal="audio"/><path d="M 600 410 C 632 410, 648 410, 680 410" stroke="#e88ca5" stroke-width="3" fill="none" stroke-linecap="round" stroke-linejoin="round" data-connection="conn-5" data-signal="audio"/><circle cx="160" cy="340" r="3.5" fill="#d47a93"/><circle cx="240" cy="407" r="3.5" fill="#d47a93"/><circle cx="160" cy="621.5" r="3.5" fill="#6a9ec3"/><circle cx="240" cy="621.5" r="3.5" fill="#6a9ec3"/><circle cx="160" cy="480" r="3.5" fill="#d47a93"/><circle cx="240" cy="431" r="3.5" fill="#d47a93"/><circle cx="160" cy="761.5" r="3.5" fill="#6a9ec3"/><circle cx="240" cy="761.5" r="3.5" fill="#6a9ec3"/><circle cx="380" cy="407" r="3.5" fill="#d47a93"/><circle cx="460" cy="410" r="3.5" fill="#d47a93"/><circle cx="600" cy="410" r="3.5" fill="#d47a93"/><circle cx="680" cy="410" r="3.5" fill="#d47a93"/></g><g class="pf-layer-panels" ><g data-module="VOICE 1" filter="url(#pf-bd61c0-panel-shadow)"><rect x="20" y="20" width="140" height="100" fill="#e8e4dc" stroke="#cec8be" stroke-width="0.75" rx="0"/><line x1="20" y1="20.5" x2="160" y2="20.5" stroke="#f2efe8" stroke-width="1"/><line x1="20" y1="119.5" x2="160" y2="119.5" stroke="#bdb8ae" stroke-width="0.5"/><rect x="32" y="28" width="116" height="28" fill="#f4f1ea" stroke="#c5c0b6" stroke-width="0.5"/><text x="90" y="42" text-anchor="middle" font-family="system-ui, -apple-system, BlinkMacSystemFont, &#39;Segoe UI&#39;, sans-serif" font-size="14" font-weight="700" fill="#1a1a1a" letter-spacing="3">VOICE 1</text></g><g data-module="VOICE 2" filter="url(#pf-bd61c0-panel-shadow)"><rect x="20" y="160" width="140" height="100" fill="#e8e4dc" stroke="#cec8be" stroke-width="0.75" rx="0"/><line x1="20" y1="160.5" x2="160" y2="160.5" stroke="#f2efe8" stroke-width="1"/><line x1="20" y1="259.5" x2="160" y2="259.5" stroke="#bdb8ae" stroke-width="0.5"/><rect x="32" y="168" width="116" height="28" fill="#f4f1ea" stroke="#c5c0b6" stroke-width="0.5"/><text x="90" y="182" text-anchor="middle" font-family="system-ui, -apple-system, BlinkMacSystemFont, &#39;Segoe UI&#39;, sans-serif" font-size="14" font-weight="700" fill="#1a1a1a" letter-spacing="3">VOICE 2</text></g><g data-module="Osc1" filter="url(#pf-bd61c0-panel-shadow)"><rect x="20" y="300" width="140" height="100" fill="#e8e4dc" stroke="#cec8be" stroke-width="0.75" rx="0"/><line x1="20" y1="300.5" x2="160" y2="300.5" stroke="#f2efe8" stroke-width="1"/><line x1="20" y1="399.5" x2="160" y2="399.5" stroke="#bdb8ae" stroke-width="0.5"/><rect x="32" y="308" width="116" height="28" fill="#f4f1ea" stroke="#c5c0b6" stroke-width="0.5"/><text x="90" y="322" text-anchor="middle" font-family="system-ui, -apple-system, BlinkMacSystemFont, &#39;Segoe UI&#39;, sans-serif" font-size="14" font-weight="700" fill="#1a1a1a" letter-spacing="3">Osc1</text></g><g data-module="Mixer" filter="url(#pf-bd61c0-panel-shadow)"><rect x="240" y="367" width="140" height="106" fill="#e8e4dc" stroke="#cec8be" stroke-width="0.75" rx="0"/><line x1="240" y1="367.5" x2="380" y2="367.5" stroke="#f2efe8" stroke-width="1"/><line x1="240" y1="472.5" x2="380" y2="472.5" stroke="#bdb8ae" stroke-width="0.5"/><rect x="252" y="375" width="116" height="28" fill="#f4f1ea" stroke="#c5c0b6" stroke-width="0.5"/><text x="310" y="389" text-anchor="middle" font-family="system-ui, -apple-system, BlinkMacSystemFont, &#39;Segoe UI&#39;, sans-serif" font-size="14" font-weight="700" fill="#1a1a1a" letter-spacing="3">Mixer</text></g><g data-module="Env1" filter="url(#pf-bd61c0-panel-shadow)"><rect x="20" y="581.5" width="140" height="100" fill="#e8e4dc" stroke="#cec8be" stroke-width="0.75" rx="0"/><line x1="20" y1="582" x2="160" y2="582" stroke="#f2efe8" stroke-width="1"/><line x1="20" y1="681" x2="160" y2="681" stroke="#bdb8ae" stroke-width="0.5"/><rect x="32" y="589.5" width="116" height="28" fill="#f4f1ea" stroke="#c5c0b6" stroke-width="0.5"/><text x="90" y="603.5" text-anchor="middle" font-family="system-ui, -apple-system, BlinkMacSystemFont, &#39;Segoe UI&#39;, sans-serif" font-size="14" font-weight="700" fill="#1a1a1a" letter-spacing="3">Env1</text></g><g data-module="VCA1" filter="url(#pf-bd61c0-panel-shadow)"><rect x="240" y="581.5" width="140" height="100" fill="#e8e4dc" stroke="#cec8be" stroke-width="0.75" rx="0"/><line x1="240" y1="582" x2="380" y2="582" stroke="#f2efe8" stroke-width="1"/><line x1="240" y1="681" x2="380" y2="681" stroke="#bdb8ae" stroke-width="0.5"/><rect x="252" y="589.5" width="116" height="28" fill="#f4f1ea" stroke="#c5c0b6" stroke-width="0.5"/><text x="310" y="603.5" text-anchor="middle" font-family="system-ui, -apple-system, BlinkMacSystemFont, &#39;Segoe UI&#39;, sans-serif" font-size="14" font-weight="700" fill="#1a1a1a" letter-spacing="3">VCA1</text></g><g data-module="Osc2" filter="url(#pf-bd61c0-panel-shadow)"><rect x="20" y="440" width="140" height="100" fill="#e8e4dc" stroke="#cec8be" stroke-width="0.75" rx="0"/><line x1="20" y1="440.5" x2="160" y2="440.5" stroke="#f2efe8" stroke-width="1"/><line x1="20" y1="539.5" x2="160" y2="539.5" stroke="#bdb8ae" stroke-width="0.5"/><rect x="32" y="448" width="116" height="28" fill="#f4f1ea" stroke="#c5c0b6" stroke-width="0.5"/><text x="90" y="462" text-anchor="middle" font-family="system-ui, -apple-system, BlinkMacSystemFont, &#39;Segoe UI&#39;, sans-serif" font-size="14" font-weight="700" fill="#1a1a1a" letter-spacing="3">Osc2</text></g><g data-module="Env2" filter="url(#pf-bd61c0-panel-shadow)"><rect x="20" y="721.5" width="140" height="100" fill="#e8e4dc" stroke="#cec8be" stroke-width="0.75" rx="0"/><line x1="20" y1="722" x2="160" y2="722" stroke="#f2efe8" stroke-width="1"/><line x1="20" y1="821" x2="160" y2="821" stroke="#bdb8ae" stroke-width="0.5"/><rect x="32" y="729.5" width="116" height="28" fill="#f4f1ea" stroke="#c5c0b6" stroke-width="0.5"/><text x="90" y="743.5" text-anchor="middle" font-family="system-ui, -apple-system, BlinkMacSystemFont, &#39;Segoe UI&#39;, sans-serif" font-size="14" font-weight="700" fill="#1a1a1a" letter-spacing="3">Env2</text></g><g data-module="VCA2" filter="url(#pf-bd61c0-panel-shadow)"><rect x="240" y="721.5" width="140" height="100" fill="#e8e4dc" stroke="#cec8be" stroke-width="0.75" rx="0"/><line x1="240" y1="722" x2="380" y2="722" stroke="#f2efe8" stroke-width="1"/><line x1="240" y1="821" x2="380" y2="821" stroke="#bdb8ae" stroke-width="0.5"/><rect x="252" y="729.5" width="116" height="28" fill="#f4f1ea" stroke="#c5c0b6" stroke-width="0.5"/><text x="310" y="743.5" text-anchor="middle" font-family="system-ui, -apple-system, BlinkMacSystemFont, &#39;Segoe UI&#39;, sans-serif" font-size="14" font-weight="700" fill="#1a1a1a" letter-spacing="3">VCA2</text></g><g data-module="Filter" filter="url(#pf-bd61c0-panel-shadow)"><rect x="460" y="370" width="140" height="100" fill="#e8e4dc" stroke="#cec8be" stroke-width="0.75" rx="0"/><line x1="460" y1="370.5" x2="600" y2="370.5" stroke="#f2efe8" stroke-width="1"/><line x1="460" y1="469.5" x2="600" y2="469.5" stroke="#bdb8ae" stroke-width="0.5"/><rect x="472" y="378" width="116" height="28" fill="#f4f1ea" stroke="#c5c0b6" stroke-width="0.5"/><text x="530" y="392" text-anchor="middle" font-family="system-ui, -apple-system, BlinkMacSystemFont, &#39;Segoe UI&#39;, sans-serif" font-size="14" font-weight="700" fill="#1a1a1a" letter-spacing="3">Filter</text></g><g data-module="Output" filter="url(#pf-bd61c0-panel-shadow)"><rect x="680" y="370" width="140" height="100" fill="#e8e4dc" stroke="#cec8be" stroke-width="0.75" rx="0"/><line x1="680" y1="370.5" x2="820" y2="370.5" stroke="#f2efe8" stroke-width="1"/><line x1="680" y1="469.5" x2="820" y2="469.5" stroke="#bdb8ae" stroke-width="0.5"/><rect x="692" y="378" width="116" height="28" fill="#f4f1ea" stroke="#c5c0b6" stroke-width="0.5"/><text x="750" y="392" text-anchor="middle" font-family="system-ui, -apple-system, BlinkMacSystemFont, &#39;Segoe UI&#39;, sans-serif" font-size="14" font-weight="700" fill="#1a1a1a" letter-spacing="3">Output</text></g></g><g class="pf-layer-params"></g><g class="pf-layer-jacks"><g data-port="osc1.out" filter="url(#pf-bd61c0-jack-shadow)"><circle cx="160" cy="340" r="8" fill="#c0bbb2" stroke="#a8a39a" stroke-width="0.75"/><circle cx="160" cy="340" r="5" fill="#8a8580"/><circle cx="160" cy="340" r="3" fill="#555555"/><circle cx="160" cy="340" r="1" fill="#333333"/></g><g data-port="mixer.in1" filter="url(#pf-bd61c0-jack-shadow)"><circle cx="240" cy="407" r="8" fill="#c0bbb2" stroke="#a8a39a" stroke-width="0.75"/><circle cx="240" cy="407" r="5" fill="#8a8580"/><circle cx="240" cy="407" r="3" fill="#555555"/><circle cx="240" cy="407" r="1" fill="#333333"/></g><g data-port="mixer.in2" filter="url(#pf-bd61c0-jack-shadow)"><circle cx="240" cy="431" r="8" fill="#c0bbb2" stroke="#a8a39a" stroke-width="0.75"/><circle cx="240" cy="431" r="5" fill="#8a8580"/><circle cx="240" cy="431" r="3" fill="#555555"/><circle cx="240" cy="431" r="1" fill="#333333"/></g><g data-port="mixer.out" filter="url(#pf-bd61c0-jack-shadow)"><circle cx="380" cy="407" r="8" fill="#c0bbb2" stroke="#a8a39a" stroke-width="0.75"/><circle cx="380" cy="407" r="5" fill="#8a8580"/><circle cx="380" cy="407" r="3" fill="#555555"/><circle cx="380" cy="407" r="1" fill="#333333"/></g><g data-port="env1.out" filter="url(#pf-bd61c0-jack-shadow)"><circle cx="160" cy="621.5" r="8" fill="#c0bbb2" stroke="#a8a39a" stroke-width="0.75"/><circle cx="160" cy="621.5" r="5" fill="#8a8580"/><circle cx="160" cy="621.5" r="3" fill="#555555"/><circle cx="160" cy="621.5" r="1" fill="#333333"/></g><g data-port="vca1.cv" filter="url(#pf-bd61c0-jack-shadow)"><circle cx="240" cy="621.5" r="8" fill="#c0bbb2" stroke="#a8a39a" stroke-width="0.75"/><circle cx="240" cy="621.5" r="5" fill="#8a8580"/><circle cx="240" cy="621.5" r="3" fill="#555555"/><circle cx="240" cy="621.5" r="1" fill="#333333"/></g><g data-port="osc2.out" filter="url(#pf-bd61c0-jack-shadow)"><circle cx="160" cy="480" r="8" fill="#c0bbb2" stroke="#a8a39a" stroke-width="0.75"/><circle cx="160" cy="480" r="5" fill="#8a8580"/><circle cx="160" cy="480" r="3" fill="#555555"/><circle cx="160" cy="480" r="1" fill="#333333"/></g><g data-port="env2.out" filter="url(#pf-bd61c0-jack-shadow)"><circle cx="160" cy="761.5" r="8" fill="#c0bbb2" stroke="#a8a39a" stroke-width="0.75"/><circle cx="160" cy="761.5" r="5" fill="#8a8580"/><circle cx="160" cy="761.5" r="3" fill="#555555"/><circle cx="160" cy="761.5" r="1" fill="#333333"/></g><g data-port="vca2.cv" filter="url(#pf-bd61c0-jack-shadow)"><circle cx="240" cy="761.5" r="8" fill="#c0bbb2" stroke="#a8a39a" stroke-width="0.75"/><circle cx="240" cy="761.5" r="5" fill="#8a8580"/><circle cx="240" cy="761.5" r="3" fill="#555555"/><circle cx="240" cy="761.5" r="1" fill="#333333"/></g><g data-port="filter.in" filter="url(#pf-bd61c0-jack-shadow)"><circle cx="460" cy="410" r="8" fill="#c0bbb2" stroke="#a8a39a" stroke-width="0.75"/><circle cx="460" cy="410" r="5" fill="#8a8580"/><circle cx="460" cy="410" r="3" fill="#555555"/><circle cx="460" cy="410" r="1" fill="#333333"/></g><g data-port="filter.out" filter="url(#pf-bd61c0-jack-shadow)"><circle cx="600" cy="410" r="8" fill="#c0bbb2" stroke="#a8a39a" stroke-width="0.75"/><circle cx="600" cy="410" r="5" fill="#8a8580"/><circle cx="600" cy="410" r="3" fill="#555555"/><circle cx="600" cy="410" r="1" fill="#333333"/></g><g data-port="output.in" filter="url(#pf-bd61c0-jack-shadow)"><circle cx="680" cy="410" r="8" fill="#c0bbb2" stroke="#a8a39a" stroke-width="0.75"/><circle cx="680" cy="410" r="5" fill="#8a8580"/><circle cx="680" cy="410" r="3" fill="#555555"/><circle cx="680" cy="410" r="1" fill="#333333"/></g></g><g class="pf-layer-labels"><text x="174" y="343" font-family="&#39;SF Mono&#39;, &#39;Fira Code&#39;, Consolas, &#39;Courier New&#39;, monospace" font-size="9" fill="#1a1a1a" font-weight="600" text-anchor="start">Out</text><text x="226" y="410" font-family="&#39;SF Mono&#39;, &#39;Fira Code&#39;, Consolas, &#39;Courier New&#39;, monospace" font-size="9" fill="#1a1a1a" font-weight="600" text-anchor="end">In1</text><text x="226" y="434" font-family="&#39;SF Mono&#39;, &#39;Fira Code&#39;, Consolas, &#39;Courier New&#39;, monospace" font-size="9" fill="#1a1a1a" font-weight="600" text-anchor="end">In2</text><text x="394" y="410" font-family="&#39;SF Mono&#39;, &#39;Fira Code&#39;, Consolas, &#39;Courier New&#39;, monospace" font-size="9" fill="#1a1a1a" font-weight="600" text-anchor="start">Out</text><text x="174" y="624.5" font-family="&#39;SF Mono&#39;, &#39;Fira Code&#39;, Consolas, &#39;Courier New&#39;, monospace" font-size="9" fill="#1a1a1a" font-weight="600" text-anchor="start">Out</text><text x="226" y="624.5" font-family="&#39;SF Mono&#39;, &#39;Fira Code&#39;, Consolas, &#39;Courier New&#39;, monospace" font-size="9" fill="#1a1a1a" font-weight="600" text-anchor="end">CV</text><text x="174" y="483" font-family="&#39;SF Mono&#39;, &#39;Fira Code&#39;, Consolas, &#39;Courier New&#39;, monospace" font-size="9" fill="#1a1a1a" font-weight="600" text-anchor="start">Out</text><text x="174" y="764.5" font-family="&#39;SF Mono&#39;, &#39;Fira Code&#39;, Consolas, &#39;Courier New&#39;, monospace" font-size="9" fill="#1a1a1a" font-weight="600" text-anchor="start">Out</text><text x="226" y="764.5" font-family="&#39;SF Mono&#39;, &#39;Fira Code&#39;, Consolas, &#39;Courier New&#39;, monospace" font-size="9" fill="#1a1a1a" font-weight="600" text-anchor="end">CV</text><text x="446" y="413" font-family="&#39;SF Mono&#39;, &#39;Fira Code&#39;, Consolas, &#39;Courier New&#39;, monospace" font-size="9" fill="#1a1a1a" font-weight="600" text-anchor="end">In</text><text x="614" y="413" font-family="&#39;SF Mono&#39;, &#39;Fira Code&#39;, Consolas, &#39;Courier New&#39;, monospace" font-size="9" fill="#1a1a1a" font-weight="600" text-anchor="start">Out</text><text x="666" y="413" font-family="&#39;SF Mono&#39;, &#39;Fira Code&#39;, Consolas, &#39;Courier New&#39;, monospace" font-size="9" fill="#1a1a1a" font-weight="600" text-anchor="end">In</text></g><g class="pf-layer-annotations"></g><g class="pf-layer-legend"><g transform="translate(20, 821.5)"><line x1="0" y1="0" x2="20" y2="0" stroke="#e88ca5" stroke-width="3" stroke-linecap="round"/><text x="26" y="3" font-family="&#39;SF Mono&#39;, &#39;Fira Code&#39;, Consolas, &#39;Courier New&#39;, monospace" font-size="9" fill="#666">audio</text></g><g transform="translate(90, 821.5)"><line x1="0" y1="0" x2="20" y2="0" stroke="#7bafd4" stroke-width="3" stroke-linecap="round"/><text x="26" y="3" font-family="&#39;SF Mono&#39;, &#39;Fira Code&#39;, Consolas, &#39;Courier New&#39;, monospace" font-size="9" fill="#666">cv</text></g></g></svg>