<svg xmlns="http://www.w3.org/2000/svg" viewBox="-130 0 1460 561.5" width="100%" data-pf-min-width="1460" role="img" aria-labelledby="pf-20b819-title pf-20b819-desc"><title id="pf-20b819-title">Patch diagram</title><desc id="pf-20b819-desc">Patch diagram with 9 modules and 6 connections. Signals: 4 audio, 2 cv.</desc><style>@media print { .pf-panel, .pf-jack { filter: none; } }</style><defs><filter id="pf-20b819-panel-shadow" x="-20%" y="-20%" width="140%" height="140%"><feDropShadow dx="0" dy="2" stdDeviation="3" flood-opacity="0.1"/></filter><filter id="pf-20b819-jack-shadow" x="-20%" y="-20%" width="140%" height="140%"><feDropShadow dx="0" dy="0.5" stdDeviation="0.8" flood-opacity="0.15"/></filter><pattern id="pf-20b819-dots" width="12" height="12" patternUnits="userSpaceOnUse"><circle cx="6" cy="6" r="0.5" fill="#aaaaaa" opacity="0.3"/></pattern></defs><g class="pf-layer-bg"><rect width="1200" height="561.5" fill="url(#pf-20b819-dots)"/></g><g class="pf-layer-cables"><path d="M 160 75 C 240 75, 280 133, 360 133" stroke="#e88ca5" stroke-width="3" fill="none" stroke-linecap="round" stroke-linejoin="round" data-connection="conn-0" data-signal="audio"/><path d="M 160 356.5 C 240 356.5, 280 356.5, 360 356.5" stroke="#7bafd4" stroke-width="3" fill="none" stroke-linecap="round" stroke-linejoin="round" data-connection="conn-1" data-signal="cv"/><path d="M 160 215 C 240 215, 280 157, 360 157" stroke="#e88ca5" stroke-width="3" fill="none" stroke-linecap="round" stroke-linejoin="round" data-connection="conn-2" data-signal="audio"/><path d="M 160 496.5 C 240 496.5, 280 496.5, 360 496.5" stroke="#7bafd4" stroke-width="3" fill="none" stroke-linecap="round" stroke-linejoin="round" data-connection="conn-3" data-signal="cv"/><path d="M 500 145 C 580 145, 620 145, 700 145" stroke="#e88ca5" stroke-width="3" fill="none" stroke-linecap="round" stroke-linejoin="round" data-connection="conn-4" data-signal="audio"/><path d="M 840 145 C 920 145, 960 145, 1040 145" stroke="#e88ca5" stroke-width="3" fill="none" stroke-linecap="round" stroke-linejoin="round" data-connection="conn-5" data-signal="audio"/><circle cx="160" cy="75" r="3.5" fill="#d47a93"/><circle cx="360" cy="133" r="3.5" fill="#d47a93"/><circle cx="160" cy="356.5" r="3.5" fill="#6a9ec3"/><circle cx="360" cy="356.5" r="3.5" fill="#6a9ec3"/><circle cx="160" cy="215" r="3.5" fill="#d47a93"/><circle cx="360" cy="157" r="3.5" fill="#d47a93"/><circle cx="160" cy="496.5" r="3.5" fill="#6a9ec3"/><circle cx="360" cy="496.5" r="3.5" fill="#6a9ec3"/><circle cx="500" cy="145" r="3.5" fill="#d47a93"/><circle cx="700" cy="145" r="3.5" fill="#d47a93"/><circle cx="840" cy="145" r="3.5" fill="#d47a93"/><circle cx="1040" cy="145" r="3.5" fill="#d47a93"/></g><g class="pf-layer-panels" ><g data-module="Osc1" filter="url(#pf-20b819-panel-shadow)"><rect x="20" y="20" width="140" height="100" fill="#e8e4dc" stroke="#cec8be" stroke-width="0.75" rx="0"/><line x1="20" y1="20.5" x2="160" y2="20.5" stroke="#f2efe8" stroke-width="1"/><line x1="20" y1="119.5" x2="160" y2="119.5" stroke="#bdb8ae" stroke-width="0.5"/><rect x="32" y="28" width="116" height="28" fill="#f4f1ea" stroke="#c5c0b6" stroke-width="0.5"/><text x="90" y="42" text-anchor="middle" font-family="system-ui, -apple-system, BlinkMacSystemFont, &#39;Segoe UI&#39;, sans-serif" font-size="14" font-weight="700" fill="#1a1a1a" letter-spacing="3">Osc1</text></g><g data-module="Mixer" filter="url(#pf-20b819-panel-shadow)"><rect x="360" y="87" width="140" height="106" fill="#e8e4dc" stroke="#cec8be" stroke-width="0.75" rx="0"/><line x1="360" y1="87.5" x2="500" y2="87.5" stroke="#f2efe8" stroke-width="1"/><line x1="360" y1="192.5" x2="500" y2="192.5" stroke="#bdb8ae" stroke-width="0.5"/><rect x="372" y="95" width="116" height="28" fill="#f4f1ea" stroke="#c5c0b6" stroke-width="0.5"/><text x="430" y="109" text-anchor="middle" font-family="system-ui, -apple-system, BlinkMacSystemFont, &#39;Segoe UI&#39;, sans-serif" font-size="14" font-weight="700" fill="#1a1a1a" letter-spacing="3">Mixer</text></g><g data-module="Env1" filter="url(#pf-20b819-panel-shadow)"><rect x="20" y="301.5" width="140" height="100" fill="#e8e4dc" stroke="#cec8be" stroke-width="0.75" rx="0"/><line x1="20" y1="302" x2="160" y2="302" stroke="#f2efe8" stroke-width="1"/><line x1="20" y1="401" x2="160" y2="401" stroke="#bdb8ae" stroke-width="0.5"/><rect x="32" y="309.5" width="116" height="28" fill="#f4f1ea" stroke="#c5c0b6" stroke-width="0.5"/><text x="90" y="323.5" text-anchor="middle" font-family="system-ui, -apple-system, BlinkMacSystemFont, &#39;Segoe UI&#39;, sans-serif" font-size="14" font-weight="700" fill="#1a1a1a" letter-spacing="3">Env1</text></g><g data-module="VCA1" filter="url(#pf-20b819-panel-shadow)"><rect x="360" y="301.5" width="140" height="100" fill="#e8e4dc" stroke="#cec8be" stroke-width="0.75" rx="0"/><line x1="360" y1="302" x2="500" y2="302" stroke="#f2efe8" stroke-width="1"/><line x1="360" y1="401" x2="500" y2="401" stroke="#bdb8ae" stroke-width="0.5"/><rect x="372" y="309.5" width="116" height="28" fill="#f4f1ea" stroke="#c5c0b6" stroke-width="0.5"/><text x="430" y="323.5" text-anchor="middle" font-family="system-ui, -apple-system, BlinkMacSystemFont, &#39;Segoe UI&#39;, sans-serif" font-size="14" font-weight="700" fill="#1a1a1a" letter-spacing="3">VCA1</text></g><g data-module="Osc2" filter="url(#pf-20b819-panel-shadow)"><rect x="20" y="160" width="140" height="100" fill="#e8e4dc" stroke="#cec8be" stroke-width="0.75" rx="0"/><line x1="20" y1="160.5" x2="160" y2="160.5" stroke="#f2efe8" stroke-width="1"/><line x1="20" y1="259.5" x2="160" y2="259.5" stroke="#bdb8ae" stroke-width="0.5"/><rect x="32" y="168" width="116" height="28" fill="#f4f1ea" stroke="#c5c0b6" stroke-width="0.5"/><text x="90" y="182" text-anchor="middle" font-family="system-ui, -apple-system, BlinkMacSystemFont, &#39;Segoe UI&#39;, sans-serif" font-size="14" font-weight="700" fill="#1a1a1a" letter-spacing="3">Osc2</text></g><g data-module="Env2" filter="url(#pf-20b819-panel-shadow)"><rect x="20" y="441.5" width="140" height="100" fill="#e8e4dc" stroke="#cec8be" stroke-width="0.75" rx="0"/><line x1="20" y1="442" x2="160" y2="442" stroke="#f2efe8" stroke-width="1"/><line x1="20" y1="541" x2="160" y2="541" stroke="#bdb8ae" stroke-width="0.5"/><rect x="32" y="449.5" width="116" height="28" fill="#f4f1ea" stroke="#c5c0b6" stroke-width="0.5"/><text x="90" y="463.5" text-anchor="middle" font-family="system-ui, -apple-system, BlinkMacSystemFont, &#39;Segoe UI&#39;, sans-serif" font-size="14" font-weight="700" fill="#1a1a1a" letter-spacing="3">Env2</text></g><g data-module="VCA2" filter="url(#pf-20b819-panel-shadow)"><rect x="360" y="441.5" width="140" height="100" fill="#e8e4dc" stroke="#cec8be" stroke-width="0.75" rx="0"/><line x1="360" y1="442" x2="500" y2="442" stroke="#f2efe8" stroke-width="1"/><line x1="360" y1="541" x2="500" y2="541" stroke="#bdb8ae" stroke-width="0.5"/><rect x="372" y="449.5" width="116" height="28" fill="#f4f1ea" stroke="#c5c0b6" stroke-width="0.5"/><text x="430" y="463.5" text-anchor="middle" font-family="system-ui, -apple-system, BlinkMacSystemFont, &#39;Segoe UI&#39;, sans-serif" font-size="14" font-weight="700" fill="#1a1a1a" letter-spacing="3">VCA2</text></g><g data-module="Filter" filter="url(#pf-20b819-panel-shadow)"><rect x="700" y="90" width="140" height="100" fill="#e8e4dc" stroke="#cec8be" stroke-width="0.75" rx="0"/><line x1="700" y1="90.5" x2="840" y2="90.5" stroke="#f2efe8" stroke-width="1"/><line x1="700" y1="189.5" x2="840" y2="189.5" stroke="#bdb8ae" stroke-width="0.5"/><rect x="712" y="98" width="116" height="28" fill="#f4f1ea" stroke="#c5c0b6" stroke-width="0.5"/><text x="770" y="112" text-anchor="middle" font-family="system-ui, -apple-system, BlinkMacSystemFont, &#39;Segoe UI&#39;, sans-serif" font-size="14" font-weight="700" fill="#1a1a1a" letter-spacing="3">Filter</text></g><g data-module="Output" filter="url(#pf-20b819-panel-shadow)"><rect x="1040" y="90" width="140" height="100" fill="#e8e4dc" stroke="#cec8be" stroke-width="0.75" rx="0"/><line x1="1040" y1="90.5" x2="1180" y2="90.5" stroke="#f2efe8" stroke-width="1"/><line x1="1040" y1="189.5" x2="1180" y2="189.5" stroke="#bdb8ae" stroke-width="0.5"/><rect x="1052" y="98" width="116" height="28" fill="#f4f1ea" stroke="#c5c0b6" stroke-width="0.5"/><text x="1110" y="112" text-anchor="middle" font-family="system-ui, -apple-system, BlinkMacSystemFont, &#39;Segoe UI&#39;, sans-serif" font-size="14" font-weight="700" fill="#1a1a1a" letter-spacing="3">Output</text></g></g><g class="pf-layer-params"></g><g class="pf-layer-jacks"><g data-port="osc1.out" filter="url(#pf-20b819-jack-shadow)"><circle cx="160" cy="75" r="8" fill="#c0bbb2" stroke="#a8a39a" stroke-width="0.75"/><circle cx="160" cy="75" r="5" fill="#8a8580"/><circle cx="160" cy="75" r="3" fill="#555555"/><circle cx="160" cy="75" r="1" fill="#333333"/></g><g data-port="mixer.in1" filter="url(#pf-20b819-jack-shadow)"><circle cx="360" cy="133" r="8" fill="#c0bbb2" stroke="#a8a39a" stroke-width="0.75"/><circle cx="360" cy="133" r="5" fill="#8a8580"/><circle cx="360" cy="133" r="3" fill="#555555"/><circle cx="360" cy="133" r="1" fill="#333333"/></g><g data-port="mixer.in2" filter="url(#pf-20b819-jack-shadow)"><circle cx="360" cy="157" r="8" fill="#c0bbb2" stroke="#a8a39a" stroke-width="0.75"/><circle cx="360" cy="157" r="5" fill="#8a8580"/><circle cx="360" cy="157" r="3" fill="#555555"/><circle cx="360" cy="157" r="1" fill="#333333"/></g><g data-port="mixer.out" filter="url(#pf-20b819-jack-shadow)"><circle cx="500" cy="145" r="8" fill="#c0bbb2" stroke="#a8a39a" stroke-width="0.75"/><circle cx="500" cy="145" r="5" fill="#8a8580"/><circle cx="500" cy="145" r="3" fill="#555555"/><circle cx="500" cy="145" r="1" fill="#333333"/></g><g data-port="env1.out" filter="url(#pf-20b819-jack-shadow)"><circle cx="160" cy="356.5" r="8" fill="#c0bbb2" stroke="#a8a39a" stroke-width="0.75"/><circle cx="160" cy="356.5" r="5" fill="#8a8580"/><circle cx="160" cy="356.5" r="3" fill="#555555"/><circle cx="160" cy="356.5" r="1" fill="#333333"/></g><g data-port="vca1.cv" filter="url(#pf-20b819-jack-shadow)"><circle cx="360" cy="356.5" r="8" fill="#c0bbb2" stroke="#a8a39a" stroke-width="0.75"/><circle cx="360" cy="356.5" r="5" fill="#8a8580"/><circle cx="360" cy="356.5" r="3" fill="#555555"/><circle cx="360" cy="356.5" r="1" fill="#333333"/></g><g data-port="osc2.out" filter="url(#pf-20b819-jack-shadow)"><circle cx="160" cy="215" r="8" fill="#c0bbb2" stroke="#a8a39a" stroke-width="0.75"/><circle cx="160" cy="215" r="5" fill="#8a8580"/><circle cx="160" cy="215" r="3" fill="#555555"/><circle cx="160" cy="215" r="1" fill="#333333"/></g><g data-port="env2.out" filter="url(#pf-20b819-jack-shadow)"><circle cx="160" cy="496.5" r="8" fill="#c0bbb2" stroke="#a8a39a" stroke-width="0.75"/><circle cx="160" cy="496.5" r="5" fill="#8a8580"/><circle cx="160" cy="496.5" r="3" fill="#555555"/><circle cx="160" cy="496.5" r="1" fill="#333333"/></g><g data-port="vca2.cv" filter="url(#pf-20b819-jack-shadow)"><circle cx="360" cy="496.5" r="8" fill="#c0bbb2" stroke="#a8a39a" stroke-width="0.75"/><circle cx="360" cy="496.5" r="5" fill="#8a8580"/><circle cx="360" cy="496.5" r="3" fill="#555555"/><circle cx="360" cy="496.5" r="1" fill="#333333"/></g><g data-port="filter.in" filter="url(#pf-20b819-jack-shadow)"><circle cx="700" cy="145" r="8" fill="#c0bbb2" stroke="#a8a39a" stroke-width="0.75"/><circle cx="700" cy="145" r="5" fill="#8a8580"/><circle cx="700" cy="145" r="3" fill="#555555"/><circle cx="700" cy="145" r="1" fill="#333333"/></g><g data-port="filter.out" filter="url(#pf-20b819-jack-shadow)"><circle cx="840" cy="145" r="8" fill="#c0bbb2" stroke="#a8a39a" stroke-width="0.75"/><circle cx="840" cy="145" r="5" fill="#8a8580"/><circle cx="840" cy="145" r="3" fill="#555555"/><circle cx="840" cy="145" r="1" fill="#333333"/></g><g data-port="output.in" filter="url(#pf-20b819-jack-shadow)"><circle cx="1040" cy="145" r="8" fill="#c0bbb2" stroke="#a8a39a" stroke-width="0.75"/><circle cx="1040" cy="145" r="5" fill="#8a8580"/><circle cx="1040" cy="145" r="3" fill="#555555"/><circle cx="1040" cy="145" r="1" fill="#333333"/></g></g><g class="pf-layer-labels"><text x="174" y="78" font-family="&#39;SF Mono&#39;, &#39;Fira Code&#39;, Consolas, &#39;Courier New&#39;, monospace" font-size="9" fill="#1a1a1a" font-weight="600" text-anchor="start">Out</text><rect class="pf-port-pill" x="199.5" y="69.5" width="38.5" height="11" rx="0" fill="#e88ca5" data-signal="audio"/><text class="pf-port-pill-text" x="218.75" y="78" text-anchor="middle" font-family="&#39;SF Mono&#39;, &#39;Fira Code&#39;, Consolas, &#39;Courier New&#39;, monospace" font-size="8" fill="#ffffff" font-weight="600">audio</text><text x="346" y="136" font-family="&#39;SF Mono&#39;, &#39;Fira Code&#39;, Consolas, &#39;Courier New&#39;, monospace" font-size="9" fill="#1a1a1a" font-weight="600" text-anchor="end">In1</text><rect class="pf-port-pill" x="282" y="127.5" width="38.5" height="11" rx="0" fill="#e88ca5" data-signal="audio"/><text class="pf-port-pill-text" x="301.25" y="136" text-anchor="middle" font-family="&#39;SF Mono&#39;, &#39;Fira Code&#39;, Consolas, &#39;Courier New&#39;, monospace" font-size="8" fill="#ffffff" font-weight="600">audio</text><text x="346" y="160" font-family="&#39;SF Mono&#39;, &#39;Fira Code&#39;, Consolas, &#39;Courier New&#39;, monospace" font-size="9" fill="#1a1a1a" font-weight="600" text-anchor="end">In2</text><rect class="pf-port-pill" x="282" y="151.5" width="38.5" height="11" rx="0" fill="#e88ca5" data-signal="audio"/><text class="pf-port-pill-text" x="301.25" y="160" text-anchor="middle" font-family="&#39;SF Mono&#39;, &#39;Fira Code&#39;, Consolas, &#39;Courier New&#39;, monospace" font-size="8" fill="#ffffff" font-weight="600">audio</text><text x="514" y="148" font-family="&#39;SF Mono&#39;, &#39;Fira Code&#39;, Consolas, &#39;Courier New&#39;, monospace" font-size="9" fill="#1a1a1a" font-weight="600" text-anchor="start">Out</text><rect class="pf-port-pill" x="539.5" y="139.5" width="38.5" height="11" rx="0" fill="#e88ca5" data-signal="audio"/><text class="pf-port-pill-text" x="558.75" y="148" text-anchor="middle" font-family="&#39;SF Mono&#39;, &#39;Fira Code&#39;, Consolas, &#39;Courier New&#39;, monospace" font-size="8" fill="#ffffff" font-weight="600">audio</text><text x="174" y="359.5" font-family="&#39;SF Mono&#39;, &#39;Fira Code&#39;, Consolas, &#39;Courier New&#39;, monospace" font-size="9" fill="#1a1a1a" font-weight="600" text-anchor="start">Out</text><rect class="pf-port-pill" x="199.5" y="351" width="19" height="11" rx="0" fill="#7bafd4" data-signal="cv"/><text class="pf-port-pill-text" x="209" y="359.5" text-anchor="middle" font-family="&#39;SF Mono&#39;, &#39;Fira Code&#39;, Consolas, &#39;Courier New&#39;, monospace" font-size="8" fill="#ffffff" font-weight="600">cv</text><text x="346" y="359.5" font-family="&#39;SF Mono&#39;, &#39;Fira Code&#39;, Consolas, &#39;Courier New&#39;, monospace" font-size="9" fill="#1a1a1a" font-weight="600" text-anchor="end">CV</text><rect class="pf-port-pill" x="308" y="351" width="19" height="11" rx="0" fill="#7bafd4" data-signal="cv"/><text class="pf-port-pill-text" x="317.5" y="359.5" text-anchor="middle" font-family="&#39;SF Mono&#39;, &#39;Fira Code&#39;, Consolas, &#39;Courier New&#39;, monospace" font-size="8" fill="#ffffff" font-weight="600">cv</text><text x="174" y="218" font-family="&#39;SF Mono&#39;, &#39;Fira Code&#39;, Consolas, &#39;Courier New&#39;, monospace" font-size="9" fill="#1a1a1a" font-weight="600" text-anchor="start">Out</text><rect class="pf-port-pill" x="199.5" y="209.5" width="38.5" height="11" rx="0" fill="#e88ca5" data-signal="audio"/><text class="pf-port-pill-text" x="218.75" y="218" text-anchor="middle" font-family="&#39;SF Mono&#39;, &#39;Fira Code&#39;, Consolas, &#39;Courier New&#39;, monospace" font-size="8" fill="#ffffff" font-weight="600">audio</text><text x="174" y="499.5" font-family="&#39;SF Mono&#39;, &#39;Fira Code&#39;, Consolas, &#39;Courier New&#39;, monospace" font-size="9" fill="#1a1a1a" font-weight="600" text-anchor="start">Out</text><rect class="pf-port-pill" x="199.5" y="491" width="19" height="11" rx="0" fill="#7bafd4" data-signal="cv"/><text class="pf-port-pill-text" x="209" y="499.5" text-anchor="middle" font-family="&#39;SF Mono&#39;, &#39;Fira Code&#39;, Consolas, &#39;Courier New&#39;, monospace" font-size="8" fill="#ffffff" font-weight="600">cv</text><text x="346" y="499.5" font-family="&#39;SF Mono&#39;, &#39;Fira Code&#39;, Consolas, &#39;Courier New&#39;, monospace" font-size="9" fill="#1a1a1a" font-weight="600" text-anchor="end">CV</text><rect class="pf-port-pill" x="308" y="491" width="19" height="11" rx="0" fill="#7bafd4" data-signal="cv"/><text class="pf-port-pill-text" x="317.5" y="499.5" text-anchor="middle" font-family="&#39;SF Mono&#39;, &#39;Fira Code&#39;, Consolas, &#39;Courier New&#39;, monospace" font-size="8" fill="#ffffff" font-weight="600">cv</text><text x="686" y="148" font-family="&#39;SF Mono&#39;, &#39;Fira Code&#39;, Consolas, &#39;Courier New&#39;, monospace" font-size="9" fill="#1a1a1a" font-weight="600" text-anchor="end">In</text><rect class="pf-port-pill" x="628.5" y="139.5" width="38.5" height="11" rx="0" fill="#e88ca5" data-signal="audio"/><text class="pf-port-pill-text" x="647.75" y="148" text-anchor="middle" font-family="&#39;SF Mono&#39;, &#39;Fira Code&#39;, Consolas, &#39;Courier New&#39;, monospace" font-size="8" fill="#ffffff" font-weight="600">audio</text><text x="854" y="148" font-family="&#39;SF Mono&#39;, &#39;Fira Code&#39;, Consolas, &#39;Courier New&#39;, monospace" font-size="9" fill="#1a1a1a" font-weight="600" text-anchor="start">Out</text><rect class="pf-port-pill" x="879.5" y="139.5" width="38.5" height="11" rx="0" fill="#e88ca5" data-signal="audio"/><text class="pf-port-pill-text" x="898.75" y="148" text-anchor="middle" font-family="&#39;SF Mono&#39;, &#39;Fira Code&#39;, Consolas, &#39;Courier New&#39;, monospace" font-size="8" fill="#ffffff" font-weight="600">audio</text><text x="1026" y="148" font-family="&#39;SF Mono&#39;, &#39;Fira Code&#39;, Consolas, &#39;Courier New&#39;, monospace" font-size="9" fill="#1a1a1a" font-weight="600" text-anchor="end">In</text><rect class="pf-port-pill" x="968.5" y="139.5" width="38.5" height="11" rx="0" fill="#e88ca5" data-signal="audio"/><text class="pf-port-pill-text" x="987.75" y="148" text-anchor="middle" font-family="&#39;SF Mono&#39;, &#39;Fira Code&#39;, Consolas, &#39;Courier New&#39;, monospace" font-size="8" fill="#ffffff" font-weight="600">audio</text></g><g class="pf-layer-annotations"></g><g class="pf-layer-legend"><g transform="translate(20, 541.5)"><line x1="0" y1="0" x2="20" y2="0" stroke="#e88ca5" stroke-width="3" stroke-linecap="round"/><text x="26" y="3" font-family="&#39;SF Mono&#39;, &#39;Fira Code&#39;, Consolas, &#39;Courier New&#39;, monospace" font-size="9" fill="#888888">audio</text></g><g transform="translate(90, 541.5)"><line x1="0" y1="0" x2="20" y2="0" stroke="#7bafd4" stroke-width="3" stroke-linecap="round"/><text x="26" y="3" font-family="&#39;SF Mono&#39;, &#39;Fira Code&#39;, Consolas, &#39;Courier New&#39;, monospace" font-size="9" fill="#888888">cv</text></g></g></svg>