<svg xmlns="http://www.w3.org/2000/svg" viewBox="-60 0 960 561.5" width="100%" data-pf-min-width="960" role="img" aria-labelledby="pf-3d908c-title pf-3d908c-desc"><title id="pf-3d908c-title">Patch diagram</title><desc id="pf-3d908c-desc">Patch diagram with 9 modules and 6 connections. Signals: 4 audio, 2 cv.</desc><style>@media print { .pf-panel, .pf-jack { filter: none; } }</style><defs><filter id="pf-3d908c-panel-shadow" x="-20%" y="-20%" width="140%" height="140%"><feDropShadow dx="0" dy="2" stdDeviation="3" flood-opacity="0.1"/></filter><filter id="pf-3d908c-jack-shadow" x="-20%" y="-20%" width="140%" height="140%"><feDropShadow dx="0" dy="0.5" stdDeviation="0.8" flood-opacity="0.15"/></filter><pattern id="pf-3d908c-dots" width="12" height="12" patternUnits="userSpaceOnUse"><circle cx="6" cy="6" r="0.5" fill="#555555" opacity="0.5"/></pattern></defs><g class="pf-layer-bg"><rect width="840" height="561.5" fill="url(#pf-3d908c-dots)"/></g><g class="pf-layer-cables"><path d="M 160 60 C 192 60, 208 127, 240 127" stroke="#e88ca5" stroke-width="3" fill="none" stroke-linecap="round" stroke-linejoin="round" data-connection="conn-0" data-signal="audio"/><path d="M 160 341.5 C 192 341.5, 208 341.5, 240 341.5" stroke="#7bafd4" stroke-width="3" fill="none" stroke-linecap="round" stroke-linejoin="round" data-connection="conn-1" data-signal="cv"/><path d="M 160 200 C 192 200, 208 151, 240 151" stroke="#e88ca5" stroke-width="3" fill="none" stroke-linecap="round" stroke-linejoin="round" data-connection="conn-2" data-signal="audio"/><path d="M 160 481.5 C 192 481.5, 208 481.5, 240 481.5" stroke="#7bafd4" stroke-width="3" fill="none" stroke-linecap="round" stroke-linejoin="round" data-connection="conn-3" data-signal="cv"/><path d="M 380 127 C 412 127, 428 130, 460 130" stroke="#e88ca5" stroke-width="3" fill="none" stroke-linecap="round" stroke-linejoin="round" data-connection="conn-4" data-signal="audio"/><path d="M 600 130 C 632 130, 648 130, 680 130" stroke="#e88ca5" stroke-width="3" fill="none" stroke-linecap="round" stroke-linejoin="round" data-connection="conn-5" data-signal="audio"/><circle cx="160" cy="60" r="3.5" fill="#d47a93"/><circle cx="240" cy="127" r="3.5" fill="#d47a93"/><circle cx="160" cy="341.5" r="3.5" fill="#6a9ec3"/><circle cx="240" cy="341.5" r="3.5" fill="#6a9ec3"/><circle cx="160" cy="200" r="3.5" fill="#d47a93"/><circle cx="240" cy="151" r="3.5" fill="#d47a93"/><circle cx="160" cy="481.5" r="3.5" fill="#6a9ec3"/><circle cx="240" cy="481.5" r="3.5" fill="#6a9ec3"/><circle cx="380" cy="127" r="3.5" fill="#d47a93"/><circle cx="460" cy="130" r="3.5" fill="#d47a93"/><circle cx="600" cy="130" r="3.5" fill="#d47a93"/><circle cx="680" cy="130" r="3.5" fill="#d47a93"/></g><g class="pf-layer-panels" ><g data-module="Osc1" filter="url(#pf-3d908c-panel-shadow)"><rect x="20" y="20" width="140" height="100" fill="#e8e4dc" stroke="#cec8be" stroke-width="0.75" rx="0"/><line x1="20" y1="20.5" x2="160" y2="20.5" stroke="#f2efe8" stroke-width="1"/><line x1="20" y1="119.5" x2="160" y2="119.5" stroke="#bdb8ae" stroke-width="0.5"/><rect x="32" y="28" width="116" height="28" fill="#f4f1ea" stroke="#c5c0b6" stroke-width="0.5"/><text x="90" y="42" text-anchor="middle" font-family="system-ui, -apple-system, BlinkMacSystemFont, &#39;Segoe UI&#39;, sans-serif" font-size="14" font-weight="700" fill="#1a1a1a" letter-spacing="3">Osc1</text></g><g data-module="Mixer" filter="url(#pf-3d908c-panel-shadow)"><rect x="240" y="87" width="140" height="106" fill="#e8e4dc" stroke="#cec8be" stroke-width="0.75" rx="0"/><line x1="240" y1="87.5" x2="380" y2="87.5" stroke="#f2efe8" stroke-width="1"/><line x1="240" y1="192.5" x2="380" y2="192.5" stroke="#bdb8ae" stroke-width="0.5"/><rect x="252" y="95" width="116" height="28" fill="#f4f1ea" stroke="#c5c0b6" stroke-width="0.5"/><text x="310" y="109" text-anchor="middle" font-family="system-ui, -apple-system, BlinkMacSystemFont, &#39;Segoe UI&#39;, sans-serif" font-size="14" font-weight="700" fill="#1a1a1a" letter-spacing="3">Mixer</text></g><g data-module="Env1" filter="url(#pf-3d908c-panel-shadow)"><rect x="20" y="301.5" width="140" height="100" fill="#e8e4dc" stroke="#cec8be" stroke-width="0.75" rx="0"/><line x1="20" y1="302" x2="160" y2="302" stroke="#f2efe8" stroke-width="1"/><line x1="20" y1="401" x2="160" y2="401" stroke="#bdb8ae" stroke-width="0.5"/><rect x="32" y="309.5" width="116" height="28" fill="#f4f1ea" stroke="#c5c0b6" stroke-width="0.5"/><text x="90" y="323.5" text-anchor="middle" font-family="system-ui, -apple-system, BlinkMacSystemFont, &#39;Segoe UI&#39;, sans-serif" font-size="14" font-weight="700" fill="#1a1a1a" letter-spacing="3">Env1</text></g><g data-module="VCA1" filter="url(#pf-3d908c-panel-shadow)"><rect x="240" y="301.5" width="140" height="100" fill="#e8e4dc" stroke="#cec8be" stroke-width="0.75" rx="0"/><line x1="240" y1="302" x2="380" y2="302" stroke="#f2efe8" stroke-width="1"/><line x1="240" y1="401" x2="380" y2="401" stroke="#bdb8ae" stroke-width="0.5"/><rect x="252" y="309.5" width="116" height="28" fill="#f4f1ea" stroke="#c5c0b6" stroke-width="0.5"/><text x="310" y="323.5" text-anchor="middle" font-family="system-ui, -apple-system, BlinkMacSystemFont, &#39;Segoe UI&#39;, sans-serif" font-size="14" font-weight="700" fill="#1a1a1a" letter-spacing="3">VCA1</text></g><g data-module="Osc2" filter="url(#pf-3d908c-panel-shadow)"><rect x="20" y="160" width="140" height="100" fill="#e8e4dc" stroke="#cec8be" stroke-width="0.75" rx="0"/><line x1="20" y1="160.5" x2="160" y2="160.5" stroke="#f2efe8" stroke-width="1"/><line x1="20" y1="259.5" x2="160" y2="259.5" stroke="#bdb8ae" stroke-width="0.5"/><rect x="32" y="168" width="116" height="28" fill="#f4f1ea" stroke="#c5c0b6" stroke-width="0.5"/><text x="90" y="182" text-anchor="middle" font-family="system-ui, -apple-system, BlinkMacSystemFont, &#39;Segoe UI&#39;, sans-serif" font-size="14" font-weight="700" fill="#1a1a1a" letter-spacing="3">Osc2</text></g><g data-module="Env2" filter="url(#pf-3d908c-panel-shadow)"><rect x="20" y="441.5" width="140" height="100" fill="#e8e4dc" stroke="#cec8be" stroke-width="0.75" rx="0"/><line x1="20" y1="442" x2="160" y2="442" stroke="#f2efe8" stroke-width="1"/><line x1="20" y1="541" x2="160" y2="541" stroke="#bdb8ae" stroke-width="0.5"/><rect x="32" y="449.5" width="116" height="28" fill="#f4f1ea" stroke="#c5c0b6" stroke-width="0.5"/><text x="90" y="463.5" text-anchor="middle" font-family="system-ui, -apple-system, BlinkMacSystemFont, &#39;Segoe UI&#39;, sans-serif" font-size="14" font-weight="700" fill="#1a1a1a" letter-spacing="3">Env2</text></g><g data-module="VCA2" filter="url(#pf-3d908c-panel-shadow)"><rect x="240" y="441.5" width="140" height="100" fill="#e8e4dc" stroke="#cec8be" stroke-width="0.75" rx="0"/><line x1="240" y1="442" x2="380" y2="442" stroke="#f2efe8" stroke-width="1"/><line x1="240" y1="541" x2="380" y2="541" stroke="#bdb8ae" stroke-width="0.5"/><rect x="252" y="449.5" width="116" height="28" fill="#f4f1ea" stroke="#c5c0b6" stroke-width="0.5"/><text x="310" y="463.5" text-anchor="middle" font-family="system-ui, -apple-system, BlinkMacSystemFont, &#39;Segoe UI&#39;, sans-serif" font-size="14" font-weight="700" fill="#1a1a1a" letter-spacing="3">VCA2</text></g><g data-module="Filter" filter="url(#pf-3d908c-panel-shadow)"><rect x="460" y="90" width="140" height="100" fill="#e8e4dc" stroke="#cec8be" stroke-width="0.75" rx="0"/><line x1="460" y1="90.5" x2="600" y2="90.5" stroke="#f2efe8" stroke-width="1"/><line x1="460" y1="189.5" x2="600" y2="189.5" stroke="#bdb8ae" stroke-width="0.5"/><rect x="472" y="98" width="116" height="28" fill="#f4f1ea" stroke="#c5c0b6" stroke-width="0.5"/><text x="530" y="112" text-anchor="middle" font-family="system-ui, -apple-system, BlinkMacSystemFont, &#39;Segoe UI&#39;, sans-serif" font-size="14" font-weight="700" fill="#1a1a1a" letter-spacing="3">Filter</text></g><g data-module="Output" filter="url(#pf-3d908c-panel-shadow)"><rect x="680" y="90" width="140" height="100" fill="#e8e4dc" stroke="#cec8be" stroke-width="0.75" rx="0"/><line x1="680" y1="90.5" x2="820" y2="90.5" stroke="#f2efe8" stroke-width="1"/><line x1="680" y1="189.5" x2="820" y2="189.5" stroke="#bdb8ae" stroke-width="0.5"/><rect x="692" y="98" width="116" height="28" fill="#f4f1ea" stroke="#c5c0b6" stroke-width="0.5"/><text x="750" y="112" text-anchor="middle" font-family="system-ui, -apple-system, BlinkMacSystemFont, &#39;Segoe UI&#39;, sans-serif" font-size="14" font-weight="700" fill="#1a1a1a" letter-spacing="3">Output</text></g></g><g class="pf-layer-params"></g><g class="pf-layer-jacks"><g data-port="osc1.out" filter="url(#pf-3d908c-jack-shadow)"><circle cx="160" cy="60" r="8" fill="#c0bbb2" stroke="#a8a39a" stroke-width="0.75"/><circle cx="160" cy="60" r="5" fill="#8a8580"/><circle cx="160" cy="60" r="3" fill="#555555"/><circle cx="160" cy="60" r="1" fill="#333333"/></g><g data-port="mixer.in1" filter="url(#pf-3d908c-jack-shadow)"><circle cx="240" cy="127" r="8" fill="#c0bbb2" stroke="#a8a39a" stroke-width="0.75"/><circle cx="240" cy="127" r="5" fill="#8a8580"/><circle cx="240" cy="127" r="3" fill="#555555"/><circle cx="240" cy="127" r="1" fill="#333333"/></g><g data-port="mixer.in2" filter="url(#pf-3d908c-jack-shadow)"><circle cx="240" cy="151" r="8" fill="#c0bbb2" stroke="#a8a39a" stroke-width="0.75"/><circle cx="240" cy="151" r="5" fill="#8a8580"/><circle cx="240" cy="151" r="3" fill="#555555"/><circle cx="240" cy="151" r="1" fill="#333333"/></g><g data-port="mixer.out" filter="url(#pf-3d908c-jack-shadow)"><circle cx="380" cy="127" r="8" fill="#c0bbb2" stroke="#a8a39a" stroke-width="0.75"/><circle cx="380" cy="127" r="5" fill="#8a8580"/><circle cx="380" cy="127" r="3" fill="#555555"/><circle cx="380" cy="127" r="1" fill="#333333"/></g><g data-port="env1.out" filter="url(#pf-3d908c-jack-shadow)"><circle cx="160" cy="341.5" r="8" fill="#c0bbb2" stroke="#a8a39a" stroke-width="0.75"/><circle cx="160" cy="341.5" r="5" fill="#8a8580"/><circle cx="160" cy="341.5" r="3" fill="#555555"/><circle cx="160" cy="341.5" r="1" fill="#333333"/></g><g data-port="vca1.cv" filter="url(#pf-3d908c-jack-shadow)"><circle cx="240" cy="341.5" r="8" fill="#c0bbb2" stroke="#a8a39a" stroke-width="0.75"/><circle cx="240" cy="341.5" r="5" fill="#8a8580"/><circle cx="240" cy="341.5" r="3" fill="#555555"/><circle cx="240" cy="341.5" r="1" fill="#333333"/></g><g data-port="osc2.out" filter="url(#pf-3d908c-jack-shadow)"><circle cx="160" cy="200" r="8" fill="#c0bbb2" stroke="#a8a39a" stroke-width="0.75"/><circle cx="160" cy="200" r="5" fill="#8a8580"/><circle cx="160" cy="200" r="3" fill="#555555"/><circle cx="160" cy="200" r="1" fill="#333333"/></g><g data-port="env2.out" filter="url(#pf-3d908c-jack-shadow)"><circle cx="160" cy="481.5" r="8" fill="#c0bbb2" stroke="#a8a39a" stroke-width="0.75"/><circle cx="160" cy="481.5" r="5" fill="#8a8580"/><circle cx="160" cy="481.5" r="3" fill="#555555"/><circle cx="160" cy="481.5" r="1" fill="#333333"/></g><g data-port="vca2.cv" filter="url(#pf-3d908c-jack-shadow)"><circle cx="240" cy="481.5" r="8" fill="#c0bbb2" stroke="#a8a39a" stroke-width="0.75"/><circle cx="240" cy="481.5" r="5" fill="#8a8580"/><circle cx="240" cy="481.5" r="3" fill="#555555"/><circle cx="240" cy="481.5" r="1" fill="#333333"/></g><g data-port="filter.in" filter="url(#pf-3d908c-jack-shadow)"><circle cx="460" cy="130" r="8" fill="#c0bbb2" stroke="#a8a39a" stroke-width="0.75"/><circle cx="460" cy="130" r="5" fill="#8a8580"/><circle cx="460" cy="130" r="3" fill="#555555"/><circle cx="460" cy="130" r="1" fill="#333333"/></g><g data-port="filter.out" filter="url(#pf-3d908c-jack-shadow)"><circle cx="600" cy="130" r="8" fill="#c0bbb2" stroke="#a8a39a" stroke-width="0.75"/><circle cx="600" cy="130" r="5" fill="#8a8580"/><circle cx="600" cy="130" r="3" fill="#555555"/><circle cx="600" cy="130" r="1" fill="#333333"/></g><g data-port="output.in" filter="url(#pf-3d908c-jack-shadow)"><circle cx="680" cy="130" r="8" fill="#c0bbb2" stroke="#a8a39a" stroke-width="0.75"/><circle cx="680" cy="130" r="5" fill="#8a8580"/><circle cx="680" cy="130" r="3" fill="#555555"/><circle cx="680" cy="130" r="1" fill="#333333"/></g></g><g class="pf-layer-labels"><text x="174" y="63" font-family="&#39;SF Mono&#39;, &#39;Fira Code&#39;, Consolas, &#39;Courier New&#39;, monospace" font-size="9" fill="#e8e4dc" font-weight="600" text-anchor="start">Out</text><text x="226" y="130" font-family="&#39;SF Mono&#39;, &#39;Fira Code&#39;, Consolas, &#39;Courier New&#39;, monospace" font-size="9" fill="#e8e4dc" font-weight="600" text-anchor="end">In1</text><text x="226" y="154" font-family="&#39;SF Mono&#39;, &#39;Fira Code&#39;, Consolas, &#39;Courier New&#39;, monospace" font-size="9" fill="#e8e4dc" font-weight="600" text-anchor="end">In2</text><text x="394" y="130" font-family="&#39;SF Mono&#39;, &#39;Fira Code&#39;, Consolas, &#39;Courier New&#39;, monospace" font-size="9" fill="#e8e4dc" font-weight="600" text-anchor="start">Out</text><text x="174" y="344.5" font-family="&#39;SF Mono&#39;, &#39;Fira Code&#39;, Consolas, &#39;Courier New&#39;, monospace" font-size="9" fill="#e8e4dc" font-weight="600" text-anchor="start">Out</text><text x="226" y="344.5" font-family="&#39;SF Mono&#39;, &#39;Fira Code&#39;, Consolas, &#39;Courier New&#39;, monospace" font-size="9" fill="#e8e4dc" font-weight="600" text-anchor="end">CV</text><text x="174" y="203" font-family="&#39;SF Mono&#39;, &#39;Fira Code&#39;, Consolas, &#39;Courier New&#39;, monospace" font-size="9" fill="#e8e4dc" font-weight="600" text-anchor="start">Out</text><text x="174" y="484.5" font-family="&#39;SF Mono&#39;, &#39;Fira Code&#39;, Consolas, &#39;Courier New&#39;, monospace" font-size="9" fill="#e8e4dc" font-weight="600" text-anchor="start">Out</text><text x="226" y="484.5" font-family="&#39;SF Mono&#39;, &#39;Fira Code&#39;, Consolas, &#39;Courier New&#39;, monospace" font-size="9" fill="#e8e4dc" font-weight="600" text-anchor="end">CV</text><text x="446" y="133" font-family="&#39;SF Mono&#39;, &#39;Fira Code&#39;, Consolas, &#39;Courier New&#39;, monospace" font-size="9" fill="#e8e4dc" font-weight="600" text-anchor="end">In</text><text x="614" y="133" font-family="&#39;SF Mono&#39;, &#39;Fira Code&#39;, Consolas, &#39;Courier New&#39;, monospace" font-size="9" fill="#e8e4dc" font-weight="600" text-anchor="start">Out</text><text x="666" y="133" font-family="&#39;SF Mono&#39;, &#39;Fira Code&#39;, Consolas, &#39;Courier New&#39;, monospace" font-size="9" fill="#e8e4dc" font-weight="600" text-anchor="end">In</text></g><g class="pf-layer-annotations"></g><g class="pf-layer-legend"><g transform="translate(20, 541.5)"><line x1="0" y1="0" x2="20" y2="0" stroke="#e88ca5" stroke-width="3" stroke-linecap="round"/><text x="26" y="3" font-family="&#39;SF Mono&#39;, &#39;Fira Code&#39;, Consolas, &#39;Courier New&#39;, monospace" font-size="9" fill="#d0d0d0">audio</text></g><g transform="translate(90, 541.5)"><line x1="0" y1="0" x2="20" y2="0" stroke="#7bafd4" stroke-width="3" stroke-linecap="round"/><text x="26" y="3" font-family="&#39;SF Mono&#39;, &#39;Fira Code&#39;, Consolas, &#39;Courier New&#39;, monospace" font-size="9" fill="#d0d0d0">cv</text></g></g></svg>