<svg xmlns="http://www.w3.org/2000/svg" viewBox="0 0 762 444.5" width="100%" data-pf-min-width="762" role="img" aria-labelledby="pf-60eca2-title pf-60eca2-desc"><title id="pf-60eca2-title">Patch diagram</title><desc id="pf-60eca2-desc">Patch diagram with 5 modules and 4 connections. Modules: MATHS, CH 1, CH 4, Filter, VCA. Signals: 2 cv, 2 gate.</desc><style>@media print { .pf-panel, .pf-jack { filter: none; } }</style><defs><filter id="pf-60eca2-panel-shadow" x="-20%" y="-20%" width="140%" height="140%"><feDropShadow dx="0" dy="2" stdDeviation="3" flood-opacity="0.1"/></filter><filter id="pf-60eca2-jack-shadow" x="-20%" y="-20%" width="140%" height="140%"><feDropShadow dx="0" dy="0.5" stdDeviation="0.8" flood-opacity="0.15"/></filter><pattern id="pf-60eca2-dots" width="12" height="12" patternUnits="userSpaceOnUse"><circle cx="6" cy="6" r="0.5" fill="#aaaaaa" opacity="0.3"/></pattern></defs><g class="pf-layer-bg"><rect width="762" height="444.5" fill="url(#pf-60eca2-dots)"/></g><g class="pf-layer-cables"><path d="M 231 240 C 291.4 240, 321.6 168.5, 382 168.5" stroke="#d4a054" stroke-width="3" fill="none" stroke-linecap="round" stroke-linejoin="round" data-connection="conn-0" data-signal="gate"/><path d="M 231 264 C 291.4 264, 321.6 314.5, 382 314.5" stroke="#7bafd4" stroke-width="3" fill="none" stroke-linecap="round" stroke-linejoin="round" data-connection="conn-2" data-signal="cv"/><path d="M 522 192.5 C 554 192.5, 570 171.5, 602 171.5" stroke="#7bafd4" stroke-width="3" fill="none" stroke-linecap="round" stroke-linejoin="round" data-connection="conn-3" data-signal="cv"/><path d="M 522 168.5 L 542 168.5 L 542 404.5 L 71 404.5 L 71 240 L 91 240" stroke="#d4a054" stroke-width="3" fill="none" stroke-linecap="round" stroke-linejoin="round" data-connection="conn-1" data-signal="gate"/><circle cx="231" cy="240" r="3.5" fill="#c49244"/><circle cx="382" cy="168.5" r="3.5" fill="#c49244"/><circle cx="231" cy="264" r="3.5" fill="#6a9ec3"/><circle cx="382" cy="314.5" r="3.5" fill="#6a9ec3"/><circle cx="522" cy="192.5" r="3.5" fill="#6a9ec3"/><circle cx="602" cy="171.5" r="3.5" fill="#6a9ec3"/><circle cx="522" cy="168.5" r="3.5" fill="#c49244"/><circle cx="91" cy="240" r="3.5" fill="#c49244"/></g><g class="pf-layer-panels" ><g data-module="MATHS" filter="url(#pf-60eca2-panel-shadow)"><rect x="20" y="20" width="282" height="140" fill="#e8e4dc" stroke="#cec8be" stroke-width="0.75" rx="0"/><line x1="20" y1="20.5" x2="302" y2="20.5" stroke="#f2efe8" stroke-width="1"/><line x1="20" y1="159.5" x2="302" y2="159.5" stroke="#bdb8ae" stroke-width="0.5"/><rect x="32" y="28" width="258" height="28" fill="#f4f1ea" stroke="#c5c0b6" stroke-width="0.5"/><text x="161" y="42" text-anchor="middle" font-family="system-ui, -apple-system, BlinkMacSystemFont, &#39;Segoe UI&#39;, sans-serif" font-size="14" font-weight="700" fill="#1a1a1a" letter-spacing="3">MATHS</text></g><g data-module="MATHS" filter="url(#pf-60eca2-panel-shadow)"><rect x="91" y="200" width="140" height="106" fill="#e8e4dc" stroke="#cec8be" stroke-width="0.75" rx="0"/><line x1="91" y1="200.5" x2="231" y2="200.5" stroke="#f2efe8" stroke-width="1"/><line x1="91" y1="305.5" x2="231" y2="305.5" stroke="#bdb8ae" stroke-width="0.5"/><rect x="103" y="208" width="116" height="28" fill="#f4f1ea" stroke="#c5c0b6" stroke-width="0.5"/><text x="161" y="222" text-anchor="middle" font-family="system-ui, -apple-system, BlinkMacSystemFont, &#39;Segoe UI&#39;, sans-serif" font-size="14" font-weight="700" fill="#1a1a1a" letter-spacing="3">CH 1</text></g><g data-module="MATHS" filter="url(#pf-60eca2-panel-shadow)"><rect x="382" y="128.5" width="140" height="106" fill="#e8e4dc" stroke="#cec8be" stroke-width="0.75" rx="0"/><line x1="382" y1="129" x2="522" y2="129" stroke="#f2efe8" stroke-width="1"/><line x1="382" y1="234" x2="522" y2="234" stroke="#bdb8ae" stroke-width="0.5"/><rect x="394" y="136.5" width="116" height="28" fill="#f4f1ea" stroke="#c5c0b6" stroke-width="0.5"/><text x="452" y="150.5" text-anchor="middle" font-family="system-ui, -apple-system, BlinkMacSystemFont, &#39;Segoe UI&#39;, sans-serif" font-size="14" font-weight="700" fill="#1a1a1a" letter-spacing="3">CH 4</text></g><g data-module="Filter" filter="url(#pf-60eca2-panel-shadow)"><rect x="382" y="274.5" width="140" height="100" fill="#e8e4dc" stroke="#cec8be" stroke-width="0.75" rx="0"/><line x1="382" y1="275" x2="522" y2="275" stroke="#f2efe8" stroke-width="1"/><line x1="382" y1="374" x2="522" y2="374" stroke="#bdb8ae" stroke-width="0.5"/><rect x="394" y="282.5" width="116" height="28" fill="#f4f1ea" stroke="#c5c0b6" stroke-width="0.5"/><text x="452" y="296.5" text-anchor="middle" font-family="system-ui, -apple-system, BlinkMacSystemFont, &#39;Segoe UI&#39;, sans-serif" font-size="14" font-weight="700" fill="#1a1a1a" letter-spacing="3">Filter</text></g><g data-module="VCA" filter="url(#pf-60eca2-panel-shadow)"><rect x="602" y="131.5" width="140" height="100" fill="#e8e4dc" stroke="#cec8be" stroke-width="0.75" rx="0"/><line x1="602" y1="132" x2="742" y2="132" stroke="#f2efe8" stroke-width="1"/><line x1="602" y1="231" x2="742" y2="231" stroke="#bdb8ae" stroke-width="0.5"/><rect x="614" y="139.5" width="116" height="28" fill="#f4f1ea" stroke="#c5c0b6" stroke-width="0.5"/><text x="672" y="153.5" text-anchor="middle" font-family="system-ui, -apple-system, BlinkMacSystemFont, &#39;Segoe UI&#39;, sans-serif" font-size="14" font-weight="700" fill="#1a1a1a" letter-spacing="3">VCA</text></g></g><g class="pf-layer-params"><rect x="32" y="60" width="258" height="20" fill="#f0ede6" stroke="#d5d0c6" stroke-width="0.5"/><text x="161" y="74" text-anchor="middle" font-family="'SF Mono', 'Fira Code', Consolas, 'Courier New', monospace" font-size="10" fill="#555">CH 1: Cycle OFF, Rise + Fall matched</text><rect x="32" y="80" width="258" height="20" fill="#f0ede6" stroke="#d5d0c6" stroke-width="0.5"/><text x="161" y="94" text-anchor="middle" font-family="'SF Mono', 'Fira Code', Consolas, 'Courier New', monospace" font-size="10" fill="#555">CH 4: Cycle OFF, Rise + Fall matched</text></g><g class="pf-layer-jacks"><g data-port="maths--ch-1.trig" filter="url(#pf-60eca2-jack-shadow)"><circle cx="91" cy="240" r="8" fill="#c0bbb2" stroke="#a8a39a" stroke-width="0.75"/><circle cx="91" cy="240" r="5" fill="#8a8580"/><circle cx="91" cy="240" r="3" fill="#555555"/><circle cx="91" cy="240" r="1" fill="#333333"/></g><g data-port="maths--ch-1.eor" filter="url(#pf-60eca2-jack-shadow)"><circle cx="231" cy="240" r="8" fill="#c0bbb2" stroke="#a8a39a" stroke-width="0.75"/><circle cx="231" cy="240" r="5" fill="#8a8580"/><circle cx="231" cy="240" r="3" fill="#555555"/><circle cx="231" cy="240" r="1" fill="#333333"/></g><g data-port="maths--ch-1.out" filter="url(#pf-60eca2-jack-shadow)"><circle cx="231" cy="264" r="8" fill="#c0bbb2" stroke="#a8a39a" stroke-width="0.75"/><circle cx="231" cy="264" r="5" fill="#8a8580"/><circle cx="231" cy="264" r="3" fill="#555555"/><circle cx="231" cy="264" r="1" fill="#333333"/></g><g data-port="maths--ch-4.trig" filter="url(#pf-60eca2-jack-shadow)"><circle cx="382" cy="168.5" r="8" fill="#c0bbb2" stroke="#a8a39a" stroke-width="0.75"/><circle cx="382" cy="168.5" r="5" fill="#8a8580"/><circle cx="382" cy="168.5" r="3" fill="#555555"/><circle cx="382" cy="168.5" r="1" fill="#333333"/></g><g data-port="maths--ch-4.eoc" filter="url(#pf-60eca2-jack-shadow)"><circle cx="522" cy="168.5" r="8" fill="#c0bbb2" stroke="#a8a39a" stroke-width="0.75"/><circle cx="522" cy="168.5" r="5" fill="#8a8580"/><circle cx="522" cy="168.5" r="3" fill="#555555"/><circle cx="522" cy="168.5" r="1" fill="#333333"/></g><g data-port="maths--ch-4.out" filter="url(#pf-60eca2-jack-shadow)"><circle cx="522" cy="192.5" r="8" fill="#c0bbb2" stroke="#a8a39a" stroke-width="0.75"/><circle cx="522" cy="192.5" r="5" fill="#8a8580"/><circle cx="522" cy="192.5" r="3" fill="#555555"/><circle cx="522" cy="192.5" r="1" fill="#333333"/></g><g data-port="filter.cutoff" filter="url(#pf-60eca2-jack-shadow)"><circle cx="382" cy="314.5" r="8" fill="#c0bbb2" stroke="#a8a39a" stroke-width="0.75"/><circle cx="382" cy="314.5" r="5" fill="#8a8580"/><circle cx="382" cy="314.5" r="3" fill="#555555"/><circle cx="382" cy="314.5" r="1" fill="#333333"/></g><g data-port="vca.cv" filter="url(#pf-60eca2-jack-shadow)"><circle cx="602" cy="171.5" r="8" fill="#c0bbb2" stroke="#a8a39a" stroke-width="0.75"/><circle cx="602" cy="171.5" r="5" fill="#8a8580"/><circle cx="602" cy="171.5" r="3" fill="#555555"/><circle cx="602" cy="171.5" r="1" fill="#333333"/></g></g><g class="pf-layer-labels"><text x="77" y="243" font-family="&#39;SF Mono&#39;, &#39;Fira Code&#39;, Consolas, &#39;Courier New&#39;, monospace" font-size="9" fill="#1a1a1a" font-weight="600" text-anchor="end">Trig</text><text x="245" y="243" font-family="&#39;SF Mono&#39;, &#39;Fira Code&#39;, Consolas, &#39;Courier New&#39;, monospace" font-size="9" fill="#1a1a1a" font-weight="600" text-anchor="start">EOR</text><text x="245" y="267" font-family="&#39;SF Mono&#39;, &#39;Fira Code&#39;, Consolas, &#39;Courier New&#39;, monospace" font-size="9" fill="#1a1a1a" font-weight="600" text-anchor="start">OUT</text><text x="368" y="171.5" font-family="&#39;SF Mono&#39;, &#39;Fira Code&#39;, Consolas, &#39;Courier New&#39;, monospace" font-size="9" fill="#1a1a1a" font-weight="600" text-anchor="end">Trig</text><text x="536" y="171.5" font-family="&#39;SF Mono&#39;, &#39;Fira Code&#39;, Consolas, &#39;Courier New&#39;, monospace" font-size="9" fill="#1a1a1a" font-weight="600" text-anchor="start">EOC</text><text x="536" y="195.5" font-family="&#39;SF Mono&#39;, &#39;Fira Code&#39;, Consolas, &#39;Courier New&#39;, monospace" font-size="9" fill="#1a1a1a" font-weight="600" text-anchor="start">OUT</text><text x="368" y="317.5" font-family="&#39;SF Mono&#39;, &#39;Fira Code&#39;, Consolas, &#39;Courier New&#39;, monospace" font-size="9" fill="#1a1a1a" font-weight="600" text-anchor="end">Cutoff</text><text x="588" y="174.5" font-family="&#39;SF Mono&#39;, &#39;Fira Code&#39;, Consolas, &#39;Courier New&#39;, monospace" font-size="9" fill="#1a1a1a" font-weight="600" text-anchor="end">CV</text></g><g class="pf-layer-annotations"></g><g class="pf-layer-legend"><g transform="translate(20, 424.5)"><line x1="0" y1="0" x2="20" y2="0" stroke="#7bafd4" stroke-width="3" stroke-linecap="round"/><text x="26" y="3" font-family="&#39;SF Mono&#39;, &#39;Fira Code&#39;, Consolas, &#39;Courier New&#39;, monospace" font-size="9" fill="#666">cv</text></g><g transform="translate(90, 424.5)"><line x1="0" y1="0" x2="20" y2="0" stroke="#d4a054" stroke-width="3" stroke-linecap="round"/><text x="26" y="3" font-family="&#39;SF Mono&#39;, &#39;Fira Code&#39;, Consolas, &#39;Courier New&#39;, monospace" font-size="9" fill="#666">gate</text></g></g></svg>