<svg xmlns="http://www.w3.org/2000/svg" viewBox="-130 0 1404 412" width="100%" data-pf-min-width="1404" role="img" aria-labelledby="pf-90fb31-title pf-90fb31-desc"><title id="pf-90fb31-title">Patch diagram</title><desc id="pf-90fb31-desc">Patch diagram with 4 modules and 4 connections. Modules: CH 1, CH 4, Filter, VCA. Signals: 2 cv, 2 gate.</desc><style>@media print { .pf-panel, .pf-jack { filter: none; } }</style><defs><filter id="pf-90fb31-panel-shadow" x="-20%" y="-20%" width="140%" height="140%"><feDropShadow dx="0" dy="2" stdDeviation="3" flood-opacity="0.1"/></filter><filter id="pf-90fb31-jack-shadow" x="-20%" y="-20%" width="140%" height="140%"><feDropShadow dx="0" dy="0.5" stdDeviation="0.8" flood-opacity="0.15"/></filter><pattern id="pf-90fb31-dots" width="12" height="12" patternUnits="userSpaceOnUse"><circle cx="6" cy="6" r="0.5" fill="#555555" opacity="0.5"/></pattern></defs><g class="pf-layer-bg"><rect width="1144" height="382" fill="url(#pf-90fb31-dots)"/></g><g class="pf-layer-cables"><path d="M 302 152.5 C 382 152.5, 422 88, 502 88" stroke="#d4a054" stroke-width="3" fill="none" stroke-linecap="round" stroke-linejoin="round" data-connection="conn-0" data-signal="gate"/><path d="M 302 176.5 C 410.4 176.5, 464.6 241, 573 241" stroke="#7bafd4" stroke-width="3" fill="none" stroke-linecap="round" stroke-linejoin="round" data-connection="conn-2" data-signal="cv"/><path d="M 784 100 C 864 100, 904 88, 984 88" stroke="#7bafd4" stroke-width="3" fill="none" stroke-linecap="round" stroke-linejoin="round" data-connection="conn-3" data-signal="cv"/><path d="M 784 76 L 804 76 L 804 316 L 0 316 L 0 164.5 L 20 164.5" stroke="#d4a054" stroke-width="3" fill="none" stroke-linecap="round" stroke-linejoin="round" data-connection="conn-1" data-signal="gate"/><circle cx="302" cy="152.5" r="3.5" fill="#c49244"/><circle cx="502" cy="88" r="3.5" fill="#c49244"/><circle cx="302" cy="176.5" r="3.5" fill="#6a9ec3"/><circle cx="573" cy="241" r="3.5" fill="#6a9ec3"/><circle cx="784" cy="100" r="3.5" fill="#6a9ec3"/><circle cx="984" cy="88" r="3.5" fill="#6a9ec3"/><circle cx="784" cy="76" r="3.5" fill="#c49244"/><circle cx="20" cy="164.5" r="3.5" fill="#c49244"/></g><g class="pf-layer-panels" ><g data-module="MATHS" filter="url(#pf-90fb31-panel-shadow)"><rect x="20" y="96.5" width="282" height="126" fill="#e8e4dc" stroke="#cec8be" stroke-width="0.75" rx="0"/><line x1="20" y1="97" x2="302" y2="97" stroke="#f2efe8" stroke-width="1"/><line x1="20" y1="222" x2="302" y2="222" stroke="#bdb8ae" stroke-width="0.5"/><rect x="32" y="104.5" width="258" height="28" fill="#f4f1ea" stroke="#c5c0b6" stroke-width="0.5"/><text x="161" y="118.5" text-anchor="middle" font-family="system-ui, -apple-system, BlinkMacSystemFont, &#39;Segoe UI&#39;, sans-serif" font-size="14" font-weight="700" fill="#1a1a1a" letter-spacing="3">CH 1</text></g><g data-module="MATHS" filter="url(#pf-90fb31-panel-shadow)"><rect x="502" y="20" width="282" height="126" fill="#e8e4dc" stroke="#cec8be" stroke-width="0.75" rx="0"/><line x1="502" y1="20.5" x2="784" y2="20.5" stroke="#f2efe8" stroke-width="1"/><line x1="502" y1="145.5" x2="784" y2="145.5" stroke="#bdb8ae" stroke-width="0.5"/><rect x="514" y="28" width="258" height="28" fill="#f4f1ea" stroke="#c5c0b6" stroke-width="0.5"/><text x="643" y="42" text-anchor="middle" font-family="system-ui, -apple-system, BlinkMacSystemFont, &#39;Segoe UI&#39;, sans-serif" font-size="14" font-weight="700" fill="#1a1a1a" letter-spacing="3">CH 4</text></g><g data-module="Filter" filter="url(#pf-90fb31-panel-shadow)"><rect x="573" y="186" width="140" height="100" fill="#e8e4dc" stroke="#cec8be" stroke-width="0.75" rx="0"/><line x1="573" y1="186.5" x2="713" y2="186.5" stroke="#f2efe8" stroke-width="1"/><line x1="573" y1="285.5" x2="713" y2="285.5" stroke="#bdb8ae" stroke-width="0.5"/><rect x="585" y="194" width="116" height="28" fill="#f4f1ea" stroke="#c5c0b6" stroke-width="0.5"/><text x="643" y="208" text-anchor="middle" font-family="system-ui, -apple-system, BlinkMacSystemFont, &#39;Segoe UI&#39;, sans-serif" font-size="14" font-weight="700" fill="#1a1a1a" letter-spacing="3">Filter</text></g><g data-module="VCA" filter="url(#pf-90fb31-panel-shadow)"><rect x="984" y="33" width="140" height="100" fill="#e8e4dc" stroke="#cec8be" stroke-width="0.75" rx="0"/><line x1="984" y1="33.5" x2="1124" y2="33.5" stroke="#f2efe8" stroke-width="1"/><line x1="984" y1="132.5" x2="1124" y2="132.5" stroke="#bdb8ae" stroke-width="0.5"/><rect x="996" y="41" width="116" height="28" fill="#f4f1ea" stroke="#c5c0b6" stroke-width="0.5"/><text x="1054" y="55" text-anchor="middle" font-family="system-ui, -apple-system, BlinkMacSystemFont, &#39;Segoe UI&#39;, sans-serif" font-size="14" font-weight="700" fill="#1a1a1a" letter-spacing="3">VCA</text></g></g><g class="pf-layer-params"><rect x="32" y="136.5" width="258" height="20" fill="#f0ede6" stroke="#d5d0c6" stroke-width="0.5"/><text x="161" y="150.5" text-anchor="middle" font-family="'SF Mono', 'Fira Code', Consolas, 'Courier New', monospace" font-size="10" fill="#555555">Cycle OFF, Rise + Fall matched</text><rect x="514" y="60" width="258" height="20" fill="#f0ede6" stroke="#d5d0c6" stroke-width="0.5"/><text x="643" y="74" text-anchor="middle" font-family="'SF Mono', 'Fira Code', Consolas, 'Courier New', monospace" font-size="10" fill="#555555">Cycle OFF, Rise + Fall matched</text></g><g class="pf-layer-jacks"><g data-port="maths--ch-1.trig" filter="url(#pf-90fb31-jack-shadow)"><circle cx="20" cy="164.5" r="8" fill="#c0bbb2" stroke="#a8a39a" stroke-width="0.75"/><circle cx="20" cy="164.5" r="5" fill="#8a8580"/><circle cx="20" cy="164.5" r="3" fill="#555555"/><circle cx="20" cy="164.5" r="1" fill="#333333"/></g><g data-port="maths--ch-1.eor" filter="url(#pf-90fb31-jack-shadow)"><circle cx="302" cy="152.5" r="8" fill="#c0bbb2" stroke="#a8a39a" stroke-width="0.75"/><circle cx="302" cy="152.5" r="5" fill="#8a8580"/><circle cx="302" cy="152.5" r="3" fill="#555555"/><circle cx="302" cy="152.5" r="1" fill="#333333"/></g><g data-port="maths--ch-1.out" filter="url(#pf-90fb31-jack-shadow)"><circle cx="302" cy="176.5" r="8" fill="#c0bbb2" stroke="#a8a39a" stroke-width="0.75"/><circle cx="302" cy="176.5" r="5" fill="#8a8580"/><circle cx="302" cy="176.5" r="3" fill="#555555"/><circle cx="302" cy="176.5" r="1" fill="#333333"/></g><g data-port="maths--ch-4.trig" filter="url(#pf-90fb31-jack-shadow)"><circle cx="502" cy="88" r="8" fill="#c0bbb2" stroke="#a8a39a" stroke-width="0.75"/><circle cx="502" cy="88" r="5" fill="#8a8580"/><circle cx="502" cy="88" r="3" fill="#555555"/><circle cx="502" cy="88" r="1" fill="#333333"/></g><g data-port="maths--ch-4.eoc" filter="url(#pf-90fb31-jack-shadow)"><circle cx="784" cy="76" r="8" fill="#c0bbb2" stroke="#a8a39a" stroke-width="0.75"/><circle cx="784" cy="76" r="5" fill="#8a8580"/><circle cx="784" cy="76" r="3" fill="#555555"/><circle cx="784" cy="76" r="1" fill="#333333"/></g><g data-port="maths--ch-4.out" filter="url(#pf-90fb31-jack-shadow)"><circle cx="784" cy="100" r="8" fill="#c0bbb2" stroke="#a8a39a" stroke-width="0.75"/><circle cx="784" cy="100" r="5" fill="#8a8580"/><circle cx="784" cy="100" r="3" fill="#555555"/><circle cx="784" cy="100" r="1" fill="#333333"/></g><g data-port="filter.cutoff" filter="url(#pf-90fb31-jack-shadow)"><circle cx="573" cy="241" r="8" fill="#c0bbb2" stroke="#a8a39a" stroke-width="0.75"/><circle cx="573" cy="241" r="5" fill="#8a8580"/><circle cx="573" cy="241" r="3" fill="#555555"/><circle cx="573" cy="241" r="1" fill="#333333"/></g><g data-port="vca.cv" filter="url(#pf-90fb31-jack-shadow)"><circle cx="984" cy="88" r="8" fill="#c0bbb2" stroke="#a8a39a" stroke-width="0.75"/><circle cx="984" cy="88" r="5" fill="#8a8580"/><circle cx="984" cy="88" r="3" fill="#555555"/><circle cx="984" cy="88" r="1" fill="#333333"/></g></g><g class="pf-layer-labels"><text x="6" y="167.5" font-family="&#39;SF Mono&#39;, &#39;Fira Code&#39;, Consolas, &#39;Courier New&#39;, monospace" font-size="9" fill="#e8e4dc" font-weight="600" text-anchor="end">Trig</text><rect class="pf-port-pill" x="-58" y="159" width="32" height="11" rx="0" fill="#d4a054" data-signal="gate"/><text class="pf-port-pill-text" x="-42" y="167.5" text-anchor="middle" font-family="&#39;SF Mono&#39;, &#39;Fira Code&#39;, Consolas, &#39;Courier New&#39;, monospace" font-size="8" fill="#ffffff" font-weight="600">gate</text><text x="316" y="155.5" font-family="&#39;SF Mono&#39;, &#39;Fira Code&#39;, Consolas, &#39;Courier New&#39;, monospace" font-size="9" fill="#e8e4dc" font-weight="600" text-anchor="start">EOR</text><rect class="pf-port-pill" x="341.5" y="147" width="32" height="11" rx="0" fill="#d4a054" data-signal="gate"/><text class="pf-port-pill-text" x="357.5" y="155.5" text-anchor="middle" font-family="&#39;SF Mono&#39;, &#39;Fira Code&#39;, Consolas, &#39;Courier New&#39;, monospace" font-size="8" fill="#ffffff" font-weight="600">gate</text><text x="316" y="179.5" font-family="&#39;SF Mono&#39;, &#39;Fira Code&#39;, Consolas, &#39;Courier New&#39;, monospace" font-size="9" fill="#e8e4dc" font-weight="600" text-anchor="start">OUT</text><rect class="pf-port-pill" x="341.5" y="171" width="19" height="11" rx="0" fill="#7bafd4" data-signal="cv"/><text class="pf-port-pill-text" x="351" y="179.5" text-anchor="middle" font-family="&#39;SF Mono&#39;, &#39;Fira Code&#39;, Consolas, &#39;Courier New&#39;, monospace" font-size="8" fill="#ffffff" font-weight="600">cv</text><text x="488" y="91" font-family="&#39;SF Mono&#39;, &#39;Fira Code&#39;, Consolas, &#39;Courier New&#39;, monospace" font-size="9" fill="#e8e4dc" font-weight="600" text-anchor="end">Trig</text><rect class="pf-port-pill" x="424" y="82.5" width="32" height="11" rx="0" fill="#d4a054" data-signal="gate"/><text class="pf-port-pill-text" x="440" y="91" text-anchor="middle" font-family="&#39;SF Mono&#39;, &#39;Fira Code&#39;, Consolas, &#39;Courier New&#39;, monospace" font-size="8" fill="#ffffff" font-weight="600">gate</text><text x="798" y="79" font-family="&#39;SF Mono&#39;, &#39;Fira Code&#39;, Consolas, &#39;Courier New&#39;, monospace" font-size="9" fill="#e8e4dc" font-weight="600" text-anchor="start">EOC</text><rect class="pf-port-pill" x="823.5" y="70.5" width="32" height="11" rx="0" fill="#d4a054" data-signal="gate"/><text class="pf-port-pill-text" x="839.5" y="79" text-anchor="middle" font-family="&#39;SF Mono&#39;, &#39;Fira Code&#39;, Consolas, &#39;Courier New&#39;, monospace" font-size="8" fill="#ffffff" font-weight="600">gate</text><text x="798" y="103" font-family="&#39;SF Mono&#39;, &#39;Fira Code&#39;, Consolas, &#39;Courier New&#39;, monospace" font-size="9" fill="#e8e4dc" font-weight="600" text-anchor="start">OUT</text><rect class="pf-port-pill" x="823.5" y="94.5" width="19" height="11" rx="0" fill="#7bafd4" data-signal="cv"/><text class="pf-port-pill-text" x="833" y="103" text-anchor="middle" font-family="&#39;SF Mono&#39;, &#39;Fira Code&#39;, Consolas, &#39;Courier New&#39;, monospace" font-size="8" fill="#ffffff" font-weight="600">cv</text><text x="559" y="244" font-family="&#39;SF Mono&#39;, &#39;Fira Code&#39;, Consolas, &#39;Courier New&#39;, monospace" font-size="9" fill="#e8e4dc" font-weight="600" text-anchor="end">Cutoff</text><rect class="pf-port-pill" x="495" y="235.5" width="19" height="11" rx="0" fill="#7bafd4" data-signal="cv"/><text class="pf-port-pill-text" x="504.5" y="244" text-anchor="middle" font-family="&#39;SF Mono&#39;, &#39;Fira Code&#39;, Consolas, &#39;Courier New&#39;, monospace" font-size="8" fill="#ffffff" font-weight="600">cv</text><text x="970" y="91" font-family="&#39;SF Mono&#39;, &#39;Fira Code&#39;, Consolas, &#39;Courier New&#39;, monospace" font-size="9" fill="#e8e4dc" font-weight="600" text-anchor="end">CV</text><rect class="pf-port-pill" x="932" y="82.5" width="19" height="11" rx="0" fill="#7bafd4" data-signal="cv"/><text class="pf-port-pill-text" x="941.5" y="91" text-anchor="middle" font-family="&#39;SF Mono&#39;, &#39;Fira Code&#39;, Consolas, &#39;Courier New&#39;, monospace" font-size="8" fill="#ffffff" font-weight="600">cv</text></g><g class="pf-layer-annotations"></g><g class="pf-layer-legend"><g transform="translate(1004, 362)"><line x1="0" y1="0" x2="20" y2="0" stroke="#7bafd4" stroke-width="3" stroke-linecap="round"/><text x="26" y="3" font-family="&#39;SF Mono&#39;, &#39;Fira Code&#39;, Consolas, &#39;Courier New&#39;, monospace" font-size="9" fill="#d0d0d0">cv</text></g><g transform="translate(1074, 362)"><line x1="0" y1="0" x2="20" y2="0" stroke="#d4a054" stroke-width="3" stroke-linecap="round"/><text x="26" y="3" font-family="&#39;SF Mono&#39;, &#39;Fira Code&#39;, Consolas, &#39;Courier New&#39;, monospace" font-size="9" fill="#d0d0d0">gate</text></g></g></svg>