<svg xmlns="http://www.w3.org/2000/svg" viewBox="-130 -40 1264 462" width="100%" data-pf-min-width="1264" role="img" aria-labelledby="pf-96ec8e-title pf-96ec8e-desc"><title id="pf-96ec8e-title">Patch diagram</title><desc id="pf-96ec8e-desc">Patch diagram with 4 modules and 4 connections. Modules: CH 1, CH 4, Filter, VCA. Signals: 2 cv, 2 gate.</desc><style>@media print { .pf-panel, .pf-jack { filter: none; } }</style><defs><filter id="pf-96ec8e-panel-shadow" x="-20%" y="-20%" width="140%" height="140%"><feDropShadow dx="0" dy="2" stdDeviation="3" flood-opacity="0.1"/></filter><filter id="pf-96ec8e-jack-shadow" x="-20%" y="-20%" width="140%" height="140%"><feDropShadow dx="0" dy="0.5" stdDeviation="0.8" flood-opacity="0.15"/></filter><pattern id="pf-96ec8e-dots" width="12" height="12" patternUnits="userSpaceOnUse"><circle cx="6" cy="6" r="0.5" fill="#aaaaaa" opacity="0.3"/></pattern></defs><g class="pf-layer-bg"><rect width="1004" height="382" fill="url(#pf-96ec8e-dots)"/></g><g class="pf-layer-cables"><path d="M 312 152.5 C 360 152.5, 384 88, 432 88" stroke="#d4a054" stroke-width="3" fill="none" stroke-linecap="round" stroke-linejoin="round" data-connection="conn-0" data-signal="gate"/><path d="M 312 176.5 C 390.4 176.5, 429.6 241, 508 241" stroke="#7bafd4" stroke-width="3" fill="none" stroke-linecap="round" stroke-linejoin="round" data-connection="conn-2" data-signal="cv"/><path d="M 724 100 C 772 100, 796 88, 844 88" stroke="#7bafd4" stroke-width="3" fill="none" stroke-linecap="round" stroke-linejoin="round" data-connection="conn-3" data-signal="cv"/><path d="M 724 76 L 744 76 L 744 316 L 0 316 L 0 164.5 L 20 164.5" stroke="#d4a054" stroke-width="3" fill="none" stroke-linecap="round" stroke-linejoin="round" data-connection="conn-1" data-signal="gate"/><circle cx="312" cy="152.5" r="3.5" fill="#c49244"/><circle cx="432" cy="88" r="3.5" fill="#c49244"/><circle cx="312" cy="176.5" r="3.5" fill="#6a9ec3"/><circle cx="508" cy="241" r="3.5" fill="#6a9ec3"/><circle cx="724" cy="100" r="3.5" fill="#6a9ec3"/><circle cx="844" cy="88" r="3.5" fill="#6a9ec3"/><circle cx="724" cy="76" r="3.5" fill="#c49244"/><circle cx="20" cy="164.5" r="3.5" fill="#c49244"/></g><g class="pf-layer-panels" ><g data-module="MATHS" filter="url(#pf-96ec8e-panel-shadow)"><rect x="20" y="96.5" width="292" height="126" fill="#e8e4dc" stroke="#cec8be" stroke-width="0.75" rx="0"/><line x1="20" y1="97" x2="312" y2="97" stroke="#f2efe8" stroke-width="1"/><line x1="20" y1="222" x2="312" y2="222" stroke="#bdb8ae" stroke-width="0.5"/><rect x="32" y="104.5" width="268" height="28" fill="#f4f1ea" stroke="#c5c0b6" stroke-width="0.5"/><text x="166" y="118.5" text-anchor="middle" font-family="system-ui, -apple-system, BlinkMacSystemFont, &#39;Segoe UI&#39;, sans-serif" font-size="14" font-weight="700" fill="#1a1a1a" letter-spacing="3">CH 1</text></g><g data-module="MATHS" filter="url(#pf-96ec8e-panel-shadow)"><rect x="432" y="20" width="292" height="126" fill="#e8e4dc" stroke="#cec8be" stroke-width="0.75" rx="0"/><line x1="432" y1="20.5" x2="724" y2="20.5" stroke="#f2efe8" stroke-width="1"/><line x1="432" y1="145.5" x2="724" y2="145.5" stroke="#bdb8ae" stroke-width="0.5"/><rect x="444" y="28" width="268" height="28" fill="#f4f1ea" stroke="#c5c0b6" stroke-width="0.5"/><text x="578" y="42" text-anchor="middle" font-family="system-ui, -apple-system, BlinkMacSystemFont, &#39;Segoe UI&#39;, sans-serif" font-size="14" font-weight="700" fill="#1a1a1a" letter-spacing="3">CH 4</text></g><g data-module="Filter" filter="url(#pf-96ec8e-panel-shadow)"><rect x="508" y="186" width="140" height="100" fill="#e8e4dc" stroke="#cec8be" stroke-width="0.75" rx="0"/><line x1="508" y1="186.5" x2="648" y2="186.5" stroke="#f2efe8" stroke-width="1"/><line x1="508" y1="285.5" x2="648" y2="285.5" stroke="#bdb8ae" stroke-width="0.5"/><rect x="520" y="194" width="116" height="28" fill="#f4f1ea" stroke="#c5c0b6" stroke-width="0.5"/><text x="578" y="208" text-anchor="middle" font-family="system-ui, -apple-system, BlinkMacSystemFont, &#39;Segoe UI&#39;, sans-serif" font-size="14" font-weight="700" fill="#1a1a1a" letter-spacing="3">Filter</text></g><g data-module="VCA" filter="url(#pf-96ec8e-panel-shadow)"><rect x="844" y="33" width="140" height="100" fill="#e8e4dc" stroke="#cec8be" stroke-width="0.75" rx="0"/><line x1="844" y1="33.5" x2="984" y2="33.5" stroke="#f2efe8" stroke-width="1"/><line x1="844" y1="132.5" x2="984" y2="132.5" stroke="#bdb8ae" stroke-width="0.5"/><rect x="856" y="41" width="116" height="28" fill="#f4f1ea" stroke="#c5c0b6" stroke-width="0.5"/><text x="914" y="55" text-anchor="middle" font-family="system-ui, -apple-system, BlinkMacSystemFont, &#39;Segoe UI&#39;, sans-serif" font-size="14" font-weight="700" fill="#1a1a1a" letter-spacing="3">VCA</text></g></g><g class="pf-layer-params"><rect x="32" y="136.5" width="268" height="20" fill="#f0ede6" stroke="#d5d0c6" stroke-width="0.5"/><text x="166" y="150.5" text-anchor="middle" font-family="'SF Mono', 'Fira Code', Consolas, 'Courier New', monospace" font-size="10" fill="#555555">Cycle OFF, Rise + Fall matched</text><rect x="444" y="60" width="268" height="20" fill="#f0ede6" stroke="#d5d0c6" stroke-width="0.5"/><text x="578" y="74" text-anchor="middle" font-family="'SF Mono', 'Fira Code', Consolas, 'Courier New', monospace" font-size="10" fill="#555555">Cycle OFF, Rise + Fall matched</text></g><g class="pf-layer-jacks"><g data-port="maths--ch-1.trig" filter="url(#pf-96ec8e-jack-shadow)"><circle cx="20" cy="164.5" r="8" fill="#c0bbb2" stroke="#a8a39a" stroke-width="0.75"/><circle cx="20" cy="164.5" r="5" fill="#8a8580"/><circle cx="20" cy="164.5" r="3" fill="#555555"/><circle cx="20" cy="164.5" r="1" fill="#333333"/></g><g data-port="maths--ch-1.eor" filter="url(#pf-96ec8e-jack-shadow)"><circle cx="312" cy="152.5" r="8" fill="#c0bbb2" stroke="#a8a39a" stroke-width="0.75"/><circle cx="312" cy="152.5" r="5" fill="#8a8580"/><circle cx="312" cy="152.5" r="3" fill="#555555"/><circle cx="312" cy="152.5" r="1" fill="#333333"/></g><g data-port="maths--ch-1.out" filter="url(#pf-96ec8e-jack-shadow)"><circle cx="312" cy="176.5" r="8" fill="#c0bbb2" stroke="#a8a39a" stroke-width="0.75"/><circle cx="312" cy="176.5" r="5" fill="#8a8580"/><circle cx="312" cy="176.5" r="3" fill="#555555"/><circle cx="312" cy="176.5" r="1" fill="#333333"/></g><g data-port="maths--ch-4.trig" filter="url(#pf-96ec8e-jack-shadow)"><circle cx="432" cy="88" r="8" fill="#c0bbb2" stroke="#a8a39a" stroke-width="0.75"/><circle cx="432" cy="88" r="5" fill="#8a8580"/><circle cx="432" cy="88" r="3" fill="#555555"/><circle cx="432" cy="88" r="1" fill="#333333"/></g><g data-port="maths--ch-4.eoc" filter="url(#pf-96ec8e-jack-shadow)"><circle cx="724" cy="76" r="8" fill="#c0bbb2" stroke="#a8a39a" stroke-width="0.75"/><circle cx="724" cy="76" r="5" fill="#8a8580"/><circle cx="724" cy="76" r="3" fill="#555555"/><circle cx="724" cy="76" r="1" fill="#333333"/></g><g data-port="maths--ch-4.out" filter="url(#pf-96ec8e-jack-shadow)"><circle cx="724" cy="100" r="8" fill="#c0bbb2" stroke="#a8a39a" stroke-width="0.75"/><circle cx="724" cy="100" r="5" fill="#8a8580"/><circle cx="724" cy="100" r="3" fill="#555555"/><circle cx="724" cy="100" r="1" fill="#333333"/></g><g data-port="filter.cutoff" filter="url(#pf-96ec8e-jack-shadow)"><circle cx="508" cy="241" r="8" fill="#c0bbb2" stroke="#a8a39a" stroke-width="0.75"/><circle cx="508" cy="241" r="5" fill="#8a8580"/><circle cx="508" cy="241" r="3" fill="#555555"/><circle cx="508" cy="241" r="1" fill="#333333"/></g><g data-port="vca.cv" filter="url(#pf-96ec8e-jack-shadow)"><circle cx="844" cy="88" r="8" fill="#c0bbb2" stroke="#a8a39a" stroke-width="0.75"/><circle cx="844" cy="88" r="5" fill="#8a8580"/><circle cx="844" cy="88" r="3" fill="#555555"/><circle cx="844" cy="88" r="1" fill="#333333"/></g></g><g class="pf-layer-labels"><text x="14" y="196.5" font-family="&#39;SF Mono&#39;, &#39;Fira Code&#39;, Consolas, &#39;Courier New&#39;, monospace" font-size="9" fill="#1a1a1a" font-weight="600" text-anchor="end" dominant-baseline="central">Trig</text><rect class="pf-port-pill" x="-18" y="179" width="32" height="11" rx="0" fill="#d4a054" data-signal="gate"/><text class="pf-port-pill-text" x="-2" y="184.5" text-anchor="middle" dominant-baseline="central" font-family="&#39;SF Mono&#39;, &#39;Fira Code&#39;, Consolas, &#39;Courier New&#39;, monospace" font-size="8" fill="#ffffff" font-weight="600">gate</text><text x="318" y="184.5" font-family="&#39;SF Mono&#39;, &#39;Fira Code&#39;, Consolas, &#39;Courier New&#39;, monospace" font-size="9" fill="#1a1a1a" font-weight="600" text-anchor="start" dominant-baseline="central">EOR</text><rect class="pf-port-pill" x="318" y="167" width="32" height="11" rx="0" fill="#d4a054" data-signal="gate"/><text class="pf-port-pill-text" x="334" y="172.5" text-anchor="middle" dominant-baseline="central" font-family="&#39;SF Mono&#39;, &#39;Fira Code&#39;, Consolas, &#39;Courier New&#39;, monospace" font-size="8" fill="#ffffff" font-weight="600">gate</text><text x="318" y="144.5" font-family="&#39;SF Mono&#39;, &#39;Fira Code&#39;, Consolas, &#39;Courier New&#39;, monospace" font-size="9" fill="#1a1a1a" font-weight="600" text-anchor="start" dominant-baseline="central">OUT</text><rect class="pf-port-pill" x="318" y="151" width="19" height="11" rx="0" fill="#7bafd4" data-signal="cv"/><text class="pf-port-pill-text" x="327.5" y="156.5" text-anchor="middle" dominant-baseline="central" font-family="&#39;SF Mono&#39;, &#39;Fira Code&#39;, Consolas, &#39;Courier New&#39;, monospace" font-size="8" fill="#ffffff" font-weight="600">cv</text><text x="426" y="120" font-family="&#39;SF Mono&#39;, &#39;Fira Code&#39;, Consolas, &#39;Courier New&#39;, monospace" font-size="9" fill="#1a1a1a" font-weight="600" text-anchor="end" dominant-baseline="central">Trig</text><rect class="pf-port-pill" x="394" y="102.5" width="32" height="11" rx="0" fill="#d4a054" data-signal="gate"/><text class="pf-port-pill-text" x="410" y="108" text-anchor="middle" dominant-baseline="central" font-family="&#39;SF Mono&#39;, &#39;Fira Code&#39;, Consolas, &#39;Courier New&#39;, monospace" font-size="8" fill="#ffffff" font-weight="600">gate</text><text x="730" y="44" font-family="&#39;SF Mono&#39;, &#39;Fira Code&#39;, Consolas, &#39;Courier New&#39;, monospace" font-size="9" fill="#1a1a1a" font-weight="600" text-anchor="start" dominant-baseline="central">EOC</text><rect class="pf-port-pill" x="730" y="50.5" width="32" height="11" rx="0" fill="#d4a054" data-signal="gate"/><text class="pf-port-pill-text" x="746" y="56" text-anchor="middle" dominant-baseline="central" font-family="&#39;SF Mono&#39;, &#39;Fira Code&#39;, Consolas, &#39;Courier New&#39;, monospace" font-size="8" fill="#ffffff" font-weight="600">gate</text><text x="730" y="68" font-family="&#39;SF Mono&#39;, &#39;Fira Code&#39;, Consolas, &#39;Courier New&#39;, monospace" font-size="9" fill="#1a1a1a" font-weight="600" text-anchor="start" dominant-baseline="central">OUT</text><rect class="pf-port-pill" x="730" y="74.5" width="19" height="11" rx="0" fill="#7bafd4" data-signal="cv"/><text class="pf-port-pill-text" x="739.5" y="80" text-anchor="middle" dominant-baseline="central" font-family="&#39;SF Mono&#39;, &#39;Fira Code&#39;, Consolas, &#39;Courier New&#39;, monospace" font-size="8" fill="#ffffff" font-weight="600">cv</text><text x="502" y="209" font-family="&#39;SF Mono&#39;, &#39;Fira Code&#39;, Consolas, &#39;Courier New&#39;, monospace" font-size="9" fill="#1a1a1a" font-weight="600" text-anchor="end" dominant-baseline="central">Cutoff</text><rect class="pf-port-pill" x="483" y="215.5" width="19" height="11" rx="0" fill="#7bafd4" data-signal="cv"/><text class="pf-port-pill-text" x="492.5" y="221" text-anchor="middle" dominant-baseline="central" font-family="&#39;SF Mono&#39;, &#39;Fira Code&#39;, Consolas, &#39;Courier New&#39;, monospace" font-size="8" fill="#ffffff" font-weight="600">cv</text><text x="838" y="56" font-family="&#39;SF Mono&#39;, &#39;Fira Code&#39;, Consolas, &#39;Courier New&#39;, monospace" font-size="9" fill="#1a1a1a" font-weight="600" text-anchor="end" dominant-baseline="central">CV</text><rect class="pf-port-pill" x="819" y="62.5" width="19" height="11" rx="0" fill="#7bafd4" data-signal="cv"/><text class="pf-port-pill-text" x="828.5" y="68" text-anchor="middle" dominant-baseline="central" font-family="&#39;SF Mono&#39;, &#39;Fira Code&#39;, Consolas, &#39;Courier New&#39;, monospace" font-size="8" fill="#ffffff" font-weight="600">cv</text></g><g class="pf-layer-annotations"></g><g class="pf-layer-legend"><g transform="translate(864, 402)"><line x1="0" y1="0" x2="20" y2="0" stroke="#7bafd4" stroke-width="3" stroke-linecap="round"/><text x="26" y="3" font-family="&#39;SF Mono&#39;, &#39;Fira Code&#39;, Consolas, &#39;Courier New&#39;, monospace" font-size="9" fill="#4a4a4a">cv</text></g><g transform="translate(934, 402)"><line x1="0" y1="0" x2="20" y2="0" stroke="#d4a054" stroke-width="3" stroke-linecap="round"/><text x="26" y="3" font-family="&#39;SF Mono&#39;, &#39;Fira Code&#39;, Consolas, &#39;Courier New&#39;, monospace" font-size="9" fill="#4a4a4a">gate</text></g></g></svg>