<svg xmlns="http://www.w3.org/2000/svg" viewBox="-130 -40 1244 462" width="100%" data-pf-min-width="1244" role="img" aria-labelledby="pf-e690b5-title pf-e690b5-desc"><title id="pf-e690b5-title">Patch diagram</title><desc id="pf-e690b5-desc">Patch diagram with 4 modules and 4 connections. Modules: CH 1, CH 4, Filter, VCA. Signals: 2 cv, 2 gate.</desc><style>@media print { .pf-panel, .pf-jack { filter: none; } }</style><defs><filter id="pf-e690b5-panel-shadow" x="-20%" y="-20%" width="140%" height="140%"><feDropShadow dx="0" dy="2" stdDeviation="3" flood-opacity="0.1"/></filter><filter id="pf-e690b5-jack-shadow" x="-20%" y="-20%" width="140%" height="140%"><feDropShadow dx="0" dy="0.5" stdDeviation="0.8" flood-opacity="0.15"/></filter><pattern id="pf-e690b5-dots" width="12" height="12" patternUnits="userSpaceOnUse"><circle cx="6" cy="6" r="0.5" fill="#555555" opacity="0.5"/></pattern></defs><g class="pf-layer-bg"><rect width="984" height="382" fill="url(#pf-e690b5-dots)"/></g><g class="pf-layer-cables"><path d="M 302 152.5 C 350 152.5, 374 88, 422 88" stroke="#d4a054" stroke-width="3" fill="none" stroke-linecap="round" stroke-linejoin="round" data-connection="conn-0" data-signal="gate"/><path d="M 302 176.5 C 378.4 176.5, 416.6 241, 493 241" stroke="#7bafd4" stroke-width="3" fill="none" stroke-linecap="round" stroke-linejoin="round" data-connection="conn-2" data-signal="cv"/><path d="M 704 100 C 752 100, 776 88, 824 88" stroke="#7bafd4" stroke-width="3" fill="none" stroke-linecap="round" stroke-linejoin="round" data-connection="conn-3" data-signal="cv"/><path d="M 704 76 L 724 76 L 724 316 L 0 316 L 0 164.5 L 20 164.5" stroke="#d4a054" stroke-width="3" fill="none" stroke-linecap="round" stroke-linejoin="round" data-connection="conn-1" data-signal="gate"/><circle cx="302" cy="152.5" r="3.5" fill="#c49244"/><circle cx="422" cy="88" r="3.5" fill="#c49244"/><circle cx="302" cy="176.5" r="3.5" fill="#6a9ec3"/><circle cx="493" cy="241" r="3.5" fill="#6a9ec3"/><circle cx="704" cy="100" r="3.5" fill="#6a9ec3"/><circle cx="824" cy="88" r="3.5" fill="#6a9ec3"/><circle cx="704" cy="76" r="3.5" fill="#c49244"/><circle cx="20" cy="164.5" r="3.5" fill="#c49244"/></g><g class="pf-layer-panels" ><g data-module="MATHS" filter="url(#pf-e690b5-panel-shadow)"><rect x="20" y="96.5" width="282" height="126" fill="#e8e4dc" stroke="#cec8be" stroke-width="0.75" rx="0"/><line x1="20" y1="97" x2="302" y2="97" stroke="#f2efe8" stroke-width="1"/><line x1="20" y1="222" x2="302" y2="222" stroke="#bdb8ae" stroke-width="0.5"/><rect x="32" y="104.5" width="258" height="28" fill="#f4f1ea" stroke="#c5c0b6" stroke-width="0.5"/><text x="161" y="118.5" text-anchor="middle" font-family="system-ui, -apple-system, BlinkMacSystemFont, &#39;Segoe UI&#39;, sans-serif" font-size="14" font-weight="700" fill="#1a1a1a" letter-spacing="3">CH 1</text></g><g data-module="MATHS" filter="url(#pf-e690b5-panel-shadow)"><rect x="422" y="20" width="282" height="126" fill="#e8e4dc" stroke="#cec8be" stroke-width="0.75" rx="0"/><line x1="422" y1="20.5" x2="704" y2="20.5" stroke="#f2efe8" stroke-width="1"/><line x1="422" y1="145.5" x2="704" y2="145.5" stroke="#bdb8ae" stroke-width="0.5"/><rect x="434" y="28" width="258" height="28" fill="#f4f1ea" stroke="#c5c0b6" stroke-width="0.5"/><text x="563" y="42" text-anchor="middle" font-family="system-ui, -apple-system, BlinkMacSystemFont, &#39;Segoe UI&#39;, sans-serif" font-size="14" font-weight="700" fill="#1a1a1a" letter-spacing="3">CH 4</text></g><g data-module="Filter" filter="url(#pf-e690b5-panel-shadow)"><rect x="493" y="186" width="140" height="100" fill="#e8e4dc" stroke="#cec8be" stroke-width="0.75" rx="0"/><line x1="493" y1="186.5" x2="633" y2="186.5" stroke="#f2efe8" stroke-width="1"/><line x1="493" y1="285.5" x2="633" y2="285.5" stroke="#bdb8ae" stroke-width="0.5"/><rect x="505" y="194" width="116" height="28" fill="#f4f1ea" stroke="#c5c0b6" stroke-width="0.5"/><text x="563" y="208" text-anchor="middle" font-family="system-ui, -apple-system, BlinkMacSystemFont, &#39;Segoe UI&#39;, sans-serif" font-size="14" font-weight="700" fill="#1a1a1a" letter-spacing="3">Filter</text></g><g data-module="VCA" filter="url(#pf-e690b5-panel-shadow)"><rect x="824" y="33" width="140" height="100" fill="#e8e4dc" stroke="#cec8be" stroke-width="0.75" rx="0"/><line x1="824" y1="33.5" x2="964" y2="33.5" stroke="#f2efe8" stroke-width="1"/><line x1="824" y1="132.5" x2="964" y2="132.5" stroke="#bdb8ae" stroke-width="0.5"/><rect x="836" y="41" width="116" height="28" fill="#f4f1ea" stroke="#c5c0b6" stroke-width="0.5"/><text x="894" y="55" text-anchor="middle" font-family="system-ui, -apple-system, BlinkMacSystemFont, &#39;Segoe UI&#39;, sans-serif" font-size="14" font-weight="700" fill="#1a1a1a" letter-spacing="3">VCA</text></g></g><g class="pf-layer-params"><rect x="32" y="136.5" width="258" height="20" fill="#f0ede6" stroke="#d5d0c6" stroke-width="0.5"/><text x="161" y="150.5" text-anchor="middle" font-family="'SF Mono', 'Fira Code', Consolas, 'Courier New', monospace" font-size="10" fill="#555555">Cycle OFF, Rise + Fall matched</text><rect x="434" y="60" width="258" height="20" fill="#f0ede6" stroke="#d5d0c6" stroke-width="0.5"/><text x="563" y="74" text-anchor="middle" font-family="'SF Mono', 'Fira Code', Consolas, 'Courier New', monospace" font-size="10" fill="#555555">Cycle OFF, Rise + Fall matched</text></g><g class="pf-layer-jacks"><g data-port="maths--ch-1.trig" filter="url(#pf-e690b5-jack-shadow)"><circle cx="20" cy="164.5" r="8" fill="#c0bbb2" stroke="#a8a39a" stroke-width="0.75"/><circle cx="20" cy="164.5" r="5" fill="#8a8580"/><circle cx="20" cy="164.5" r="3" fill="#555555"/><circle cx="20" cy="164.5" r="1" fill="#333333"/></g><g data-port="maths--ch-1.eor" filter="url(#pf-e690b5-jack-shadow)"><circle cx="302" cy="152.5" r="8" fill="#c0bbb2" stroke="#a8a39a" stroke-width="0.75"/><circle cx="302" cy="152.5" r="5" fill="#8a8580"/><circle cx="302" cy="152.5" r="3" fill="#555555"/><circle cx="302" cy="152.5" r="1" fill="#333333"/></g><g data-port="maths--ch-1.out" filter="url(#pf-e690b5-jack-shadow)"><circle cx="302" cy="176.5" r="8" fill="#c0bbb2" stroke="#a8a39a" stroke-width="0.75"/><circle cx="302" cy="176.5" r="5" fill="#8a8580"/><circle cx="302" cy="176.5" r="3" fill="#555555"/><circle cx="302" cy="176.5" r="1" fill="#333333"/></g><g data-port="maths--ch-4.trig" filter="url(#pf-e690b5-jack-shadow)"><circle cx="422" cy="88" r="8" fill="#c0bbb2" stroke="#a8a39a" stroke-width="0.75"/><circle cx="422" cy="88" r="5" fill="#8a8580"/><circle cx="422" cy="88" r="3" fill="#555555"/><circle cx="422" cy="88" r="1" fill="#333333"/></g><g data-port="maths--ch-4.eoc" filter="url(#pf-e690b5-jack-shadow)"><circle cx="704" cy="76" r="8" fill="#c0bbb2" stroke="#a8a39a" stroke-width="0.75"/><circle cx="704" cy="76" r="5" fill="#8a8580"/><circle cx="704" cy="76" r="3" fill="#555555"/><circle cx="704" cy="76" r="1" fill="#333333"/></g><g data-port="maths--ch-4.out" filter="url(#pf-e690b5-jack-shadow)"><circle cx="704" cy="100" r="8" fill="#c0bbb2" stroke="#a8a39a" stroke-width="0.75"/><circle cx="704" cy="100" r="5" fill="#8a8580"/><circle cx="704" cy="100" r="3" fill="#555555"/><circle cx="704" cy="100" r="1" fill="#333333"/></g><g data-port="filter.cutoff" filter="url(#pf-e690b5-jack-shadow)"><circle cx="493" cy="241" r="8" fill="#c0bbb2" stroke="#a8a39a" stroke-width="0.75"/><circle cx="493" cy="241" r="5" fill="#8a8580"/><circle cx="493" cy="241" r="3" fill="#555555"/><circle cx="493" cy="241" r="1" fill="#333333"/></g><g data-port="vca.cv" filter="url(#pf-e690b5-jack-shadow)"><circle cx="824" cy="88" r="8" fill="#c0bbb2" stroke="#a8a39a" stroke-width="0.75"/><circle cx="824" cy="88" r="5" fill="#8a8580"/><circle cx="824" cy="88" r="3" fill="#555555"/><circle cx="824" cy="88" r="1" fill="#333333"/></g></g><g class="pf-layer-labels"><text x="20" y="196.5" font-family="&#39;SF Mono&#39;, &#39;Fira Code&#39;, Consolas, &#39;Courier New&#39;, monospace" font-size="9" fill="#e8e4dc" font-weight="600" text-anchor="middle">Trig</text><rect class="pf-port-pill" x="4" y="179" width="32" height="11" rx="0" fill="#d4a054" data-signal="gate"/><text class="pf-port-pill-text" x="20" y="187.5" text-anchor="middle" font-family="&#39;SF Mono&#39;, &#39;Fira Code&#39;, Consolas, &#39;Courier New&#39;, monospace" font-size="8" fill="#ffffff" font-weight="600">gate</text><text x="302" y="184.5" font-family="&#39;SF Mono&#39;, &#39;Fira Code&#39;, Consolas, &#39;Courier New&#39;, monospace" font-size="9" fill="#e8e4dc" font-weight="600" text-anchor="middle">EOR</text><rect class="pf-port-pill" x="286" y="167" width="32" height="11" rx="0" fill="#d4a054" data-signal="gate"/><text class="pf-port-pill-text" x="302" y="175.5" text-anchor="middle" font-family="&#39;SF Mono&#39;, &#39;Fira Code&#39;, Consolas, &#39;Courier New&#39;, monospace" font-size="8" fill="#ffffff" font-weight="600">gate</text><text x="302" y="144.5" font-family="&#39;SF Mono&#39;, &#39;Fira Code&#39;, Consolas, &#39;Courier New&#39;, monospace" font-size="9" fill="#e8e4dc" font-weight="600" text-anchor="middle">OUT</text><rect class="pf-port-pill" x="292.5" y="151" width="19" height="11" rx="0" fill="#7bafd4" data-signal="cv"/><text class="pf-port-pill-text" x="302" y="159.5" text-anchor="middle" font-family="&#39;SF Mono&#39;, &#39;Fira Code&#39;, Consolas, &#39;Courier New&#39;, monospace" font-size="8" fill="#ffffff" font-weight="600">cv</text><text x="422" y="120" font-family="&#39;SF Mono&#39;, &#39;Fira Code&#39;, Consolas, &#39;Courier New&#39;, monospace" font-size="9" fill="#e8e4dc" font-weight="600" text-anchor="middle">Trig</text><rect class="pf-port-pill" x="406" y="102.5" width="32" height="11" rx="0" fill="#d4a054" data-signal="gate"/><text class="pf-port-pill-text" x="422" y="111" text-anchor="middle" font-family="&#39;SF Mono&#39;, &#39;Fira Code&#39;, Consolas, &#39;Courier New&#39;, monospace" font-size="8" fill="#ffffff" font-weight="600">gate</text><text x="704" y="44" font-family="&#39;SF Mono&#39;, &#39;Fira Code&#39;, Consolas, &#39;Courier New&#39;, monospace" font-size="9" fill="#e8e4dc" font-weight="600" text-anchor="middle">EOC</text><rect class="pf-port-pill" x="688" y="50.5" width="32" height="11" rx="0" fill="#d4a054" data-signal="gate"/><text class="pf-port-pill-text" x="704" y="59" text-anchor="middle" font-family="&#39;SF Mono&#39;, &#39;Fira Code&#39;, Consolas, &#39;Courier New&#39;, monospace" font-size="8" fill="#ffffff" font-weight="600">gate</text><text x="704" y="68" font-family="&#39;SF Mono&#39;, &#39;Fira Code&#39;, Consolas, &#39;Courier New&#39;, monospace" font-size="9" fill="#e8e4dc" font-weight="600" text-anchor="middle">OUT</text><rect class="pf-port-pill" x="694.5" y="74.5" width="19" height="11" rx="0" fill="#7bafd4" data-signal="cv"/><text class="pf-port-pill-text" x="704" y="83" text-anchor="middle" font-family="&#39;SF Mono&#39;, &#39;Fira Code&#39;, Consolas, &#39;Courier New&#39;, monospace" font-size="8" fill="#ffffff" font-weight="600">cv</text><text x="493" y="209" font-family="&#39;SF Mono&#39;, &#39;Fira Code&#39;, Consolas, &#39;Courier New&#39;, monospace" font-size="9" fill="#e8e4dc" font-weight="600" text-anchor="middle">Cutoff</text><rect class="pf-port-pill" x="483.5" y="215.5" width="19" height="11" rx="0" fill="#7bafd4" data-signal="cv"/><text class="pf-port-pill-text" x="493" y="224" text-anchor="middle" font-family="&#39;SF Mono&#39;, &#39;Fira Code&#39;, Consolas, &#39;Courier New&#39;, monospace" font-size="8" fill="#ffffff" font-weight="600">cv</text><text x="824" y="56" font-family="&#39;SF Mono&#39;, &#39;Fira Code&#39;, Consolas, &#39;Courier New&#39;, monospace" font-size="9" fill="#e8e4dc" font-weight="600" text-anchor="middle">CV</text><rect class="pf-port-pill" x="814.5" y="62.5" width="19" height="11" rx="0" fill="#7bafd4" data-signal="cv"/><text class="pf-port-pill-text" x="824" y="71" text-anchor="middle" font-family="&#39;SF Mono&#39;, &#39;Fira Code&#39;, Consolas, &#39;Courier New&#39;, monospace" font-size="8" fill="#ffffff" font-weight="600">cv</text></g><g class="pf-layer-annotations"></g><g class="pf-layer-legend"><g transform="translate(844, 362)"><line x1="0" y1="0" x2="20" y2="0" stroke="#7bafd4" stroke-width="3" stroke-linecap="round"/><text x="26" y="3" font-family="&#39;SF Mono&#39;, &#39;Fira Code&#39;, Consolas, &#39;Courier New&#39;, monospace" font-size="9" fill="#d0d0d0">cv</text></g><g transform="translate(914, 362)"><line x1="0" y1="0" x2="20" y2="0" stroke="#d4a054" stroke-width="3" stroke-linecap="round"/><text x="26" y="3" font-family="&#39;SF Mono&#39;, &#39;Fira Code&#39;, Consolas, &#39;Courier New&#39;, monospace" font-size="9" fill="#d0d0d0">gate</text></g></g></svg>