<svg xmlns="http://www.w3.org/2000/svg" viewBox="-60 0 1024 382" width="100%" data-pf-min-width="1024" role="img" aria-labelledby="pf-b707e7-title pf-b707e7-desc"><title id="pf-b707e7-title">Patch diagram</title><desc id="pf-b707e7-desc">Patch diagram with 4 modules and 4 connections. Modules: CH 1, CH 4, Filter, VCA. Signals: 2 cv, 2 gate.</desc><style>@media print { .pf-panel, .pf-jack { filter: none; } }</style><defs><filter id="pf-b707e7-panel-shadow" x="-20%" y="-20%" width="140%" height="140%"><feDropShadow dx="0" dy="2" stdDeviation="3" flood-opacity="0.1"/></filter><filter id="pf-b707e7-jack-shadow" x="-20%" y="-20%" width="140%" height="140%"><feDropShadow dx="0" dy="0.5" stdDeviation="0.8" flood-opacity="0.15"/></filter><pattern id="pf-b707e7-dots" width="12" height="12" patternUnits="userSpaceOnUse"><circle cx="6" cy="6" r="0.5" fill="#aaaaaa" opacity="0.3"/></pattern></defs><g class="pf-layer-bg"><rect width="904" height="382" fill="url(#pf-b707e7-dots)"/></g><g class="pf-layer-cables"><path d="M 302 136.5 C 334 136.5, 350 60, 382 60" stroke="#d4a054" stroke-width="3" fill="none" stroke-linecap="round" stroke-linejoin="round" data-connection="conn-0" data-signal="gate"/><path d="M 302 160.5 C 362.4 160.5, 392.6 226, 453 226" stroke="#7bafd4" stroke-width="3" fill="none" stroke-linecap="round" stroke-linejoin="round" data-connection="conn-2" data-signal="cv"/><path d="M 664 84 C 696 84, 712 73, 744 73" stroke="#7bafd4" stroke-width="3" fill="none" stroke-linecap="round" stroke-linejoin="round" data-connection="conn-3" data-signal="cv"/><path d="M 664 60 L 684 60 L 684 316 L 0 316 L 0 136.5 L 20 136.5" stroke="#d4a054" stroke-width="3" fill="none" stroke-linecap="round" stroke-linejoin="round" data-connection="conn-1" data-signal="gate"/><circle cx="302" cy="136.5" r="3.5" fill="#c49244"/><circle cx="382" cy="60" r="3.5" fill="#c49244"/><circle cx="302" cy="160.5" r="3.5" fill="#6a9ec3"/><circle cx="453" cy="226" r="3.5" fill="#6a9ec3"/><circle cx="664" cy="84" r="3.5" fill="#6a9ec3"/><circle cx="744" cy="73" r="3.5" fill="#6a9ec3"/><circle cx="664" cy="60" r="3.5" fill="#c49244"/><circle cx="20" cy="136.5" r="3.5" fill="#c49244"/></g><g class="pf-layer-panels" ><g data-module="MATHS" filter="url(#pf-b707e7-panel-shadow)"><rect x="20" y="96.5" width="282" height="126" fill="#e8e4dc" stroke="#cec8be" stroke-width="0.75" rx="0"/><line x1="20" y1="97" x2="302" y2="97" stroke="#f2efe8" stroke-width="1"/><line x1="20" y1="222" x2="302" y2="222" stroke="#bdb8ae" stroke-width="0.5"/><rect x="32" y="104.5" width="258" height="28" fill="#f4f1ea" stroke="#c5c0b6" stroke-width="0.5"/><text x="161" y="118.5" text-anchor="middle" font-family="system-ui, -apple-system, BlinkMacSystemFont, &#39;Segoe UI&#39;, sans-serif" font-size="14" font-weight="700" fill="#1a1a1a" letter-spacing="3">CH 1</text></g><g data-module="MATHS" filter="url(#pf-b707e7-panel-shadow)"><rect x="382" y="20" width="282" height="126" fill="#e8e4dc" stroke="#cec8be" stroke-width="0.75" rx="0"/><line x1="382" y1="20.5" x2="664" y2="20.5" stroke="#f2efe8" stroke-width="1"/><line x1="382" y1="145.5" x2="664" y2="145.5" stroke="#bdb8ae" stroke-width="0.5"/><rect x="394" y="28" width="258" height="28" fill="#f4f1ea" stroke="#c5c0b6" stroke-width="0.5"/><text x="523" y="42" text-anchor="middle" font-family="system-ui, -apple-system, BlinkMacSystemFont, &#39;Segoe UI&#39;, sans-serif" font-size="14" font-weight="700" fill="#1a1a1a" letter-spacing="3">CH 4</text></g><g data-module="Filter" filter="url(#pf-b707e7-panel-shadow)"><rect x="453" y="186" width="140" height="100" fill="#e8e4dc" stroke="#cec8be" stroke-width="0.75" rx="0"/><line x1="453" y1="186.5" x2="593" y2="186.5" stroke="#f2efe8" stroke-width="1"/><line x1="453" y1="285.5" x2="593" y2="285.5" stroke="#bdb8ae" stroke-width="0.5"/><rect x="465" y="194" width="116" height="28" fill="#f4f1ea" stroke="#c5c0b6" stroke-width="0.5"/><text x="523" y="208" text-anchor="middle" font-family="system-ui, -apple-system, BlinkMacSystemFont, &#39;Segoe UI&#39;, sans-serif" font-size="14" font-weight="700" fill="#1a1a1a" letter-spacing="3">Filter</text></g><g data-module="VCA" filter="url(#pf-b707e7-panel-shadow)"><rect x="744" y="33" width="140" height="100" fill="#e8e4dc" stroke="#cec8be" stroke-width="0.75" rx="0"/><line x1="744" y1="33.5" x2="884" y2="33.5" stroke="#f2efe8" stroke-width="1"/><line x1="744" y1="132.5" x2="884" y2="132.5" stroke="#bdb8ae" stroke-width="0.5"/><rect x="756" y="41" width="116" height="28" fill="#f4f1ea" stroke="#c5c0b6" stroke-width="0.5"/><text x="814" y="55" text-anchor="middle" font-family="system-ui, -apple-system, BlinkMacSystemFont, &#39;Segoe UI&#39;, sans-serif" font-size="14" font-weight="700" fill="#1a1a1a" letter-spacing="3">VCA</text></g></g><g class="pf-layer-params"><rect x="32" y="136.5" width="258" height="20" fill="#f0ede6" stroke="#d5d0c6" stroke-width="0.5"/><text x="161" y="150.5" text-anchor="middle" font-family="'SF Mono', 'Fira Code', Consolas, 'Courier New', monospace" font-size="10" fill="#555555">Cycle OFF, Rise + Fall matched</text><rect x="394" y="60" width="258" height="20" fill="#f0ede6" stroke="#d5d0c6" stroke-width="0.5"/><text x="523" y="74" text-anchor="middle" font-family="'SF Mono', 'Fira Code', Consolas, 'Courier New', monospace" font-size="10" fill="#555555">Cycle OFF, Rise + Fall matched</text></g><g class="pf-layer-jacks"><g data-port="maths--ch-1.trig" filter="url(#pf-b707e7-jack-shadow)"><circle cx="20" cy="136.5" r="8" fill="#c0bbb2" stroke="#a8a39a" stroke-width="0.75"/><circle cx="20" cy="136.5" r="5" fill="#8a8580"/><circle cx="20" cy="136.5" r="3" fill="#555555"/><circle cx="20" cy="136.5" r="1" fill="#333333"/></g><g data-port="maths--ch-1.eor" filter="url(#pf-b707e7-jack-shadow)"><circle cx="302" cy="136.5" r="8" fill="#c0bbb2" stroke="#a8a39a" stroke-width="0.75"/><circle cx="302" cy="136.5" r="5" fill="#8a8580"/><circle cx="302" cy="136.5" r="3" fill="#555555"/><circle cx="302" cy="136.5" r="1" fill="#333333"/></g><g data-port="maths--ch-1.out" filter="url(#pf-b707e7-jack-shadow)"><circle cx="302" cy="160.5" r="8" fill="#c0bbb2" stroke="#a8a39a" stroke-width="0.75"/><circle cx="302" cy="160.5" r="5" fill="#8a8580"/><circle cx="302" cy="160.5" r="3" fill="#555555"/><circle cx="302" cy="160.5" r="1" fill="#333333"/></g><g data-port="maths--ch-4.trig" filter="url(#pf-b707e7-jack-shadow)"><circle cx="382" cy="60" r="8" fill="#c0bbb2" stroke="#a8a39a" stroke-width="0.75"/><circle cx="382" cy="60" r="5" fill="#8a8580"/><circle cx="382" cy="60" r="3" fill="#555555"/><circle cx="382" cy="60" r="1" fill="#333333"/></g><g data-port="maths--ch-4.eoc" filter="url(#pf-b707e7-jack-shadow)"><circle cx="664" cy="60" r="8" fill="#c0bbb2" stroke="#a8a39a" stroke-width="0.75"/><circle cx="664" cy="60" r="5" fill="#8a8580"/><circle cx="664" cy="60" r="3" fill="#555555"/><circle cx="664" cy="60" r="1" fill="#333333"/></g><g data-port="maths--ch-4.out" filter="url(#pf-b707e7-jack-shadow)"><circle cx="664" cy="84" r="8" fill="#c0bbb2" stroke="#a8a39a" stroke-width="0.75"/><circle cx="664" cy="84" r="5" fill="#8a8580"/><circle cx="664" cy="84" r="3" fill="#555555"/><circle cx="664" cy="84" r="1" fill="#333333"/></g><g data-port="filter.cutoff" filter="url(#pf-b707e7-jack-shadow)"><circle cx="453" cy="226" r="8" fill="#c0bbb2" stroke="#a8a39a" stroke-width="0.75"/><circle cx="453" cy="226" r="5" fill="#8a8580"/><circle cx="453" cy="226" r="3" fill="#555555"/><circle cx="453" cy="226" r="1" fill="#333333"/></g><g data-port="vca.cv" filter="url(#pf-b707e7-jack-shadow)"><circle cx="744" cy="73" r="8" fill="#c0bbb2" stroke="#a8a39a" stroke-width="0.75"/><circle cx="744" cy="73" r="5" fill="#8a8580"/><circle cx="744" cy="73" r="3" fill="#555555"/><circle cx="744" cy="73" r="1" fill="#333333"/></g></g><g class="pf-layer-labels"><text x="6" y="139.5" font-family="&#39;SF Mono&#39;, &#39;Fira Code&#39;, Consolas, &#39;Courier New&#39;, monospace" font-size="9" fill="#1a1a1a" font-weight="600" text-anchor="end">Trig</text><text x="316" y="139.5" font-family="&#39;SF Mono&#39;, &#39;Fira Code&#39;, Consolas, &#39;Courier New&#39;, monospace" font-size="9" fill="#1a1a1a" font-weight="600" text-anchor="start">EOR</text><text x="316" y="163.5" font-family="&#39;SF Mono&#39;, &#39;Fira Code&#39;, Consolas, &#39;Courier New&#39;, monospace" font-size="9" fill="#1a1a1a" font-weight="600" text-anchor="start">OUT</text><text x="368" y="63" font-family="&#39;SF Mono&#39;, &#39;Fira Code&#39;, Consolas, &#39;Courier New&#39;, monospace" font-size="9" fill="#1a1a1a" font-weight="600" text-anchor="end">Trig</text><text x="678" y="63" font-family="&#39;SF Mono&#39;, &#39;Fira Code&#39;, Consolas, &#39;Courier New&#39;, monospace" font-size="9" fill="#1a1a1a" font-weight="600" text-anchor="start">EOC</text><text x="678" y="87" font-family="&#39;SF Mono&#39;, &#39;Fira Code&#39;, Consolas, &#39;Courier New&#39;, monospace" font-size="9" fill="#1a1a1a" font-weight="600" text-anchor="start">OUT</text><text x="439" y="229" font-family="&#39;SF Mono&#39;, &#39;Fira Code&#39;, Consolas, &#39;Courier New&#39;, monospace" font-size="9" fill="#1a1a1a" font-weight="600" text-anchor="end">Cutoff</text><text x="730" y="76" font-family="&#39;SF Mono&#39;, &#39;Fira Code&#39;, Consolas, &#39;Courier New&#39;, monospace" font-size="9" fill="#1a1a1a" font-weight="600" text-anchor="end">CV</text></g><g class="pf-layer-annotations"></g><g class="pf-layer-legend"><g transform="translate(20, 362)"><line x1="0" y1="0" x2="20" y2="0" stroke="#7bafd4" stroke-width="3" stroke-linecap="round"/><text x="26" y="3" font-family="&#39;SF Mono&#39;, &#39;Fira Code&#39;, Consolas, &#39;Courier New&#39;, monospace" font-size="9" fill="#888888">cv</text></g><g transform="translate(90, 362)"><line x1="0" y1="0" x2="20" y2="0" stroke="#d4a054" stroke-width="3" stroke-linecap="round"/><text x="26" y="3" font-family="&#39;SF Mono&#39;, &#39;Fira Code&#39;, Consolas, &#39;Courier New&#39;, monospace" font-size="9" fill="#888888">gate</text></g></g></svg>