<svg xmlns="http://www.w3.org/2000/svg" viewBox="-60 0 740 353" width="100%" data-pf-min-width="740" role="img" aria-labelledby="pf-aa9887-title pf-aa9887-desc"><title id="pf-aa9887-title">Patch diagram</title><desc id="pf-aa9887-desc">Patch diagram with 5 modules and 4 connections. Modules: Oscillator, Filter, Envelope, VCA, LFO. Signals: 2 audio, 2 cv.</desc><style>@media print { .pf-panel, .pf-jack { filter: none; } }</style><defs><filter id="pf-aa9887-panel-shadow" x="-20%" y="-20%" width="140%" height="140%"><feDropShadow dx="0" dy="2" stdDeviation="3" flood-opacity="0.1"/></filter><filter id="pf-aa9887-jack-shadow" x="-20%" y="-20%" width="140%" height="140%"><feDropShadow dx="0" dy="0.5" stdDeviation="0.8" flood-opacity="0.15"/></filter><pattern id="pf-aa9887-dots" width="12" height="12" patternUnits="userSpaceOnUse"><circle cx="6" cy="6" r="0.5" fill="#aaaaaa" opacity="0.3"/></pattern></defs><g class="pf-layer-bg"><rect width="620" height="353" fill="url(#pf-aa9887-dots)"/></g><g class="pf-layer-cables"><path d="M 160 60 C 192 60, 208 127, 240 127" stroke="#e88ca5" stroke-width="3" fill="none" stroke-linecap="round" stroke-linejoin="round" data-connection="conn-0" data-signal="audio"/><path d="M 160 200 C 192 200, 208 151, 240 151" stroke="#7bafd4" stroke-width="3" fill="none" stroke-linecap="round" stroke-linejoin="round" data-connection="conn-1" data-signal="cv"/><path d="M 380 127 C 412 127, 428 201.5, 460 201.5" stroke="#e88ca5" stroke-width="3" fill="none" stroke-linecap="round" stroke-linejoin="round" data-connection="conn-2" data-signal="audio"/><path d="M 380 273 C 412 273, 428 225.5, 460 225.5" stroke="#7bafd4" stroke-width="3" fill="none" stroke-linecap="round" stroke-linejoin="round" data-connection="conn-3" data-signal="cv"/><circle cx="160" cy="60" r="3.5" fill="#d47a93"/><circle cx="240" cy="127" r="3.5" fill="#d47a93"/><circle cx="160" cy="200" r="3.5" fill="#6a9ec3"/><circle cx="240" cy="151" r="3.5" fill="#6a9ec3"/><circle cx="380" cy="127" r="3.5" fill="#d47a93"/><circle cx="460" cy="201.5" r="3.5" fill="#d47a93"/><circle cx="380" cy="273" r="3.5" fill="#6a9ec3"/><circle cx="460" cy="225.5" r="3.5" fill="#6a9ec3"/></g><g class="pf-layer-panels" ><g data-module="Oscillator" filter="url(#pf-aa9887-panel-shadow)"><rect x="20" y="20" width="140" height="100" fill="#e8e4dc" stroke="#cec8be" stroke-width="0.75" rx="0"/><line x1="20" y1="20.5" x2="160" y2="20.5" stroke="#f2efe8" stroke-width="1"/><line x1="20" y1="119.5" x2="160" y2="119.5" stroke="#bdb8ae" stroke-width="0.5"/><rect x="32" y="28" width="116" height="28" fill="#f4f1ea" stroke="#c5c0b6" stroke-width="0.5"/><text x="90" y="42" text-anchor="middle" font-family="system-ui, -apple-system, BlinkMacSystemFont, &#39;Segoe UI&#39;, sans-serif" font-size="14" font-weight="700" fill="#1a1a1a" letter-spacing="3">Oscillator</text></g><g data-module="Filter" filter="url(#pf-aa9887-panel-shadow)"><rect x="240" y="87" width="140" height="106" fill="#e8e4dc" stroke="#cec8be" stroke-width="0.75" rx="0"/><line x1="240" y1="87.5" x2="380" y2="87.5" stroke="#f2efe8" stroke-width="1"/><line x1="240" y1="192.5" x2="380" y2="192.5" stroke="#bdb8ae" stroke-width="0.5"/><rect x="252" y="95" width="116" height="28" fill="#f4f1ea" stroke="#c5c0b6" stroke-width="0.5"/><text x="310" y="109" text-anchor="middle" font-family="system-ui, -apple-system, BlinkMacSystemFont, &#39;Segoe UI&#39;, sans-serif" font-size="14" font-weight="700" fill="#1a1a1a" letter-spacing="3">Filter</text></g><g data-module="Envelope" filter="url(#pf-aa9887-panel-shadow)"><rect x="20" y="160" width="140" height="100" fill="#e8e4dc" stroke="#cec8be" stroke-width="0.75" rx="0"/><line x1="20" y1="160.5" x2="160" y2="160.5" stroke="#f2efe8" stroke-width="1"/><line x1="20" y1="259.5" x2="160" y2="259.5" stroke="#bdb8ae" stroke-width="0.5"/><rect x="32" y="168" width="116" height="28" fill="#f4f1ea" stroke="#c5c0b6" stroke-width="0.5"/><text x="90" y="182" text-anchor="middle" font-family="system-ui, -apple-system, BlinkMacSystemFont, &#39;Segoe UI&#39;, sans-serif" font-size="14" font-weight="700" fill="#1a1a1a" letter-spacing="3">Envelope</text></g><g data-module="VCA" filter="url(#pf-aa9887-panel-shadow)"><rect x="460" y="161.5" width="140" height="100" fill="#e8e4dc" stroke="#cec8be" stroke-width="0.75" rx="0"/><line x1="460" y1="162" x2="600" y2="162" stroke="#f2efe8" stroke-width="1"/><line x1="460" y1="261" x2="600" y2="261" stroke="#bdb8ae" stroke-width="0.5"/><rect x="472" y="169.5" width="116" height="28" fill="#f4f1ea" stroke="#c5c0b6" stroke-width="0.5"/><text x="530" y="183.5" text-anchor="middle" font-family="system-ui, -apple-system, BlinkMacSystemFont, &#39;Segoe UI&#39;, sans-serif" font-size="14" font-weight="700" fill="#1a1a1a" letter-spacing="3">VCA</text></g><g data-module="LFO" filter="url(#pf-aa9887-panel-shadow)"><rect x="240" y="233" width="140" height="100" fill="#e8e4dc" stroke="#cec8be" stroke-width="0.75" rx="0"/><line x1="240" y1="233.5" x2="380" y2="233.5" stroke="#f2efe8" stroke-width="1"/><line x1="240" y1="332.5" x2="380" y2="332.5" stroke="#bdb8ae" stroke-width="0.5"/><rect x="252" y="241" width="116" height="28" fill="#f4f1ea" stroke="#c5c0b6" stroke-width="0.5"/><text x="310" y="255" text-anchor="middle" font-family="system-ui, -apple-system, BlinkMacSystemFont, &#39;Segoe UI&#39;, sans-serif" font-size="14" font-weight="700" fill="#1a1a1a" letter-spacing="3">LFO</text></g></g><g class="pf-layer-params"></g><g class="pf-layer-jacks"><g data-port="oscillator.out" filter="url(#pf-aa9887-jack-shadow)"><circle cx="160" cy="60" r="8" fill="#c0bbb2" stroke="#a8a39a" stroke-width="0.75"/><circle cx="160" cy="60" r="5" fill="#8a8580"/><circle cx="160" cy="60" r="3" fill="#555555"/><circle cx="160" cy="60" r="1" fill="#333333"/></g><g data-port="filter.in" filter="url(#pf-aa9887-jack-shadow)"><circle cx="240" cy="127" r="8" fill="#c0bbb2" stroke="#a8a39a" stroke-width="0.75"/><circle cx="240" cy="127" r="5" fill="#8a8580"/><circle cx="240" cy="127" r="3" fill="#555555"/><circle cx="240" cy="127" r="1" fill="#333333"/></g><g data-port="filter.cutoff" filter="url(#pf-aa9887-jack-shadow)"><circle cx="240" cy="151" r="8" fill="#c0bbb2" stroke="#a8a39a" stroke-width="0.75"/><circle cx="240" cy="151" r="5" fill="#8a8580"/><circle cx="240" cy="151" r="3" fill="#555555"/><circle cx="240" cy="151" r="1" fill="#333333"/></g><g data-port="filter.out" filter="url(#pf-aa9887-jack-shadow)"><circle cx="380" cy="127" r="8" fill="#c0bbb2" stroke="#a8a39a" stroke-width="0.75"/><circle cx="380" cy="127" r="5" fill="#8a8580"/><circle cx="380" cy="127" r="3" fill="#555555"/><circle cx="380" cy="127" r="1" fill="#333333"/></g><g data-port="envelope.out" filter="url(#pf-aa9887-jack-shadow)"><circle cx="160" cy="200" r="8" fill="#c0bbb2" stroke="#a8a39a" stroke-width="0.75"/><circle cx="160" cy="200" r="5" fill="#8a8580"/><circle cx="160" cy="200" r="3" fill="#555555"/><circle cx="160" cy="200" r="1" fill="#333333"/></g><g data-port="vca.in" filter="url(#pf-aa9887-jack-shadow)"><circle cx="460" cy="201.5" r="8" fill="#c0bbb2" stroke="#a8a39a" stroke-width="0.75"/><circle cx="460" cy="201.5" r="5" fill="#8a8580"/><circle cx="460" cy="201.5" r="3" fill="#555555"/><circle cx="460" cy="201.5" r="1" fill="#333333"/></g><g data-port="vca.cv" filter="url(#pf-aa9887-jack-shadow)"><circle cx="460" cy="225.5" r="8" fill="#c0bbb2" stroke="#a8a39a" stroke-width="0.75"/><circle cx="460" cy="225.5" r="5" fill="#8a8580"/><circle cx="460" cy="225.5" r="3" fill="#555555"/><circle cx="460" cy="225.5" r="1" fill="#333333"/></g><g data-port="lfo.out" filter="url(#pf-aa9887-jack-shadow)"><circle cx="380" cy="273" r="8" fill="#c0bbb2" stroke="#a8a39a" stroke-width="0.75"/><circle cx="380" cy="273" r="5" fill="#8a8580"/><circle cx="380" cy="273" r="3" fill="#555555"/><circle cx="380" cy="273" r="1" fill="#333333"/></g></g><g class="pf-layer-labels"><text x="174" y="63" font-family="&#39;SF Mono&#39;, &#39;Fira Code&#39;, Consolas, &#39;Courier New&#39;, monospace" font-size="9" fill="#1a1a1a" font-weight="600" text-anchor="start">Out</text><text x="226" y="130" font-family="&#39;SF Mono&#39;, &#39;Fira Code&#39;, Consolas, &#39;Courier New&#39;, monospace" font-size="9" fill="#1a1a1a" font-weight="600" text-anchor="end">In</text><text x="226" y="154" font-family="&#39;SF Mono&#39;, &#39;Fira Code&#39;, Consolas, &#39;Courier New&#39;, monospace" font-size="9" fill="#1a1a1a" font-weight="600" text-anchor="end">Cutoff</text><text x="394" y="130" font-family="&#39;SF Mono&#39;, &#39;Fira Code&#39;, Consolas, &#39;Courier New&#39;, monospace" font-size="9" fill="#1a1a1a" font-weight="600" text-anchor="start">Out</text><text x="174" y="203" font-family="&#39;SF Mono&#39;, &#39;Fira Code&#39;, Consolas, &#39;Courier New&#39;, monospace" font-size="9" fill="#1a1a1a" font-weight="600" text-anchor="start">Out</text><text x="446" y="204.5" font-family="&#39;SF Mono&#39;, &#39;Fira Code&#39;, Consolas, &#39;Courier New&#39;, monospace" font-size="9" fill="#1a1a1a" font-weight="600" text-anchor="end">In</text><text x="446" y="228.5" font-family="&#39;SF Mono&#39;, &#39;Fira Code&#39;, Consolas, &#39;Courier New&#39;, monospace" font-size="9" fill="#1a1a1a" font-weight="600" text-anchor="end">CV</text><text x="394" y="276" font-family="&#39;SF Mono&#39;, &#39;Fira Code&#39;, Consolas, &#39;Courier New&#39;, monospace" font-size="9" fill="#1a1a1a" font-weight="600" text-anchor="start">Out</text></g><g class="pf-layer-annotations"></g><g class="pf-layer-legend"><g transform="translate(20, 333)"><line x1="0" y1="0" x2="20" y2="0" stroke="#e88ca5" stroke-width="3" stroke-linecap="round"/><text x="26" y="3" font-family="&#39;SF Mono&#39;, &#39;Fira Code&#39;, Consolas, &#39;Courier New&#39;, monospace" font-size="9" fill="#888888">audio</text></g><g transform="translate(90, 333)"><line x1="0" y1="0" x2="20" y2="0" stroke="#7bafd4" stroke-width="3" stroke-linecap="round"/><text x="26" y="3" font-family="&#39;SF Mono&#39;, &#39;Fira Code&#39;, Consolas, &#39;Courier New&#39;, monospace" font-size="9" fill="#888888">cv</text></g></g></svg>