<svg xmlns="http://www.w3.org/2000/svg" viewBox="-130 0 1120 353" width="100%" data-pf-min-width="1120" role="img" aria-labelledby="pf-aa5a80-title pf-aa5a80-desc"><title id="pf-aa5a80-title">Patch diagram</title><desc id="pf-aa5a80-desc">Patch diagram with 5 modules and 4 connections. Modules: Oscillator, Filter, Envelope, VCA, LFO. Signals: 2 audio, 2 cv.</desc><style>@media print { .pf-panel, .pf-jack { filter: none; } }</style><defs><filter id="pf-aa5a80-panel-shadow" x="-20%" y="-20%" width="140%" height="140%"><feDropShadow dx="0" dy="2" stdDeviation="3" flood-opacity="0.1"/></filter><filter id="pf-aa5a80-jack-shadow" x="-20%" y="-20%" width="140%" height="140%"><feDropShadow dx="0" dy="0.5" stdDeviation="0.8" flood-opacity="0.15"/></filter><pattern id="pf-aa5a80-dots" width="12" height="12" patternUnits="userSpaceOnUse"><circle cx="6" cy="6" r="0.5" fill="#aaaaaa" opacity="0.3"/></pattern></defs><g class="pf-layer-bg"><rect width="860" height="353" fill="url(#pf-aa5a80-dots)"/></g><g class="pf-layer-cables"><path d="M 160 60 C 240 60, 280 127, 360 127" stroke="#e88ca5" stroke-width="3" fill="none" stroke-linecap="round" stroke-linejoin="round" data-connection="conn-0" data-signal="audio"/><path d="M 160 200 C 240 200, 280 151, 360 151" stroke="#7bafd4" stroke-width="3" fill="none" stroke-linecap="round" stroke-linejoin="round" data-connection="conn-1" data-signal="cv"/><path d="M 500 127 C 580 127, 620 201.5, 700 201.5" stroke="#e88ca5" stroke-width="3" fill="none" stroke-linecap="round" stroke-linejoin="round" data-connection="conn-2" data-signal="audio"/><path d="M 500 273 C 580 273, 620 225.5, 700 225.5" stroke="#7bafd4" stroke-width="3" fill="none" stroke-linecap="round" stroke-linejoin="round" data-connection="conn-3" data-signal="cv"/><circle cx="160" cy="60" r="3.5" fill="#d47a93"/><circle cx="360" cy="127" r="3.5" fill="#d47a93"/><circle cx="160" cy="200" r="3.5" fill="#6a9ec3"/><circle cx="360" cy="151" r="3.5" fill="#6a9ec3"/><circle cx="500" cy="127" r="3.5" fill="#d47a93"/><circle cx="700" cy="201.5" r="3.5" fill="#d47a93"/><circle cx="500" cy="273" r="3.5" fill="#6a9ec3"/><circle cx="700" cy="225.5" r="3.5" fill="#6a9ec3"/></g><g class="pf-layer-panels" ><g data-module="Oscillator" filter="url(#pf-aa5a80-panel-shadow)"><rect x="20" y="20" width="140" height="100" fill="#e8e4dc" stroke="#cec8be" stroke-width="0.75" rx="0"/><line x1="20" y1="20.5" x2="160" y2="20.5" stroke="#f2efe8" stroke-width="1"/><line x1="20" y1="119.5" x2="160" y2="119.5" stroke="#bdb8ae" stroke-width="0.5"/><rect x="32" y="28" width="116" height="28" fill="#f4f1ea" stroke="#c5c0b6" stroke-width="0.5"/><text x="90" y="42" text-anchor="middle" font-family="system-ui, -apple-system, BlinkMacSystemFont, &#39;Segoe UI&#39;, sans-serif" font-size="14" font-weight="700" fill="#1a1a1a" letter-spacing="3">Oscillator</text></g><g data-module="Filter" filter="url(#pf-aa5a80-panel-shadow)"><rect x="360" y="87" width="140" height="106" fill="#e8e4dc" stroke="#cec8be" stroke-width="0.75" rx="0"/><line x1="360" y1="87.5" x2="500" y2="87.5" stroke="#f2efe8" stroke-width="1"/><line x1="360" y1="192.5" x2="500" y2="192.5" stroke="#bdb8ae" stroke-width="0.5"/><rect x="372" y="95" width="116" height="28" fill="#f4f1ea" stroke="#c5c0b6" stroke-width="0.5"/><text x="430" y="109" text-anchor="middle" font-family="system-ui, -apple-system, BlinkMacSystemFont, &#39;Segoe UI&#39;, sans-serif" font-size="14" font-weight="700" fill="#1a1a1a" letter-spacing="3">Filter</text></g><g data-module="Envelope" filter="url(#pf-aa5a80-panel-shadow)"><rect x="20" y="160" width="140" height="100" fill="#e8e4dc" stroke="#cec8be" stroke-width="0.75" rx="0"/><line x1="20" y1="160.5" x2="160" y2="160.5" stroke="#f2efe8" stroke-width="1"/><line x1="20" y1="259.5" x2="160" y2="259.5" stroke="#bdb8ae" stroke-width="0.5"/><rect x="32" y="168" width="116" height="28" fill="#f4f1ea" stroke="#c5c0b6" stroke-width="0.5"/><text x="90" y="182" text-anchor="middle" font-family="system-ui, -apple-system, BlinkMacSystemFont, &#39;Segoe UI&#39;, sans-serif" font-size="14" font-weight="700" fill="#1a1a1a" letter-spacing="3">Envelope</text></g><g data-module="VCA" filter="url(#pf-aa5a80-panel-shadow)"><rect x="700" y="161.5" width="140" height="100" fill="#e8e4dc" stroke="#cec8be" stroke-width="0.75" rx="0"/><line x1="700" y1="162" x2="840" y2="162" stroke="#f2efe8" stroke-width="1"/><line x1="700" y1="261" x2="840" y2="261" stroke="#bdb8ae" stroke-width="0.5"/><rect x="712" y="169.5" width="116" height="28" fill="#f4f1ea" stroke="#c5c0b6" stroke-width="0.5"/><text x="770" y="183.5" text-anchor="middle" font-family="system-ui, -apple-system, BlinkMacSystemFont, &#39;Segoe UI&#39;, sans-serif" font-size="14" font-weight="700" fill="#1a1a1a" letter-spacing="3">VCA</text></g><g data-module="LFO" filter="url(#pf-aa5a80-panel-shadow)"><rect x="360" y="233" width="140" height="100" fill="#e8e4dc" stroke="#cec8be" stroke-width="0.75" rx="0"/><line x1="360" y1="233.5" x2="500" y2="233.5" stroke="#f2efe8" stroke-width="1"/><line x1="360" y1="332.5" x2="500" y2="332.5" stroke="#bdb8ae" stroke-width="0.5"/><rect x="372" y="241" width="116" height="28" fill="#f4f1ea" stroke="#c5c0b6" stroke-width="0.5"/><text x="430" y="255" text-anchor="middle" font-family="system-ui, -apple-system, BlinkMacSystemFont, &#39;Segoe UI&#39;, sans-serif" font-size="14" font-weight="700" fill="#1a1a1a" letter-spacing="3">LFO</text></g></g><g class="pf-layer-params"></g><g class="pf-layer-jacks"><g data-port="oscillator.out" filter="url(#pf-aa5a80-jack-shadow)"><circle cx="160" cy="60" r="8" fill="#c0bbb2" stroke="#a8a39a" stroke-width="0.75"/><circle cx="160" cy="60" r="5" fill="#8a8580"/><circle cx="160" cy="60" r="3" fill="#555555"/><circle cx="160" cy="60" r="1" fill="#333333"/></g><g data-port="filter.in" filter="url(#pf-aa5a80-jack-shadow)"><circle cx="360" cy="127" r="8" fill="#c0bbb2" stroke="#a8a39a" stroke-width="0.75"/><circle cx="360" cy="127" r="5" fill="#8a8580"/><circle cx="360" cy="127" r="3" fill="#555555"/><circle cx="360" cy="127" r="1" fill="#333333"/></g><g data-port="filter.cutoff" filter="url(#pf-aa5a80-jack-shadow)"><circle cx="360" cy="151" r="8" fill="#c0bbb2" stroke="#a8a39a" stroke-width="0.75"/><circle cx="360" cy="151" r="5" fill="#8a8580"/><circle cx="360" cy="151" r="3" fill="#555555"/><circle cx="360" cy="151" r="1" fill="#333333"/></g><g data-port="filter.out" filter="url(#pf-aa5a80-jack-shadow)"><circle cx="500" cy="127" r="8" fill="#c0bbb2" stroke="#a8a39a" stroke-width="0.75"/><circle cx="500" cy="127" r="5" fill="#8a8580"/><circle cx="500" cy="127" r="3" fill="#555555"/><circle cx="500" cy="127" r="1" fill="#333333"/></g><g data-port="envelope.out" filter="url(#pf-aa5a80-jack-shadow)"><circle cx="160" cy="200" r="8" fill="#c0bbb2" stroke="#a8a39a" stroke-width="0.75"/><circle cx="160" cy="200" r="5" fill="#8a8580"/><circle cx="160" cy="200" r="3" fill="#555555"/><circle cx="160" cy="200" r="1" fill="#333333"/></g><g data-port="vca.in" filter="url(#pf-aa5a80-jack-shadow)"><circle cx="700" cy="201.5" r="8" fill="#c0bbb2" stroke="#a8a39a" stroke-width="0.75"/><circle cx="700" cy="201.5" r="5" fill="#8a8580"/><circle cx="700" cy="201.5" r="3" fill="#555555"/><circle cx="700" cy="201.5" r="1" fill="#333333"/></g><g data-port="vca.cv" filter="url(#pf-aa5a80-jack-shadow)"><circle cx="700" cy="225.5" r="8" fill="#c0bbb2" stroke="#a8a39a" stroke-width="0.75"/><circle cx="700" cy="225.5" r="5" fill="#8a8580"/><circle cx="700" cy="225.5" r="3" fill="#555555"/><circle cx="700" cy="225.5" r="1" fill="#333333"/></g><g data-port="lfo.out" filter="url(#pf-aa5a80-jack-shadow)"><circle cx="500" cy="273" r="8" fill="#c0bbb2" stroke="#a8a39a" stroke-width="0.75"/><circle cx="500" cy="273" r="5" fill="#8a8580"/><circle cx="500" cy="273" r="3" fill="#555555"/><circle cx="500" cy="273" r="1" fill="#333333"/></g></g><g class="pf-layer-labels"><text x="174" y="63" font-family="&#39;SF Mono&#39;, &#39;Fira Code&#39;, Consolas, &#39;Courier New&#39;, monospace" font-size="9" fill="#1a1a1a" font-weight="600" text-anchor="start">Out</text><rect class="pf-port-pill" x="199.5" y="54.5" width="38.5" height="11" rx="0" fill="#e88ca5" data-signal="audio"/><text class="pf-port-pill-text" x="218.75" y="63" text-anchor="middle" font-family="&#39;SF Mono&#39;, &#39;Fira Code&#39;, Consolas, &#39;Courier New&#39;, monospace" font-size="8" fill="#ffffff" font-weight="600">audio</text><text x="346" y="130" font-family="&#39;SF Mono&#39;, &#39;Fira Code&#39;, Consolas, &#39;Courier New&#39;, monospace" font-size="9" fill="#1a1a1a" font-weight="600" text-anchor="end">In</text><rect class="pf-port-pill" x="288.5" y="121.5" width="38.5" height="11" rx="0" fill="#e88ca5" data-signal="audio"/><text class="pf-port-pill-text" x="307.75" y="130" text-anchor="middle" font-family="&#39;SF Mono&#39;, &#39;Fira Code&#39;, Consolas, &#39;Courier New&#39;, monospace" font-size="8" fill="#ffffff" font-weight="600">audio</text><text x="346" y="154" font-family="&#39;SF Mono&#39;, &#39;Fira Code&#39;, Consolas, &#39;Courier New&#39;, monospace" font-size="9" fill="#1a1a1a" font-weight="600" text-anchor="end">Cutoff</text><rect class="pf-port-pill" x="282" y="145.5" width="19" height="11" rx="0" fill="#7bafd4" data-signal="cv"/><text class="pf-port-pill-text" x="291.5" y="154" text-anchor="middle" font-family="&#39;SF Mono&#39;, &#39;Fira Code&#39;, Consolas, &#39;Courier New&#39;, monospace" font-size="8" fill="#ffffff" font-weight="600">cv</text><text x="514" y="130" font-family="&#39;SF Mono&#39;, &#39;Fira Code&#39;, Consolas, &#39;Courier New&#39;, monospace" font-size="9" fill="#1a1a1a" font-weight="600" text-anchor="start">Out</text><rect class="pf-port-pill" x="539.5" y="121.5" width="38.5" height="11" rx="0" fill="#e88ca5" data-signal="audio"/><text class="pf-port-pill-text" x="558.75" y="130" text-anchor="middle" font-family="&#39;SF Mono&#39;, &#39;Fira Code&#39;, Consolas, &#39;Courier New&#39;, monospace" font-size="8" fill="#ffffff" font-weight="600">audio</text><text x="174" y="203" font-family="&#39;SF Mono&#39;, &#39;Fira Code&#39;, Consolas, &#39;Courier New&#39;, monospace" font-size="9" fill="#1a1a1a" font-weight="600" text-anchor="start">Out</text><rect class="pf-port-pill" x="199.5" y="194.5" width="19" height="11" rx="0" fill="#7bafd4" data-signal="cv"/><text class="pf-port-pill-text" x="209" y="203" text-anchor="middle" font-family="&#39;SF Mono&#39;, &#39;Fira Code&#39;, Consolas, &#39;Courier New&#39;, monospace" font-size="8" fill="#ffffff" font-weight="600">cv</text><text x="686" y="204.5" font-family="&#39;SF Mono&#39;, &#39;Fira Code&#39;, Consolas, &#39;Courier New&#39;, monospace" font-size="9" fill="#1a1a1a" font-weight="600" text-anchor="end">In</text><rect class="pf-port-pill" x="628.5" y="196" width="38.5" height="11" rx="0" fill="#e88ca5" data-signal="audio"/><text class="pf-port-pill-text" x="647.75" y="204.5" text-anchor="middle" font-family="&#39;SF Mono&#39;, &#39;Fira Code&#39;, Consolas, &#39;Courier New&#39;, monospace" font-size="8" fill="#ffffff" font-weight="600">audio</text><text x="686" y="228.5" font-family="&#39;SF Mono&#39;, &#39;Fira Code&#39;, Consolas, &#39;Courier New&#39;, monospace" font-size="9" fill="#1a1a1a" font-weight="600" text-anchor="end">CV</text><rect class="pf-port-pill" x="648" y="220" width="19" height="11" rx="0" fill="#7bafd4" data-signal="cv"/><text class="pf-port-pill-text" x="657.5" y="228.5" text-anchor="middle" font-family="&#39;SF Mono&#39;, &#39;Fira Code&#39;, Consolas, &#39;Courier New&#39;, monospace" font-size="8" fill="#ffffff" font-weight="600">cv</text><text x="514" y="276" font-family="&#39;SF Mono&#39;, &#39;Fira Code&#39;, Consolas, &#39;Courier New&#39;, monospace" font-size="9" fill="#1a1a1a" font-weight="600" text-anchor="start">Out</text><rect class="pf-port-pill" x="539.5" y="267.5" width="19" height="11" rx="0" fill="#7bafd4" data-signal="cv"/><text class="pf-port-pill-text" x="549" y="276" text-anchor="middle" font-family="&#39;SF Mono&#39;, &#39;Fira Code&#39;, Consolas, &#39;Courier New&#39;, monospace" font-size="8" fill="#ffffff" font-weight="600">cv</text></g><g class="pf-layer-annotations"></g><g class="pf-layer-legend"><g transform="translate(20, 333)"><line x1="0" y1="0" x2="20" y2="0" stroke="#e88ca5" stroke-width="3" stroke-linecap="round"/><text x="26" y="3" font-family="&#39;SF Mono&#39;, &#39;Fira Code&#39;, Consolas, &#39;Courier New&#39;, monospace" font-size="9" fill="#888888">audio</text></g><g transform="translate(90, 333)"><line x1="0" y1="0" x2="20" y2="0" stroke="#7bafd4" stroke-width="3" stroke-linecap="round"/><text x="26" y="3" font-family="&#39;SF Mono&#39;, &#39;Fira Code&#39;, Consolas, &#39;Courier New&#39;, monospace" font-size="9" fill="#888888">cv</text></g></g></svg>