<svg xmlns="http://www.w3.org/2000/svg" viewBox="-130 -40 970 433" width="100%" data-pf-min-width="970" role="img" aria-labelledby="pf-74f4d8-title pf-74f4d8-desc"><title id="pf-74f4d8-title">Patch diagram</title><desc id="pf-74f4d8-desc">Patch diagram with 5 modules and 4 connections. Modules: Oscillator, Filter, Envelope, VCA, LFO. Signals: 2 audio, 2 cv.</desc><style>@media print { .pf-panel, .pf-jack { filter: none; } }</style><defs><filter id="pf-74f4d8-panel-shadow" x="-20%" y="-20%" width="140%" height="140%"><feDropShadow dx="0" dy="2" stdDeviation="3" flood-opacity="0.1"/></filter><filter id="pf-74f4d8-jack-shadow" x="-20%" y="-20%" width="140%" height="140%"><feDropShadow dx="0" dy="0.5" stdDeviation="0.8" flood-opacity="0.15"/></filter><pattern id="pf-74f4d8-dots" width="12" height="12" patternUnits="userSpaceOnUse"><circle cx="6" cy="6" r="0.5" fill="#555555" opacity="0.5"/></pattern></defs><g class="pf-layer-bg"><rect width="710" height="353" fill="url(#pf-74f4d8-dots)"/></g><g class="pf-layer-cables"><path d="M 170 75 C 218 75, 242 133, 290 133" stroke="#e88ca5" stroke-width="3" fill="none" stroke-linecap="round" stroke-linejoin="round" data-connection="conn-0" data-signal="audio"/><path d="M 165 215 C 215 215, 240 157, 290 157" stroke="#7bafd4" stroke-width="3" fill="none" stroke-linecap="round" stroke-linejoin="round" data-connection="conn-1" data-signal="cv"/><path d="M 430 145 C 478 145, 502 204.5, 550 204.5" stroke="#e88ca5" stroke-width="3" fill="none" stroke-linecap="round" stroke-linejoin="round" data-connection="conn-2" data-signal="audio"/><path d="M 430 288 C 478 288, 502 228.5, 550 228.5" stroke="#7bafd4" stroke-width="3" fill="none" stroke-linecap="round" stroke-linejoin="round" data-connection="conn-3" data-signal="cv"/><circle cx="170" cy="75" r="3.5" fill="#d47a93"/><circle cx="290" cy="133" r="3.5" fill="#d47a93"/><circle cx="165" cy="215" r="3.5" fill="#6a9ec3"/><circle cx="290" cy="157" r="3.5" fill="#6a9ec3"/><circle cx="430" cy="145" r="3.5" fill="#d47a93"/><circle cx="550" cy="204.5" r="3.5" fill="#d47a93"/><circle cx="430" cy="288" r="3.5" fill="#6a9ec3"/><circle cx="550" cy="228.5" r="3.5" fill="#6a9ec3"/></g><g class="pf-layer-panels" ><g data-module="Oscillator" filter="url(#pf-74f4d8-panel-shadow)"><rect x="20" y="20" width="150" height="100" fill="#e8e4dc" stroke="#cec8be" stroke-width="0.75" rx="0"/><line x1="20" y1="20.5" x2="170" y2="20.5" stroke="#f2efe8" stroke-width="1"/><line x1="20" y1="119.5" x2="170" y2="119.5" stroke="#bdb8ae" stroke-width="0.5"/><rect x="32" y="28" width="126" height="28" fill="#f4f1ea" stroke="#c5c0b6" stroke-width="0.5"/><text x="95" y="42" text-anchor="middle" font-family="system-ui, -apple-system, BlinkMacSystemFont, &#39;Segoe UI&#39;, sans-serif" font-size="14" font-weight="700" fill="#1a1a1a" letter-spacing="3">Oscillator</text></g><g data-module="Filter" filter="url(#pf-74f4d8-panel-shadow)"><rect x="290" y="87" width="140" height="106" fill="#e8e4dc" stroke="#cec8be" stroke-width="0.75" rx="0"/><line x1="290" y1="87.5" x2="430" y2="87.5" stroke="#f2efe8" stroke-width="1"/><line x1="290" y1="192.5" x2="430" y2="192.5" stroke="#bdb8ae" stroke-width="0.5"/><rect x="302" y="95" width="116" height="28" fill="#f4f1ea" stroke="#c5c0b6" stroke-width="0.5"/><text x="360" y="109" text-anchor="middle" font-family="system-ui, -apple-system, BlinkMacSystemFont, &#39;Segoe UI&#39;, sans-serif" font-size="14" font-weight="700" fill="#1a1a1a" letter-spacing="3">Filter</text></g><g data-module="Envelope" filter="url(#pf-74f4d8-panel-shadow)"><rect x="25" y="160" width="140" height="100" fill="#e8e4dc" stroke="#cec8be" stroke-width="0.75" rx="0"/><line x1="25" y1="160.5" x2="165" y2="160.5" stroke="#f2efe8" stroke-width="1"/><line x1="25" y1="259.5" x2="165" y2="259.5" stroke="#bdb8ae" stroke-width="0.5"/><rect x="37" y="168" width="116" height="28" fill="#f4f1ea" stroke="#c5c0b6" stroke-width="0.5"/><text x="95" y="182" text-anchor="middle" font-family="system-ui, -apple-system, BlinkMacSystemFont, &#39;Segoe UI&#39;, sans-serif" font-size="14" font-weight="700" fill="#1a1a1a" letter-spacing="3">Envelope</text></g><g data-module="VCA" filter="url(#pf-74f4d8-panel-shadow)"><rect x="550" y="161.5" width="140" height="100" fill="#e8e4dc" stroke="#cec8be" stroke-width="0.75" rx="0"/><line x1="550" y1="162" x2="690" y2="162" stroke="#f2efe8" stroke-width="1"/><line x1="550" y1="261" x2="690" y2="261" stroke="#bdb8ae" stroke-width="0.5"/><rect x="562" y="169.5" width="116" height="28" fill="#f4f1ea" stroke="#c5c0b6" stroke-width="0.5"/><text x="620" y="183.5" text-anchor="middle" font-family="system-ui, -apple-system, BlinkMacSystemFont, &#39;Segoe UI&#39;, sans-serif" font-size="14" font-weight="700" fill="#1a1a1a" letter-spacing="3">VCA</text></g><g data-module="LFO" filter="url(#pf-74f4d8-panel-shadow)"><rect x="290" y="233" width="140" height="100" fill="#e8e4dc" stroke="#cec8be" stroke-width="0.75" rx="0"/><line x1="290" y1="233.5" x2="430" y2="233.5" stroke="#f2efe8" stroke-width="1"/><line x1="290" y1="332.5" x2="430" y2="332.5" stroke="#bdb8ae" stroke-width="0.5"/><rect x="302" y="241" width="116" height="28" fill="#f4f1ea" stroke="#c5c0b6" stroke-width="0.5"/><text x="360" y="255" text-anchor="middle" font-family="system-ui, -apple-system, BlinkMacSystemFont, &#39;Segoe UI&#39;, sans-serif" font-size="14" font-weight="700" fill="#1a1a1a" letter-spacing="3">LFO</text></g></g><g class="pf-layer-params"></g><g class="pf-layer-jacks"><g data-port="oscillator.out" filter="url(#pf-74f4d8-jack-shadow)"><circle cx="170" cy="75" r="8" fill="#c0bbb2" stroke="#a8a39a" stroke-width="0.75"/><circle cx="170" cy="75" r="5" fill="#8a8580"/><circle cx="170" cy="75" r="3" fill="#555555"/><circle cx="170" cy="75" r="1" fill="#333333"/></g><g data-port="filter.in" filter="url(#pf-74f4d8-jack-shadow)"><circle cx="290" cy="133" r="8" fill="#c0bbb2" stroke="#a8a39a" stroke-width="0.75"/><circle cx="290" cy="133" r="5" fill="#8a8580"/><circle cx="290" cy="133" r="3" fill="#555555"/><circle cx="290" cy="133" r="1" fill="#333333"/></g><g data-port="filter.cutoff" filter="url(#pf-74f4d8-jack-shadow)"><circle cx="290" cy="157" r="8" fill="#c0bbb2" stroke="#a8a39a" stroke-width="0.75"/><circle cx="290" cy="157" r="5" fill="#8a8580"/><circle cx="290" cy="157" r="3" fill="#555555"/><circle cx="290" cy="157" r="1" fill="#333333"/></g><g data-port="filter.out" filter="url(#pf-74f4d8-jack-shadow)"><circle cx="430" cy="145" r="8" fill="#c0bbb2" stroke="#a8a39a" stroke-width="0.75"/><circle cx="430" cy="145" r="5" fill="#8a8580"/><circle cx="430" cy="145" r="3" fill="#555555"/><circle cx="430" cy="145" r="1" fill="#333333"/></g><g data-port="envelope.out" filter="url(#pf-74f4d8-jack-shadow)"><circle cx="165" cy="215" r="8" fill="#c0bbb2" stroke="#a8a39a" stroke-width="0.75"/><circle cx="165" cy="215" r="5" fill="#8a8580"/><circle cx="165" cy="215" r="3" fill="#555555"/><circle cx="165" cy="215" r="1" fill="#333333"/></g><g data-port="vca.in" filter="url(#pf-74f4d8-jack-shadow)"><circle cx="550" cy="204.5" r="8" fill="#c0bbb2" stroke="#a8a39a" stroke-width="0.75"/><circle cx="550" cy="204.5" r="5" fill="#8a8580"/><circle cx="550" cy="204.5" r="3" fill="#555555"/><circle cx="550" cy="204.5" r="1" fill="#333333"/></g><g data-port="vca.cv" filter="url(#pf-74f4d8-jack-shadow)"><circle cx="550" cy="228.5" r="8" fill="#c0bbb2" stroke="#a8a39a" stroke-width="0.75"/><circle cx="550" cy="228.5" r="5" fill="#8a8580"/><circle cx="550" cy="228.5" r="3" fill="#555555"/><circle cx="550" cy="228.5" r="1" fill="#333333"/></g><g data-port="lfo.out" filter="url(#pf-74f4d8-jack-shadow)"><circle cx="430" cy="288" r="8" fill="#c0bbb2" stroke="#a8a39a" stroke-width="0.75"/><circle cx="430" cy="288" r="5" fill="#8a8580"/><circle cx="430" cy="288" r="3" fill="#555555"/><circle cx="430" cy="288" r="1" fill="#333333"/></g></g><g class="pf-layer-labels"><text x="176" y="43" font-family="&#39;SF Mono&#39;, &#39;Fira Code&#39;, Consolas, &#39;Courier New&#39;, monospace" font-size="9" fill="#e8e4dc" font-weight="600" text-anchor="start" dominant-baseline="central">Out</text><rect class="pf-port-pill" x="176" y="49.5" width="38.5" height="11" rx="0" fill="#e88ca5" data-signal="audio"/><text class="pf-port-pill-text" x="195.25" y="55" text-anchor="middle" dominant-baseline="central" font-family="&#39;SF Mono&#39;, &#39;Fira Code&#39;, Consolas, &#39;Courier New&#39;, monospace" font-size="8" fill="#ffffff" font-weight="600">audio</text><text x="284" y="101" font-family="&#39;SF Mono&#39;, &#39;Fira Code&#39;, Consolas, &#39;Courier New&#39;, monospace" font-size="9" fill="#e8e4dc" font-weight="600" text-anchor="end" dominant-baseline="central">In</text><rect class="pf-port-pill" x="245.5" y="107.5" width="38.5" height="11" rx="0" fill="#e88ca5" data-signal="audio"/><text class="pf-port-pill-text" x="264.75" y="113" text-anchor="middle" dominant-baseline="central" font-family="&#39;SF Mono&#39;, &#39;Fira Code&#39;, Consolas, &#39;Courier New&#39;, monospace" font-size="8" fill="#ffffff" font-weight="600">audio</text><text x="284" y="189" font-family="&#39;SF Mono&#39;, &#39;Fira Code&#39;, Consolas, &#39;Courier New&#39;, monospace" font-size="9" fill="#e8e4dc" font-weight="600" text-anchor="end" dominant-baseline="central">Cutoff</text><rect class="pf-port-pill" x="265" y="171.5" width="19" height="11" rx="0" fill="#7bafd4" data-signal="cv"/><text class="pf-port-pill-text" x="274.5" y="177" text-anchor="middle" dominant-baseline="central" font-family="&#39;SF Mono&#39;, &#39;Fira Code&#39;, Consolas, &#39;Courier New&#39;, monospace" font-size="8" fill="#ffffff" font-weight="600">cv</text><text x="436" y="113" font-family="&#39;SF Mono&#39;, &#39;Fira Code&#39;, Consolas, &#39;Courier New&#39;, monospace" font-size="9" fill="#e8e4dc" font-weight="600" text-anchor="start" dominant-baseline="central">Out</text><rect class="pf-port-pill" x="436" y="119.5" width="38.5" height="11" rx="0" fill="#e88ca5" data-signal="audio"/><text class="pf-port-pill-text" x="455.25" y="125" text-anchor="middle" dominant-baseline="central" font-family="&#39;SF Mono&#39;, &#39;Fira Code&#39;, Consolas, &#39;Courier New&#39;, monospace" font-size="8" fill="#ffffff" font-weight="600">audio</text><text x="171" y="247" font-family="&#39;SF Mono&#39;, &#39;Fira Code&#39;, Consolas, &#39;Courier New&#39;, monospace" font-size="9" fill="#e8e4dc" font-weight="600" text-anchor="start" dominant-baseline="central">Out</text><rect class="pf-port-pill" x="171" y="229.5" width="19" height="11" rx="0" fill="#7bafd4" data-signal="cv"/><text class="pf-port-pill-text" x="180.5" y="235" text-anchor="middle" dominant-baseline="central" font-family="&#39;SF Mono&#39;, &#39;Fira Code&#39;, Consolas, &#39;Courier New&#39;, monospace" font-size="8" fill="#ffffff" font-weight="600">cv</text><text x="544" y="172.5" font-family="&#39;SF Mono&#39;, &#39;Fira Code&#39;, Consolas, &#39;Courier New&#39;, monospace" font-size="9" fill="#e8e4dc" font-weight="600" text-anchor="end" dominant-baseline="central">In</text><rect class="pf-port-pill" x="505.5" y="179" width="38.5" height="11" rx="0" fill="#e88ca5" data-signal="audio"/><text class="pf-port-pill-text" x="524.75" y="184.5" text-anchor="middle" dominant-baseline="central" font-family="&#39;SF Mono&#39;, &#39;Fira Code&#39;, Consolas, &#39;Courier New&#39;, monospace" font-size="8" fill="#ffffff" font-weight="600">audio</text><text x="544" y="260.5" font-family="&#39;SF Mono&#39;, &#39;Fira Code&#39;, Consolas, &#39;Courier New&#39;, monospace" font-size="9" fill="#e8e4dc" font-weight="600" text-anchor="end" dominant-baseline="central">CV</text><rect class="pf-port-pill" x="525" y="243" width="19" height="11" rx="0" fill="#7bafd4" data-signal="cv"/><text class="pf-port-pill-text" x="534.5" y="248.5" text-anchor="middle" dominant-baseline="central" font-family="&#39;SF Mono&#39;, &#39;Fira Code&#39;, Consolas, &#39;Courier New&#39;, monospace" font-size="8" fill="#ffffff" font-weight="600">cv</text><text x="436" y="320" font-family="&#39;SF Mono&#39;, &#39;Fira Code&#39;, Consolas, &#39;Courier New&#39;, monospace" font-size="9" fill="#e8e4dc" font-weight="600" text-anchor="start" dominant-baseline="central">Out</text><rect class="pf-port-pill" x="436" y="302.5" width="19" height="11" rx="0" fill="#7bafd4" data-signal="cv"/><text class="pf-port-pill-text" x="445.5" y="308" text-anchor="middle" dominant-baseline="central" font-family="&#39;SF Mono&#39;, &#39;Fira Code&#39;, Consolas, &#39;Courier New&#39;, monospace" font-size="8" fill="#ffffff" font-weight="600">cv</text></g><g class="pf-layer-annotations"></g><g class="pf-layer-legend"><g transform="translate(570, 373)"><line x1="0" y1="0" x2="20" y2="0" stroke="#e88ca5" stroke-width="3" stroke-linecap="round"/><text x="26" y="3" font-family="&#39;SF Mono&#39;, &#39;Fira Code&#39;, Consolas, &#39;Courier New&#39;, monospace" font-size="9" fill="#d0d0d0">audio</text></g><g transform="translate(640, 373)"><line x1="0" y1="0" x2="20" y2="0" stroke="#7bafd4" stroke-width="3" stroke-linecap="round"/><text x="26" y="3" font-family="&#39;SF Mono&#39;, &#39;Fira Code&#39;, Consolas, &#39;Courier New&#39;, monospace" font-size="9" fill="#d0d0d0">cv</text></g></g></svg>